<svg width="302" height="253" viewBox="0 0 302 253" fill="none" xmlns="http://www.w3.org/2000/svg">
<path d="M197.838 32.6882C197.977 32.6882 198.046 32.6185 198.116 32.4791C198.185 32.3397 198.116 32.1306 197.977 31.9912C194.574 30.1791 190.894 28.9942 187.005 28.5063C186.797 28.5063 186.658 28.6457 186.589 28.7851C186.589 28.9942 186.727 29.1336 186.866 29.2033C190.616 29.6912 194.227 30.876 197.56 32.6185C197.699 32.6185 197.769 32.6882 197.838 32.6882Z" fill="white"/>
<path d="M240.336 60.0092C240.406 60.0092 240.544 59.9395 240.614 59.8698C240.753 59.7304 240.683 59.5213 240.544 59.3819C239.156 58.1971 237.489 56.5243 235.822 54.7819C233.531 52.4122 231.17 49.9728 229.434 48.9971C229.295 48.9274 229.087 48.9971 228.948 49.1365C228.878 49.2759 228.948 49.4849 229.087 49.6243C230.753 50.5304 233.114 52.9698 235.336 55.2698C236.934 56.9425 238.67 58.6849 240.058 59.8698C240.197 60.0092 240.267 60.0092 240.336 60.0092Z" fill="white"/>
<path d="M259.502 91.3031C259.571 91.3031 259.571 91.3031 259.641 91.3031C259.849 91.2334 259.919 91.0243 259.849 90.885C259.155 88.794 258.044 86.8425 256.655 85.2395C256.516 85.1001 256.308 85.1001 256.169 85.1698C256.03 85.3092 256.03 85.5183 256.099 85.6577C257.419 87.2607 258.53 89.1425 259.155 91.094C259.224 91.2334 259.363 91.3031 259.502 91.3031Z" fill="white"/>
<path d="M265.196 129.009C265.335 129.009 265.474 128.939 265.543 128.8C266.585 126.5 266.932 123.921 266.585 121.412C266.585 121.203 266.446 121.133 266.238 121.133C266.238 121.133 266.238 121.133 266.168 121.133C265.96 121.133 265.821 121.342 265.891 121.551C266.168 123.921 265.821 126.361 264.849 128.521C264.779 128.73 264.849 128.939 265.057 129.009C265.127 129.009 265.196 129.009 265.196 129.009Z" fill="white"/>
<path d="M265.752 140.858C265.96 140.858 266.099 140.649 266.099 140.509C265.96 138.488 266.377 136.397 267.279 134.585C267.349 134.446 267.279 134.237 267.14 134.097C266.932 134.027 266.793 134.097 266.654 134.237C265.682 136.118 265.196 138.418 265.335 140.579C265.404 140.718 265.543 140.858 265.752 140.858Z" fill="white"/>
<path d="M255.405 170.061C255.544 170.061 255.613 169.991 255.683 169.852C257.419 166.785 258.46 163.439 259.224 158.77C259.224 158.561 259.155 158.421 258.946 158.352C258.738 158.352 258.599 158.421 258.53 158.63C257.766 163.23 256.724 166.506 255.058 169.503C254.988 169.642 254.988 169.852 255.197 169.991C255.266 170.061 255.335 170.061 255.405 170.061Z" fill="white"/>
<path d="M252.419 183.443C252.558 183.443 252.697 183.303 252.766 183.164C253.044 181.491 253.669 179.888 254.572 178.494C254.71 178.355 254.641 178.146 254.502 178.006C254.363 177.867 254.155 177.936 254.016 178.076C253.044 179.539 252.419 181.282 252.072 183.024C252.002 183.233 252.141 183.443 252.419 183.443Z" fill="white"/>
<path d="M194.574 30.2486C194.713 30.2486 194.852 30.1789 194.922 29.9698C194.991 29.7607 194.852 29.6213 194.713 29.5516C191.102 28.4365 186.866 25.7183 183.95 23.6971C183.811 23.5577 183.603 23.6274 183.464 23.7668C183.325 23.9062 183.394 24.1153 183.533 24.2547C186.45 26.3456 190.755 28.994 194.505 30.1789C194.505 30.2486 194.574 30.2486 194.574 30.2486Z" fill="white"/>
<path d="M215.893 39.1696C213.601 38.2635 211.171 37.7059 208.81 37.1483C205.407 36.312 201.935 35.4756 198.741 33.8029C192.63 30.5968 188.533 24.6726 185.2 19.3756C184.714 18.5393 184.158 17.7726 183.672 16.9362C180.686 12.1968 177.908 7.66653 173.603 4.32108C173.325 4.11199 173.256 3.6938 173.464 3.41502C173.603 3.13623 174.02 2.99683 174.298 3.13623C177.283 4.53017 180.478 5.57562 183.603 6.55138C185.616 7.17865 187.63 7.87562 189.644 8.64229C196.102 11.0817 200.477 13.9393 203.463 17.7029C205.546 20.2817 206.935 23.3484 208.254 26.2756C208.601 27.0423 208.949 27.809 209.296 28.5756C210.893 31.9908 213.046 35.7544 216.448 37.915C216.726 38.1241 216.865 38.4726 216.726 38.8211C216.587 39.0999 216.379 39.2393 216.101 39.2393C216.101 39.1696 215.962 39.1696 215.893 39.1696ZM184.853 16.1696C185.339 16.9362 185.825 17.7726 186.38 18.5393C189.644 23.6968 193.602 29.412 199.435 32.4787C202.491 34.0817 205.754 34.918 209.226 35.7544C210.476 36.0332 211.796 36.3817 213.046 36.7302C210.962 34.4999 209.435 31.7817 208.254 29.2029C207.907 28.4362 207.56 27.6696 207.213 26.9029C205.893 24.0453 204.504 21.0484 202.56 18.609C199.713 15.0544 195.477 12.3362 189.297 9.96653C187.352 9.19986 185.269 8.57259 183.325 7.87562C181.45 7.24835 179.506 6.62108 177.561 5.92411C180.339 8.99077 182.561 12.4756 184.853 16.1696Z" fill="white"/>
<path d="M213.74 36.8002C213.74 36.8002 212.074 36.2426 209.921 35.0578C207.768 33.8729 204.991 31.8517 202.768 29.3426C200.477 26.8335 198.463 24.185 197.005 22.0244C195.616 19.8638 194.435 18.5396 194.435 18.5396C194.366 18.4699 194.227 18.4699 194.158 18.5396C194.088 18.6093 194.088 18.7487 194.158 18.8184C194.158 18.8184 195.199 20.1426 196.449 22.3729C197.769 24.5335 199.574 27.5305 201.935 30.0396C204.296 32.6184 207.074 34.7093 209.365 35.9638C211.726 37.2881 213.323 37.7759 213.323 37.7759H213.393C213.671 37.8456 213.948 37.7062 214.018 37.4275C214.157 37.1487 214.018 36.8699 213.74 36.8002Z" fill="white"/>
<path d="M190.338 44.4666C185.825 43.8393 182.144 42.5151 177.839 40.9817C175.756 40.2151 173.534 39.4484 171.034 38.612C170.756 38.5423 170.548 38.2635 170.548 37.9848C170.548 37.706 170.687 37.4272 170.964 37.2878C178.395 34.0817 184.575 32.7575 190.269 33.106C197.491 33.5242 203.185 36.5908 209.226 39.8666C209.435 40.006 209.574 40.2151 209.574 40.4939C209.574 40.7726 209.435 40.9817 209.226 41.1211C205.129 43.6999 200.685 44.9545 195.477 44.9545C193.88 44.8151 192.144 44.6757 190.338 44.4666ZM190.2 34.4302C185.2 34.1514 179.714 35.1969 173.256 37.8454C175.061 38.4726 176.728 39.0302 178.325 39.5878C182.561 41.1211 186.172 42.4454 190.547 43.0029C197.283 43.909 202.699 43.0726 207.49 40.4242C202.005 37.4969 196.658 34.8484 190.2 34.4302Z" fill="white"/>
<path d="M235.197 46.8364C230.059 44.5364 227.767 39.4485 226.101 34.9182C224.017 29.4121 224.156 23.6273 224.295 17.9818C224.434 11.9879 224.504 6.41212 222.281 0.975758C222.143 0.627273 222.281 0.278788 222.559 0.069697C222.837 -0.069697 223.254 0 223.462 0.278788C229.156 8.15455 236.309 17.9818 237.489 29.1333C238.114 34.9182 237.142 40.703 236.17 46.3485C236.1 46.5576 236.031 46.697 235.822 46.8364C235.753 46.9061 235.614 46.9061 235.475 46.9061C235.406 46.9061 235.267 46.9061 235.197 46.8364ZM225.615 17.9818C225.476 23.4879 225.406 29.1333 227.351 34.4303C229.226 39.3788 231.239 43.1424 234.92 45.1636C235.822 39.9364 236.725 34.5697 236.1 29.2727C235.128 20.003 229.989 11.8485 224.781 4.6C225.823 8.99091 225.753 13.5212 225.615 17.9818Z" fill="white"/>
<path d="M208.185 40.0757C208.185 40.0757 206.727 40.1454 204.504 39.8666C202.282 39.6575 199.366 39.0999 196.449 38.612C190.547 37.4969 184.505 37.706 184.505 37.706C184.366 37.706 184.297 37.7757 184.297 37.9151C184.297 37.9848 184.366 38.1242 184.505 38.1242C184.505 38.1242 185.964 38.2636 188.186 38.403C190.408 38.6817 193.324 39.0999 196.241 39.5878C199.157 40.0757 202.074 40.6333 204.366 40.912C206.657 41.1908 208.115 41.1211 208.115 41.1211H208.185C208.463 41.1211 208.74 40.8423 208.671 40.5636C208.74 40.2848 208.463 40.0757 208.185 40.0757Z" fill="white"/>
<path d="M229.503 20.491C229.503 20.491 229.781 22.094 230.059 24.4637C230.337 26.8334 230.545 30.1091 230.753 33.3152C230.962 36.5213 231.864 39.8667 232.906 42.097C233.948 44.3273 234.85 45.7213 234.85 45.7213C234.989 46 235.336 46.0697 235.614 45.8607C235.822 45.7213 235.892 45.3728 235.753 45.1637C235.753 45.1637 234.989 43.7697 234.017 41.6091C233.045 39.4485 232.212 36.4516 231.934 33.1758C231.517 29.9697 231.1 26.7637 230.684 24.394C230.267 22.0243 229.712 20.4213 229.712 20.4213C229.712 20.3516 229.642 20.3516 229.573 20.3516C229.503 20.4213 229.503 20.491 229.503 20.491Z" fill="white"/>
<path d="M239.572 64.1211C236.586 62.7272 233.323 63.006 229.851 63.2848C228.67 63.3545 227.559 63.4938 226.448 63.4938C221.448 63.5635 216.379 62.5181 211.865 60.3575C209.574 59.2423 207.421 57.7787 205.268 56.4545C202.56 54.6423 199.713 52.7605 196.588 51.6454C196.519 51.6454 196.519 51.6454 196.449 51.5757C196.102 51.4363 195.894 51.0181 196.033 50.6696C196.172 50.3211 196.588 50.112 196.935 50.2514C197.005 50.2514 197.005 50.2514 197.074 50.3211C200.963 51.7848 205.477 51.1575 209.851 50.5999C210.824 50.4605 211.796 50.3908 212.699 50.2514C217.837 49.6938 223.74 49.4151 228.601 52.2029C231.031 53.5969 232.975 55.7575 234.85 57.7787C236.517 59.5908 238.183 61.4726 240.197 62.7969C240.475 63.006 240.614 63.4242 240.406 63.7029C240.267 63.912 240.058 64.0514 239.781 64.0514C239.781 64.1908 239.642 64.1211 239.572 64.1211ZM236.725 61.8908C235.684 60.9151 234.711 59.8696 233.809 58.8241C231.934 56.7332 230.198 54.7817 227.906 53.4575C223.392 50.809 217.768 51.1575 212.837 51.6454C211.935 51.7151 210.963 51.8545 209.99 51.9938C207.282 52.3423 204.435 52.6908 201.727 52.5514C203.185 53.3878 204.574 54.3635 206.032 55.2696C208.115 56.5938 210.199 58.0575 212.421 59.1029C216.726 61.1938 221.587 62.309 226.309 62.0999C227.42 62.0999 228.531 61.9605 229.642 61.8908C231.031 61.7514 232.489 61.6817 233.878 61.6817C234.92 61.6817 235.822 61.7514 236.725 61.8908Z" fill="white"/>
<path d="M259.363 77.5029C259.085 77.4332 258.877 77.1544 258.877 76.8756C258.669 72.9725 256.516 69.3483 254.502 65.7938L253.461 63.9119C251.586 60.7756 249.711 57.4998 248.739 53.8756C247.28 48.3695 248.114 42.5847 249.294 37.218C249.502 36.2422 249.711 35.2665 249.919 34.3604C250.891 30.0392 251.863 25.5786 251.863 21.1877C251.863 20.8392 252.141 20.5604 252.488 20.4907C252.836 20.421 253.183 20.6998 253.252 21.0483C254.433 25.8574 256.585 29.8301 258.946 34.0816C259.919 35.8241 260.891 37.6362 261.793 39.518C264.571 45.0938 267.557 53.318 266.307 61.1938C265.474 66.7695 263.391 72.2059 260.127 77.2241C259.988 77.4332 259.78 77.5726 259.571 77.5726C259.502 77.5029 259.432 77.5029 259.363 77.5029ZM251.308 34.7089C251.1 35.6847 250.891 36.6604 250.683 37.5665C249.572 42.7938 248.739 48.2998 250.127 53.5271C251.03 56.9422 252.905 60.1483 254.71 63.215L255.822 65.0968C257.627 68.1635 259.432 71.3695 260.127 74.7847C262.696 70.3938 264.363 65.7241 265.057 60.915C265.96 55.0604 264.363 47.6726 260.613 40.0756C259.71 38.1938 258.738 36.4513 257.766 34.7089C256.03 31.5725 254.363 28.5059 253.113 25.1604C252.697 28.3665 252.002 31.5725 251.308 34.7089Z" fill="white"/>
<path d="M256.446 95.0668C252.488 93.1153 247.836 92.8365 243.392 92.6274C238.67 92.4183 233.878 92.1395 229.573 89.9092C226.378 88.2365 223.809 85.6577 221.309 83.1486C218.462 80.291 215.823 77.6425 212.351 76.1789C212.004 76.0395 211.865 75.691 211.935 75.3425C212.074 74.9941 212.351 74.785 212.768 74.8547C216.171 75.691 219.712 76.0395 223.531 76.388C228.878 76.9456 234.434 77.4334 239.572 79.4547C242.697 80.6395 245.891 82.8698 248.808 85.7274C251.933 88.8638 254.988 91.6516 257.28 93.8122C257.558 94.0213 257.558 94.4395 257.419 94.7183C257.28 94.9274 257.071 94.9971 256.863 94.9971C256.655 95.1365 256.516 95.1365 256.446 95.0668ZM222.281 82.2425C224.712 84.6819 227.212 87.191 230.198 88.7244C234.225 90.8153 238.739 91.0244 243.461 91.3032C246.864 91.4425 250.336 91.6516 253.669 92.5577C251.863 90.885 249.85 88.9335 247.766 86.8425C244.989 84.0547 242.003 82.0335 239.017 80.8486C234.086 78.9668 228.601 78.4092 223.323 77.8516C220.962 77.6425 218.74 77.3638 216.518 77.085C218.601 78.6183 220.476 80.4304 222.281 82.2425Z" fill="white"/>
<path d="M273.182 114.512C272.974 114.373 272.765 114.164 272.765 113.885C272.696 110.261 272.071 106.636 271.515 103.082C271.238 101.409 270.96 99.6666 270.751 97.9938C270.126 93.3938 269.71 87.3302 271.793 81.7544C272.904 78.6181 274.779 75.8302 276.585 73.0423C278.876 69.5575 281.098 66.212 281.862 62.309C281.931 62.0302 281.931 61.7514 282.001 61.4726C282.07 61.1241 282.418 60.8454 282.765 60.915C283.112 60.9847 283.39 61.3332 283.32 61.6817C283.251 61.9605 283.251 62.2393 283.181 62.5878C282.001 69.6969 282.834 76.6666 283.667 83.9847L283.737 84.4726C284.292 89.212 284.431 93.2544 284.154 96.809C283.737 103.082 279.779 109.842 273.876 114.373C273.737 114.442 273.599 114.512 273.46 114.512C273.321 114.582 273.251 114.512 273.182 114.512ZM277.696 73.809C275.96 76.4575 274.154 79.2454 273.043 82.2423C271.099 87.5393 271.515 93.3938 272.071 97.8544C272.279 99.5272 272.557 101.2 272.835 102.942C273.321 106.079 273.876 109.285 274.015 112.491C278.945 108.239 282.279 102.176 282.695 96.809C282.904 93.3241 282.765 89.4211 282.279 84.7514L282.209 84.2635C281.584 78.7575 280.959 73.3908 281.237 68.0241C280.195 69.9757 278.946 71.8575 277.696 73.809Z" fill="white"/>
<path d="M262.071 134.167C260.96 132.564 259.155 131.379 256.377 130.403C255.683 130.124 254.919 129.915 254.155 129.706C252.558 129.218 250.822 128.73 249.294 127.894C245.891 126.152 243.044 122.945 240.683 118.276C239.642 116.255 238.808 114.094 237.975 111.933C237.281 110.191 236.517 108.309 235.684 106.567C233.531 102.036 231.031 98.9697 228.045 97.1576C227.767 96.9485 227.628 96.6 227.767 96.2515C227.906 95.903 228.323 95.7636 228.67 95.903C229.712 96.3212 230.545 96.6697 231.448 97.0879C232.281 97.4364 233.114 97.8545 234.156 98.203C240.406 100.782 247.489 103.639 252.28 109.215C256.238 113.815 258.183 119.53 260.127 125.106C261.099 127.824 262.071 130.682 263.252 133.4C263.391 133.748 263.252 134.097 262.974 134.306C262.835 134.376 262.766 134.376 262.627 134.376C262.418 134.445 262.21 134.376 262.071 134.167ZM237.003 106.009C237.836 107.821 238.6 109.633 239.294 111.445C240.128 113.536 240.961 115.627 242.003 117.648C244.225 122.039 246.864 125.036 249.988 126.639C251.447 127.406 252.974 127.824 254.572 128.382C255.335 128.591 256.099 128.87 256.863 129.079C258.391 129.636 259.71 130.194 260.752 130.961C260.057 129.218 259.502 127.476 258.877 125.733C256.933 120.018 255.058 114.652 251.308 110.33C246.725 105.033 239.781 102.176 233.67 99.6667C233.323 99.5273 232.906 99.3879 232.559 99.1788C234.225 100.921 235.684 103.221 237.003 106.009Z" fill="white"/>
<path d="M265.96 158.77C265.821 158.561 265.752 158.282 265.821 158.073C267.071 154.797 267.627 151.243 268.113 147.758C268.321 146.155 268.599 144.482 268.876 142.879C269.918 137.512 272.418 132.982 276.307 129.288C279.779 126.012 283.806 123.712 288.598 122.318L289.153 122.179C293.389 120.924 297.764 119.531 300.819 116.394C301.097 116.115 301.514 116.115 301.792 116.394C302.069 116.673 302.069 117.091 301.861 117.37C298.181 121.831 295.75 127.267 293.389 132.564C290.959 137.931 288.528 143.506 284.709 148.106C280.126 153.612 273.737 157.515 266.724 159.118C266.654 159.118 266.654 159.118 266.585 159.118C266.307 158.979 266.099 158.909 265.96 158.77ZM289.57 123.434L289.014 123.573C284.431 124.967 280.612 127.127 277.279 130.264C273.598 133.749 271.237 138.07 270.265 143.088C269.988 144.691 269.71 146.294 269.501 147.897C269.085 151.034 268.599 154.24 267.557 157.306C273.807 155.634 279.432 152.079 283.529 147.061C287.209 142.6 289.639 137.164 292 131.867C293.736 127.894 295.542 123.852 297.903 120.158C295.403 121.621 292.417 122.527 289.57 123.434Z" fill="white"/>
<path d="M249.502 179.4C247.419 177.867 245.475 177.17 243.6 176.543C241.239 175.706 238.808 174.8 236.239 172.291C233.184 169.294 231.17 164.903 230.198 159.258C229.712 156.47 229.573 153.612 229.364 150.824C229.226 148.943 229.156 146.991 228.948 145.109C228.323 139.464 227.003 135.352 224.642 132.146C224.434 131.867 224.504 131.449 224.712 131.24C224.99 131.03 225.337 130.961 225.615 131.24C226.865 132.285 227.976 133.33 229.156 134.306C230.337 135.352 231.448 136.327 232.698 137.373C239.781 143.437 245.891 148.664 248.808 158.561C249.919 162.255 249.919 166.158 249.919 169.991C249.919 173.058 249.919 176.055 250.475 178.633C250.544 178.912 250.405 179.191 250.197 179.33C250.058 179.4 249.919 179.47 249.78 179.47C249.78 179.54 249.641 179.54 249.502 179.4ZM230.406 144.97C230.614 146.852 230.753 148.803 230.823 150.755C230.962 153.473 231.17 156.33 231.587 159.049C232.489 164.415 234.364 168.527 237.211 171.315C239.572 173.615 241.794 174.382 244.086 175.218C245.614 175.776 247.211 176.333 248.947 177.379C248.6 175.079 248.6 172.64 248.6 170.061C248.6 166.367 248.6 162.533 247.558 159.049C244.711 149.57 238.739 144.412 231.864 138.488C230.614 137.443 229.503 136.397 228.323 135.421C228.184 135.282 228.045 135.143 227.906 135.073C229.156 137.721 229.92 140.997 230.406 144.97Z" fill="white"/>
<path d="M255.613 187.903C255.405 187.694 255.335 187.415 255.405 187.206C256.655 183.234 261.516 169.921 271.862 166.785C274.571 165.949 277.348 165.67 280.057 165.391C282.765 165.112 285.612 164.764 288.251 163.928C292.348 162.673 295.334 161.209 297.972 157.794C298.181 157.515 298.597 157.446 298.875 157.655C299.153 157.864 299.292 158.212 299.153 158.561C297.07 163.37 294.639 167.691 292.556 171.315C289.778 175.985 286.306 181.212 281.029 183.931C276.793 186.161 271.932 186.37 267.279 186.579C263.599 186.788 259.71 186.927 256.238 188.112C256.169 188.112 256.099 188.182 256.03 188.182C255.96 188.112 255.752 188.043 255.613 187.903ZM288.737 165.252C285.959 166.088 283.112 166.437 280.334 166.715C277.696 166.994 274.918 167.343 272.349 168.109C265.057 170.34 259.849 178.703 257.21 186.3C260.474 185.394 263.946 185.255 267.279 185.046C272.001 184.837 276.515 184.628 280.473 182.537C285.473 179.958 288.806 175.009 291.445 170.479C292.973 167.831 294.709 164.834 296.306 161.488C294.153 163.3 291.723 164.346 288.737 165.252Z" fill="white"/>
<path d="M238.045 61.8907C238.045 61.8907 236.656 60.9847 234.434 59.8695C232.211 58.7544 229.087 57.4998 225.823 56.6635C219.295 55.0604 212.56 55.8968 212.56 55.8968C212.49 55.8968 212.49 55.9665 212.49 56.0362C212.49 56.1059 212.56 56.1059 212.629 56.1059C212.629 56.1059 219.295 55.6877 225.615 57.6392C232.003 59.2422 237.489 63.0059 237.489 63.0059C237.767 63.215 238.114 63.1453 238.322 62.8665C238.461 62.518 238.392 62.0998 238.045 61.8907C238.114 61.8907 238.114 61.8907 238.045 61.8907Z" fill="white"/>
<path d="M255.266 42.5151C255.266 42.5151 255.405 44.606 256.377 47.6727C257.21 50.6697 258.53 54.6424 259.224 58.7545C260.057 62.7969 260.196 66.9788 259.988 70.0454C259.849 73.1121 259.432 75.1333 259.432 75.1333C259.363 75.4818 259.571 75.7606 259.919 75.8303C260.266 75.9 260.544 75.6909 260.613 75.3424V75.2727C260.613 75.2727 262.141 66.7697 260.266 58.4757C259.432 54.3636 257.974 50.3909 257.002 47.4636C255.96 44.5363 255.752 42.4454 255.752 42.4454C255.752 42.306 255.613 42.2363 255.474 42.2363C255.335 42.2363 255.266 42.3757 255.266 42.5151Z" fill="white"/>
<path d="M254.919 92.1394C254.919 92.1394 253.183 91.6515 250.752 90.6758C248.252 89.7 245.058 88.2364 241.864 86.703C238.67 85.1 235.336 83.7758 232.767 83.0091C230.198 82.2424 228.392 82.103 228.392 82.103C228.323 82.103 228.253 82.1727 228.253 82.2424C228.253 82.3121 228.323 82.3818 228.392 82.3818C228.392 82.3818 230.128 82.7303 232.628 83.7061C235.128 84.6121 238.253 86.2849 241.447 87.8182C244.642 89.3515 247.905 90.8849 250.405 91.8606C252.905 92.8364 254.641 93.3939 254.641 93.3939C254.988 93.5333 255.335 93.3242 255.405 93.0455C255.405 92.6273 255.266 92.2788 254.919 92.1394Z" fill="white"/>
<path d="M277.418 85.518C277.418 85.518 276.862 87.1907 276.584 89.8392C276.237 92.4877 276.237 96.0422 276.098 99.5271C275.959 103.012 275.612 106.427 274.71 108.866C273.876 111.306 272.835 112.63 272.835 112.63C272.626 112.909 272.696 113.257 272.904 113.466C273.182 113.676 273.529 113.606 273.737 113.397L273.807 113.327C273.807 113.327 274.987 111.863 275.89 109.285C276.793 106.706 277.348 103.151 277.279 99.5968C277.209 96.0422 277.001 92.5574 277.209 89.9786C277.348 87.3998 277.765 85.6574 277.765 85.6574C277.765 85.5877 277.765 85.4483 277.626 85.4483C277.557 85.3786 277.487 85.4483 277.418 85.518Z" fill="white"/>
<path d="M261.585 130.891C261.585 130.891 260.196 129.985 258.46 128.312C256.724 126.639 254.71 124.06 252.905 121.273C251.1 118.554 249.433 115.697 247.905 113.676C246.447 111.654 245.058 110.609 245.058 110.609C244.989 110.539 244.919 110.539 244.85 110.609C244.78 110.679 244.78 110.748 244.85 110.818C244.85 110.818 246.169 111.863 247.489 113.885C248.877 115.906 250.405 118.833 252.141 121.691C253.877 124.548 255.891 127.197 257.696 129.009C259.502 130.821 260.891 131.727 260.891 131.727L260.96 131.797C261.238 132.006 261.585 131.936 261.793 131.657C262.002 131.448 261.863 131.1 261.585 130.891Z" fill="white"/>
<path d="M284.57 134.097C284.57 134.097 283.181 135.421 281.584 137.721C279.918 140.021 278.182 143.297 276.307 146.503C274.501 149.709 272.349 152.706 270.404 154.518C268.46 156.4 266.793 157.167 266.793 157.167C266.515 157.306 266.377 157.655 266.515 158.003C266.654 158.282 267.002 158.421 267.349 158.282H267.418C267.418 158.282 269.224 157.446 271.237 155.424C273.321 153.473 275.543 150.337 277.279 147.061C279.015 143.785 280.612 140.44 282.14 138.14C283.598 135.84 284.917 134.515 284.917 134.515C284.987 134.446 284.987 134.237 284.917 134.167C284.848 133.958 284.64 133.958 284.57 134.097Z" fill="white"/>
<path d="M236.656 150.336C236.656 150.336 237.489 152.079 238.253 154.867C239.086 157.654 240.197 161.348 241.447 164.973C242.767 168.597 244.364 172.151 245.891 174.661C247.419 177.17 248.808 178.633 248.808 178.633C249.016 178.912 249.433 178.912 249.641 178.703C249.919 178.494 249.919 178.076 249.711 177.867C249.711 177.867 248.391 176.542 246.864 174.103C245.336 171.733 243.739 168.248 242.35 164.624C240.961 161.07 239.781 157.376 238.808 154.657C237.906 151.87 237.003 150.127 237.003 150.127C236.934 149.988 236.795 149.988 236.725 150.057C236.586 150.057 236.586 150.197 236.656 150.336Z" fill="white"/>
<path d="M280.612 174.033C280.612 174.033 279.501 175.288 277.348 176.542C275.196 177.797 272.071 178.982 268.876 180.097C265.682 181.212 262.557 182.466 260.266 183.651C257.974 184.836 256.655 185.951 256.655 185.951C256.377 186.16 256.308 186.579 256.516 186.788C256.724 187.066 257.071 187.136 257.349 186.927C257.349 186.927 258.599 185.882 260.752 184.697C262.905 183.512 266.029 182.257 269.154 181.073C272.279 179.818 275.404 178.563 277.626 177.17C279.848 175.845 280.959 174.451 280.959 174.451V174.382C281.029 174.242 281.029 174.103 280.89 173.963C280.89 173.894 280.681 173.963 280.612 174.033Z" fill="white"/>
<path d="M221.865 42.1669C222.212 42.1669 222.49 41.9578 222.559 41.6093C222.629 41.2608 222.42 40.8426 222.004 40.7729C218.046 40.0063 213.532 39.6578 208.046 39.7275C207.629 39.7275 207.352 40.0759 207.352 40.4244C207.352 40.8426 207.699 41.1911 208.046 41.1214C213.323 41.0517 217.837 41.4002 221.726 42.1669C221.795 42.1669 221.865 42.1669 221.865 42.1669Z" fill="white"/>
<path d="M236.934 51.5063C237.142 51.5063 237.281 51.4366 237.42 51.2972C237.697 51.0184 237.628 50.6002 237.35 50.3214C232.35 45.7911 226.24 42.7941 220.268 39.9366C218.601 39.1002 216.934 38.3335 215.407 37.4972C215.06 37.2881 214.643 37.4275 214.504 37.776C214.296 38.1244 214.435 38.5426 214.782 38.682C216.379 39.5184 217.976 40.285 219.712 41.1214C225.545 43.979 231.587 46.9063 236.447 51.2972C236.656 51.4366 236.795 51.5063 236.934 51.5063Z" fill="white"/>
<path d="M242.975 65.9334C243.044 65.9334 243.183 65.9334 243.253 65.8637C243.6 65.7243 243.739 65.3061 243.6 64.9577C240.614 58.6152 238.114 52.2728 236.031 45.3728C235.892 45.0243 235.545 44.8152 235.128 44.8849C234.781 45.0243 234.573 45.3728 234.642 45.791C236.795 52.691 239.295 59.1728 242.28 65.5152C242.419 65.794 242.697 65.9334 242.975 65.9334Z" fill="white"/>
<path d="M258.946 82.3819C259.085 82.3819 259.224 82.3819 259.294 82.3122C259.641 82.1031 259.71 81.6849 259.571 81.3364C254.78 73.2516 247.489 66.4213 239.086 62.2395C238.739 62.1001 238.322 62.2394 238.183 62.5879C238.045 62.9364 238.183 63.3546 238.531 63.494C246.725 67.5364 253.808 74.1576 258.46 82.0334C258.53 82.3122 258.738 82.3819 258.946 82.3819Z" fill="white"/>
<path d="M260.96 98.5515C261.03 98.5515 261.099 98.5515 261.169 98.5515C261.516 98.4818 261.724 98.0636 261.655 97.7152C259.849 91.0243 259.433 83.0091 260.405 75.6909C260.474 75.3424 260.196 74.9939 259.78 74.9242C259.433 74.8546 259.085 75.1333 259.016 75.5515C258.044 83.0091 258.46 91.2333 260.335 98.1333C260.335 98.4121 260.613 98.5515 260.96 98.5515Z" fill="white"/>
<path d="M271.932 117.44C272.001 117.44 272.071 117.44 272.071 117.44C272.418 117.37 272.696 116.952 272.557 116.603C270.335 107.403 264.502 98.9701 256.655 93.6035C256.308 93.3944 255.891 93.4641 255.683 93.8125C255.474 94.161 255.544 94.5792 255.891 94.7883C263.46 100.016 269.085 108.1 271.238 117.022C271.307 117.231 271.585 117.44 271.932 117.44Z" fill="white"/>
<path d="M264.571 159.885C264.849 159.885 265.127 159.745 265.196 159.467C268.599 150.824 267.765 141.276 262.766 132.703C262.557 132.355 262.141 132.285 261.794 132.424C261.446 132.633 261.377 133.052 261.516 133.4C266.238 141.624 267.071 150.685 263.807 158.979C263.668 159.327 263.807 159.745 264.224 159.885C264.432 159.885 264.502 159.885 264.571 159.885Z" fill="white"/>
<path d="M250.544 179.958C250.822 179.958 251.1 179.749 251.169 179.47C254.224 170.758 259.919 163.23 266.863 158.77C267.21 158.561 267.279 158.142 267.071 157.794C266.863 157.445 266.446 157.376 266.099 157.585C258.877 162.255 252.974 170.061 249.85 178.982C249.711 179.33 249.919 179.749 250.266 179.888C250.336 179.958 250.405 179.958 250.544 179.958Z" fill="white"/>
<path d="M253.877 189.576C253.947 189.576 254.016 189.576 254.016 189.576C254.363 189.506 254.641 189.088 254.502 188.74C253.669 185.255 251.933 180.934 250.127 178.006C249.919 177.658 249.502 177.588 249.155 177.797C248.808 178.006 248.739 178.425 248.947 178.773C250.613 181.561 252.35 185.743 253.113 189.088C253.322 189.367 253.599 189.576 253.877 189.576Z" fill="white"/>
<path d="M250.683 192.016C252.766 190.552 255.058 189.019 257.488 187.555C257.835 187.346 257.905 186.928 257.696 186.579C257.488 186.231 257.071 186.161 256.724 186.37C254.016 188.043 251.516 189.646 249.225 191.319L250.683 192.016Z" fill="white"/>
<path d="M262.488 133.261C262.696 133.261 262.905 133.191 263.043 132.982C267.349 127.685 271.515 120.367 274.223 113.328C274.362 112.979 274.154 112.561 273.807 112.422C273.46 112.282 273.043 112.491 272.904 112.84C270.265 119.74 266.168 126.988 261.932 132.146C261.724 132.425 261.724 132.913 262.002 133.122C262.141 133.191 262.28 133.261 262.488 133.261Z" fill="white"/>
<path d="M179.158 28.2274C178.672 27.5304 178.742 26.7638 179.297 26.0668C180.339 24.8122 182.839 24.8819 184.783 25.5789C186.45 26.1365 187.491 27.0425 187.491 28.088C187.491 28.9941 186.936 29.691 185.894 30.0395C185.408 30.1789 184.853 30.2486 184.297 30.2486C182.283 30.2486 179.922 29.4122 179.158 28.2274ZM179.853 26.485C179.506 26.9728 179.436 27.391 179.714 27.8092C180.547 29.0638 183.88 29.9001 185.686 29.3425C186.45 29.1335 186.797 28.6456 186.797 28.088C186.797 27.391 185.894 26.6941 184.575 26.2062C183.742 25.9274 182.839 25.788 182.005 25.788C181.103 25.7183 180.269 25.9274 179.853 26.485Z" fill="white"/>
<path d="M182.214 24.8122C180.547 24.6728 177.908 23.0001 177.561 21.3274C177.422 20.6304 177.7 20.0031 178.325 19.6546C179.506 19.0274 181.45 19.794 182.769 20.9092C183.88 21.8849 184.366 22.9304 184.089 23.6971C183.811 24.394 183.255 24.7425 182.422 24.7425C182.353 24.8122 182.283 24.8122 182.214 24.8122ZM178.672 20.2819C178.256 20.491 178.117 20.7698 178.186 21.188C178.464 22.3728 180.686 23.9759 182.214 24.1152C183.117 24.1849 183.325 23.6971 183.394 23.488C183.603 23.0001 183.117 22.2334 182.283 21.4668C181.311 20.6304 180.131 20.1425 179.297 20.1425C179.089 20.1425 178.881 20.2122 178.672 20.2819Z" fill="white"/>
<path d="M221.934 40.8424C219.781 39.6576 218.115 35.3363 218.393 32.8273C218.532 31.3636 219.295 30.8757 219.851 30.7363C221.587 30.2485 223.184 32.1303 224.087 34.0121C225.337 36.3818 225.823 39.3788 224.504 40.5636C224.087 40.9818 223.601 41.1212 223.045 41.1212C222.698 41.1212 222.281 41.0515 221.934 40.8424ZM220.059 31.3636C219.504 31.503 219.226 31.9909 219.087 32.897C218.809 35.1273 220.337 39.1697 222.281 40.2151C222.906 40.5636 223.531 40.4939 224.156 40.006C225.198 39.1 224.712 36.3818 223.601 34.2909C222.629 32.4788 221.448 31.3636 220.476 31.3636C220.268 31.3636 220.198 31.3636 220.059 31.3636Z" fill="white"/>
<path d="M221.379 48.0908C220.545 47.2544 220.268 46.4181 220.545 45.6514C221.031 44.3969 222.629 43.9787 224.92 44.5363C227.49 45.1635 230.128 46.7666 229.92 48.509C229.851 49.4847 229.364 50.1817 228.531 50.4605C228.184 50.5999 227.767 50.6696 227.281 50.6696C225.267 50.6696 222.698 49.4847 221.379 48.0908ZM221.17 45.9302C220.962 46.5575 221.518 47.2544 221.865 47.6029C223.323 49.1363 226.587 50.4605 228.253 49.8332C228.878 49.6241 229.226 49.1363 229.226 48.4393C229.364 47.1847 226.934 45.7211 224.712 45.2332C224.156 45.0938 223.601 45.0241 223.045 45.0241C222.212 45.0241 221.448 45.2332 221.17 45.9302Z" fill="white"/>
<path d="M247.419 67.6757C245.475 66.2818 244.225 61.7515 244.78 59.5212C245.058 58.4757 245.614 58.1272 246.03 58.0575C247.766 57.8484 249.225 60.009 249.988 62.0302C250.822 64.1908 251.1 66.8393 249.78 67.6757C249.364 67.9545 249.016 68.0939 248.6 68.0939C248.252 68.0939 247.836 67.9545 247.419 67.6757ZM246.1 58.7545C245.753 58.8242 245.544 59.103 245.405 59.6606C244.919 61.6818 246.1 65.9333 247.766 67.1181C248.322 67.4666 248.808 67.4666 249.364 67.1181C250.197 66.5605 250.127 64.4696 249.294 62.309C248.669 60.5666 247.419 58.7545 246.239 58.7545C246.239 58.7545 246.169 58.7545 246.1 58.7545Z" fill="white"/>
<path d="M254.224 86.0757C251.933 85.2394 249.641 81.6848 249.502 79.5939C249.433 78.5485 249.919 78.0606 250.336 77.8515C252.002 77.0151 254.363 78.8273 255.822 80.8485C256.933 82.3818 257.835 84.4727 256.863 85.5182C256.377 86.006 255.822 86.2848 255.197 86.2848C254.849 86.2151 254.572 86.1454 254.224 86.0757ZM250.613 78.4091C250.266 78.5485 250.127 78.8969 250.197 79.4545C250.266 81.3363 252.488 84.6121 254.433 85.3788C255.197 85.6576 255.822 85.5182 256.308 84.9606C256.863 84.3333 256.447 82.8 255.266 81.1273C254.155 79.5939 252.488 78.2 251.238 78.2C251.03 78.2697 250.822 78.3394 250.613 78.4091Z" fill="white"/>
<path d="M262.905 99.4579C261.655 96.8791 263.182 91.1639 264.779 89.3518C265.404 88.6548 265.96 88.5851 266.307 88.7245C268.252 89.4215 268.529 92.7669 268.182 95.3457C267.835 97.9245 266.724 100.573 265.127 100.712C265.057 100.712 264.988 100.712 264.918 100.712C264.016 100.782 263.321 100.294 262.905 99.4579ZM265.335 89.8397C263.946 91.4427 262.488 96.8791 263.599 99.1791C263.946 99.8063 264.432 100.155 265.127 100.085C266.168 100.015 267.21 97.9942 267.557 95.3457C267.904 92.9063 267.557 89.9791 266.168 89.4912C265.891 89.3518 265.543 89.6306 265.335 89.8397Z" fill="white"/>
<path d="M263.599 120.924C261.446 118.694 260.196 113.258 261.377 111.097C261.793 110.33 262.488 109.982 263.391 110.121C265.543 110.54 267.349 114.164 267.835 117.37C268.182 119.6 267.765 121.203 266.724 121.691C266.377 121.83 266.029 121.97 265.682 121.97C264.988 121.9 264.293 121.552 263.599 120.924ZM263.252 110.818C262.627 110.679 262.28 110.888 262.002 111.446C261.03 113.327 262.21 118.485 264.154 120.437C264.918 121.203 265.682 121.412 266.377 121.064C267.14 120.715 267.418 119.321 267.14 117.44C266.724 114.512 265.057 111.097 263.252 110.818Z" fill="white"/>
<path d="M267.557 135.351C266.515 134.864 266.029 133.888 266.238 132.494C266.585 129.427 269.918 124.967 272.279 124.479C273.112 124.27 273.876 124.618 274.293 125.454C275.334 127.406 273.737 131.17 271.585 133.47C270.404 134.794 269.224 135.491 268.251 135.491C267.974 135.491 267.765 135.421 267.557 135.351ZM272.418 125.176C270.335 125.594 267.21 129.776 266.932 132.564C266.793 133.679 267.14 134.376 267.904 134.724C268.668 135.073 269.918 134.445 271.099 133.051C273.112 130.891 274.571 127.406 273.737 125.803C273.529 125.385 273.182 125.176 272.765 125.176C272.626 125.106 272.487 125.176 272.418 125.176Z" fill="white"/>
<path d="M257.141 157.864C255.544 155.773 255.96 150.824 257.002 148.524C257.488 147.479 258.113 146.921 258.807 146.852H258.877C260.335 146.852 261.377 148.524 261.655 151.382C262.002 154.658 261.307 158.421 259.502 158.77C259.294 158.77 259.155 158.839 259.016 158.839C258.252 158.839 257.627 158.491 257.141 157.864ZM258.807 147.549C258.391 147.549 257.974 148.036 257.627 148.803C256.516 151.173 256.377 155.703 257.696 157.446C258.113 158.003 258.669 158.212 259.363 158.073C260.543 157.864 261.377 154.658 260.96 151.452C260.752 149.57 260.057 147.549 258.807 147.549Z" fill="white"/>
<path d="M254.919 179.191C253.947 178.703 253.461 177.797 253.53 176.612C253.738 173.755 257.071 169.782 259.294 169.085C260.057 168.876 260.752 169.015 261.099 169.503C262.418 171.176 261.169 174.451 259.294 176.821C258.044 178.424 256.724 179.33 255.613 179.33C255.405 179.33 255.197 179.261 254.919 179.191ZM259.502 169.712C257.558 170.339 254.433 174.033 254.224 176.612C254.155 177.518 254.502 178.145 255.197 178.494C256.03 178.912 257.419 178.006 258.738 176.333C260.405 174.173 261.585 171.245 260.544 169.921C260.474 169.851 260.335 169.642 259.919 169.642C259.849 169.642 259.71 169.642 259.502 169.712Z" fill="white"/>
<path d="M260.266 193.967C257.21 193.897 253.808 192.782 253.599 191.039C253.53 190.064 253.947 189.227 254.78 188.739C257.071 187.346 262.418 188.112 264.71 189.715C265.752 190.412 265.89 191.109 265.821 191.597C265.543 193.339 263.043 193.967 260.613 193.967C260.543 193.967 260.405 193.967 260.266 193.967ZM265.196 191.458C265.266 190.97 264.779 190.552 264.363 190.273C262.28 188.809 257.21 188.042 255.127 189.297C254.502 189.715 254.224 190.203 254.294 190.97C254.433 192.155 257.141 193.2 260.266 193.27C260.405 193.27 260.544 193.27 260.682 193.27C263.252 193.27 264.988 192.573 265.196 191.458Z" fill="white"/>
<path d="M104.162 32.6882C104.023 32.6882 103.953 32.6185 103.884 32.4791C103.815 32.3397 103.884 32.1306 104.023 31.9912C107.426 30.1791 111.106 28.9942 114.995 28.5063C115.203 28.5063 115.342 28.6457 115.411 28.7851C115.411 28.9942 115.272 29.1336 115.134 29.2033C111.384 29.6912 107.773 30.876 104.44 32.6185C104.301 32.6185 104.231 32.6882 104.162 32.6882Z" fill="white"/>
<path d="M61.6638 60.0093C61.5944 60.0093 61.4555 59.9396 61.3861 59.8699C61.2472 59.8002 61.3166 59.5214 61.4555 59.4517C62.8443 58.2669 64.5109 56.5942 66.1775 54.8517C68.4691 52.482 70.8301 50.0427 72.5661 49.0669C72.705 48.9972 72.9133 49.0669 73.0522 49.2063C73.1216 49.3457 73.0522 49.5548 72.9133 49.6942C71.2467 50.6002 68.8857 53.0396 66.6636 55.3396C64.997 57.0123 63.3304 58.7548 61.8722 59.9396C61.8027 60.0093 61.7333 60.0093 61.6638 60.0093Z" fill="white"/>
<path d="M42.498 91.3031C42.4286 91.3031 42.4286 91.3031 42.3591 91.3031C42.1508 91.2334 42.0814 91.0243 42.1508 90.885C42.8452 88.794 43.9563 86.8425 45.3451 85.2395C45.484 85.1001 45.6923 85.1001 45.8312 85.1698C45.9701 85.3092 45.9701 85.5183 45.9006 85.6577C44.5812 87.2607 43.4702 89.1425 42.8452 91.094C42.7758 91.2334 42.6369 91.3031 42.498 91.3031Z" fill="white"/>
<path d="M36.8038 129.01C36.6649 129.01 36.5261 128.94 36.4566 128.8C35.415 126.5 35.0678 123.922 35.415 121.413C35.415 121.203 35.5539 121.134 35.7622 121.134C35.7622 121.134 35.7622 121.134 35.8316 121.134C36.04 121.134 36.1788 121.343 36.1094 121.552C35.8316 123.922 36.1788 126.361 37.151 128.522C37.2205 128.731 37.151 128.94 36.9427 129.01C36.8733 129.01 36.8733 129.01 36.8038 129.01Z" fill="white"/>
<path d="M36.2483 140.858C36.04 140.858 35.9011 140.649 35.9011 140.509C36.1094 138.488 35.6233 136.397 34.7206 134.585C34.6512 134.446 34.7206 134.237 34.8595 134.097C35.0678 134.027 35.2067 134.097 35.3456 134.237C36.3178 136.118 36.8038 138.418 36.665 140.579C36.5955 140.718 36.4566 140.858 36.2483 140.858Z" fill="white"/>
<path d="M46.595 170.061C46.4561 170.061 46.3867 169.991 46.3173 169.852C44.5812 166.785 43.5396 163.439 42.7758 158.77C42.7758 158.561 42.8452 158.421 43.0535 158.352C43.2618 158.352 43.4007 158.421 43.4702 158.63C44.234 163.23 45.2756 166.506 46.9422 169.503C47.0117 169.642 47.0117 169.852 46.8033 169.991C46.7339 170.061 46.6645 170.061 46.595 170.061Z" fill="white"/>
<path d="M49.581 183.443C49.4422 183.443 49.3033 183.303 49.2338 183.164C48.9561 181.491 48.3311 179.888 47.4284 178.494C47.3589 178.355 47.3589 178.146 47.4978 178.006C47.6367 177.867 47.845 177.936 47.9839 178.076C48.9561 179.539 49.581 181.282 49.9282 183.024C49.9977 183.233 49.8588 183.443 49.581 183.443C49.6505 183.443 49.6505 183.443 49.581 183.443Z" fill="white"/>
<path d="M62.4971 201.146C62.3582 201.146 62.2888 201.076 62.2194 200.936C61.1777 198.985 60.4139 196.824 59.9278 194.594C59.8584 194.385 59.9972 194.246 60.2056 194.176C60.4139 194.106 60.5528 194.246 60.6222 194.455C61.0388 196.615 61.8027 198.636 62.8443 200.588C62.9138 200.727 62.8443 200.936 62.7054 201.076C62.636 201.076 62.5666 201.146 62.4971 201.146Z" fill="white"/>
<path d="M107.426 30.2487C107.287 30.2487 107.148 30.179 107.078 29.9699C107.009 29.7608 107.148 29.6214 107.287 29.5517C110.967 28.4366 115.134 25.7881 118.05 23.7669C118.189 23.6275 118.397 23.6972 118.536 23.8366C118.675 23.976 118.606 24.1851 118.467 24.3245C115.55 26.4154 111.245 29.0639 107.495 30.2487H107.426Z" fill="white"/>
<path d="M85.8294 39.1699C85.5516 39.1699 85.3433 39.0305 85.2044 38.7517C85.0655 38.4033 85.135 38.0548 85.4822 37.8457C88.8848 35.6851 90.968 31.9214 92.6346 28.5063C92.9818 27.7396 93.329 26.973 93.6762 26.2063C94.9956 23.279 96.4539 20.2123 98.4677 17.6336C101.454 13.8699 105.898 11.0123 112.286 8.57295C114.3 7.80629 116.314 7.17901 118.328 6.48204C121.453 5.43659 124.647 4.39113 127.633 3.06689C127.98 2.9275 128.327 3.06689 128.536 3.34568C128.744 3.62447 128.675 4.04265 128.397 4.25174C124.091 7.5972 121.314 12.0578 118.328 16.7972C117.842 17.6336 117.356 18.4002 116.8 19.2366C113.467 24.5336 109.301 30.4578 103.259 33.6639C100.065 35.3366 96.5233 36.173 93.1901 37.0093C90.8291 37.5669 88.3987 38.1942 86.1071 39.0305C86.0377 39.1699 85.8988 39.1699 85.8294 39.1699ZM124.578 5.92447C122.633 6.62144 120.758 7.24871 118.814 7.87598C116.87 8.50326 114.786 9.20023 112.842 9.96689C106.662 12.3366 102.426 15.0548 99.5787 18.6093C97.6344 21.0487 96.2455 24.0457 94.9262 26.9033C94.579 27.6699 94.2318 28.4366 93.8845 29.2033C92.6346 31.782 91.1763 34.5002 89.0931 36.7305C90.4125 36.382 91.6624 36.0336 92.9124 35.7548C96.3844 34.9184 99.5787 34.082 102.704 32.479C108.467 29.4123 112.495 23.6972 115.759 18.5396C116.245 17.773 116.8 16.9366 117.286 16.1699C119.439 12.476 121.661 8.99114 124.578 5.92447Z" fill="white"/>
<path d="M88.2598 36.8002C88.2598 36.8002 89.9264 36.2426 92.0791 35.0578C94.2317 33.8729 97.0094 31.8517 99.2315 29.3426C101.523 26.8335 103.537 24.185 104.995 22.0244C106.384 19.8638 107.564 18.5396 107.564 18.5396C107.634 18.4699 107.773 18.4699 107.842 18.5396C107.912 18.6093 107.912 18.7487 107.842 18.8184C107.842 18.8184 106.801 20.1426 105.551 22.3729C104.231 24.5335 102.426 27.5305 100.065 30.0396C97.7038 32.6184 94.9262 34.7093 92.6346 35.9638C90.2736 37.2881 88.6765 37.7759 88.6765 37.7759H88.607C88.3292 37.8456 88.0515 37.7062 87.982 37.4275C87.8432 37.1487 87.982 36.8699 88.2598 36.8002Z" fill="white"/>
<path d="M106.453 44.815C101.245 44.815 96.8011 43.5605 92.7041 40.9817C92.4958 40.912 92.3569 40.6332 92.3569 40.4241C92.3569 40.1453 92.4958 39.9362 92.7041 39.7969C98.7455 36.5211 104.509 33.4544 111.662 33.0362C117.356 32.7575 123.536 34.012 130.966 37.2181C131.244 37.3575 131.383 37.6362 131.383 37.915C131.383 38.1938 131.175 38.4726 130.897 38.5423C128.397 39.309 126.244 40.1453 124.092 40.912C119.786 42.4453 116.106 43.8393 111.592 44.3968C109.856 44.6756 108.12 44.815 106.453 44.815ZM94.5095 40.4938C99.301 43.212 104.787 44.0484 111.453 43.0726C115.828 42.4453 119.439 41.1908 123.675 39.6575C125.272 39.0999 126.939 38.4726 128.744 37.915C122.286 35.3362 116.87 34.2211 111.8 34.4999C105.342 34.8484 99.9954 37.4969 94.5095 40.4938Z" fill="white"/>
<path d="M66.5247 46.9061C66.3858 46.9061 66.3164 46.9061 66.1775 46.8364C66.0386 46.697 65.8998 46.5576 65.8303 46.3485C64.8581 40.703 63.886 34.9182 64.5109 29.1333C65.6914 17.9818 72.8439 8.15455 78.6075 0.278788C78.7464 0 79.163 -0.069697 79.4408 0.069697C79.7186 0.209091 79.8575 0.627273 79.7186 0.975758C77.4964 6.34242 77.5659 11.9879 77.7048 17.9818C77.8437 23.6273 77.9131 29.4121 75.8993 34.9182C74.1633 39.4485 71.9411 44.5364 66.8025 46.8364C66.7331 46.9061 66.5942 46.9061 66.5247 46.9061ZM77.1492 4.6C72.0106 11.8485 66.8719 20.003 65.8998 29.2727C65.2748 34.5697 66.1775 39.9364 67.0803 45.1636C70.7606 43.1424 72.7744 39.3788 74.6494 34.4303C76.5937 29.203 76.5243 23.4879 76.3854 17.9818C76.3159 13.5212 76.1771 8.99091 77.1492 4.6Z" fill="white"/>
<path d="M93.8151 40.0757C93.8151 40.0757 95.2734 40.1454 97.4955 39.8666C99.7176 39.6575 102.634 39.0999 105.551 38.612C111.453 37.4969 117.495 37.706 117.495 37.706C117.633 37.706 117.703 37.7757 117.703 37.9151C117.703 37.9848 117.633 38.1242 117.495 38.1242C117.495 38.1242 116.036 38.2636 113.814 38.403C111.592 38.6817 108.676 39.0999 105.759 39.5878C102.842 40.0757 99.926 40.6333 97.6344 40.912C95.3428 41.1908 93.8846 41.1211 93.8846 41.1211H93.8151C93.5374 41.1211 93.2596 40.8423 93.329 40.5636C93.2596 40.2848 93.5374 40.0757 93.8151 40.0757Z" fill="white"/>
<path d="M72.4967 20.4911C72.4967 20.4911 72.2189 22.0941 71.9411 24.4638C71.6634 26.8335 71.455 30.1093 71.2467 33.3153C71.0384 36.5214 70.1357 39.8668 69.094 42.0971C68.1219 44.3971 67.2191 45.7214 67.2191 45.7214C67.0108 46.0002 66.733 46.0699 66.4553 45.9305C66.247 45.7911 66.1775 45.4426 66.3164 45.2335C66.3164 45.2335 67.0803 43.8396 68.0524 41.679C69.0246 39.5184 69.8579 36.5214 70.1357 33.2456C70.5523 30.0396 70.969 26.8335 71.3856 24.4638C71.8023 22.0941 72.3578 20.4911 72.3578 20.4911C72.3578 20.4214 72.4272 20.4214 72.4967 20.4214V20.4911Z" fill="white"/>
<path d="M62.1499 64.1909C61.8722 64.1909 61.6638 64.0515 61.5249 63.8424C61.3861 63.4939 61.4555 63.0758 61.8027 62.8667C63.8165 61.5424 65.4831 59.6606 67.1497 57.8485C69.0246 55.7576 70.8995 53.6667 73.3994 52.2727C78.2603 49.4151 84.1628 49.7636 89.3014 50.3212C90.2736 50.3909 91.1764 50.5303 92.1485 50.6697C96.5233 51.2273 101.037 51.7848 104.926 50.3909C104.995 50.3909 104.995 50.3909 105.065 50.3212C105.412 50.1818 105.828 50.3909 105.967 50.7394C106.106 51.0879 105.898 51.5061 105.551 51.6454C105.481 51.6454 105.481 51.6454 105.412 51.7151C102.356 52.9 99.5093 54.7121 96.7317 56.5242C94.6484 57.9182 92.4957 59.3121 90.1347 60.4273C85.6211 62.6576 80.5519 63.703 75.5521 63.5636C74.441 63.5636 73.2605 63.4242 72.1495 63.3545C68.6774 63.0061 65.4137 62.7273 62.4277 64.1212C62.3582 64.1212 62.2194 64.1909 62.1499 64.1909ZM67.983 61.6818C69.3718 61.6818 70.8301 61.8212 72.2189 61.8909C73.33 61.9606 74.441 62.1 75.5521 62.1C80.3435 62.3091 85.135 61.1939 89.4403 59.103C91.6625 57.9879 93.8151 56.5939 95.8289 55.2697C97.2178 54.3636 98.6066 53.4576 100.134 52.5515C97.4261 52.6212 94.6484 52.3424 91.8708 51.9939C90.8986 51.8545 89.9264 51.7848 89.0237 51.6454C84.0934 51.1576 78.3992 50.8091 73.9549 53.4576C71.7328 54.7818 69.9273 56.7333 68.0524 58.8242C67.2191 59.8697 66.247 60.9151 65.2748 61.8909C66.1775 61.7515 67.0803 61.6818 67.983 61.6818Z" fill="white"/>
<path d="M42.4286 77.5032C42.2203 77.5032 41.9425 77.3638 41.8731 77.1547C38.6093 72.0668 36.5261 66.7002 35.6928 61.1244C34.4429 53.2487 37.4983 45.0244 40.2065 39.4487C41.1092 37.5668 42.1508 35.7547 43.0536 34.0123C45.4146 29.7608 47.5673 25.7881 48.7478 20.979C48.8172 20.6305 49.1644 20.3517 49.5116 20.4214C49.8588 20.4911 50.1366 20.7699 50.1366 21.1184C50.1366 25.6487 51.1088 30.0396 52.0809 34.3608C52.2893 35.3365 52.4976 36.3123 52.7059 37.2184C53.8864 42.585 54.7197 48.3002 53.2615 53.8759C52.2893 57.5002 50.4144 60.7759 48.6089 63.9123L47.4978 65.7941C45.484 69.3487 43.3314 72.9729 43.123 76.8759C43.123 77.1547 42.9147 77.4335 42.6369 77.5032C42.5675 77.5032 42.4981 77.5032 42.4286 77.5032ZM48.9561 25.1608C47.7062 28.5062 46.0396 31.5729 44.3035 34.7093C43.3314 36.4517 42.3592 38.2638 41.4564 40.0759C37.7066 47.6729 36.1789 55.0608 37.0122 60.9153C37.7761 65.7244 39.4426 70.3941 41.9425 74.785C42.6369 71.3699 44.4424 68.1638 46.2479 65.0972L47.3589 63.2153C49.1644 60.1487 51.0393 56.9426 51.9421 53.5275C53.3309 48.3002 52.4976 42.7244 51.3865 37.5668C51.1782 36.5911 50.9699 35.6153 50.7616 34.7093C49.9977 31.5729 49.3033 28.3668 48.9561 25.1608Z" fill="white"/>
<path d="M45.2757 95.1362C45.0673 95.1362 44.859 94.9968 44.7201 94.8575C44.5118 94.5787 44.5812 94.1605 44.859 93.9514C47.22 91.7908 50.2754 89.0029 53.3308 85.8665C56.2474 82.9393 59.4417 80.7787 62.5665 79.5938C67.7052 77.6423 73.2605 77.0847 78.6075 76.5272C82.4267 76.1787 86.0377 75.8302 89.3708 74.9938C89.7875 74.9241 90.0653 75.1332 90.2041 75.4817C90.343 75.8302 90.1347 76.1787 89.7875 76.3181C86.3154 77.7817 83.6072 80.4302 80.7601 83.2878C78.2603 85.7969 75.6909 88.3756 72.4966 90.0484C68.1913 92.2787 63.3304 92.4878 58.6778 92.7666C54.2336 92.9756 49.581 93.2544 45.6229 95.2059C45.484 95.1362 45.3451 95.1362 45.2757 95.1362ZM85.4821 77.0847C83.26 77.4332 81.0379 77.6423 78.6769 77.8514C73.3994 78.3393 67.9135 78.8969 62.9832 80.8484C59.9972 81.9635 57.0112 84.0544 54.2336 86.8423C52.2198 88.8635 50.1365 90.815 48.3311 92.5575C51.6643 91.6514 55.1363 91.4423 58.5389 91.3029C63.2609 91.0938 67.7746 90.815 71.8022 88.7241C74.7882 87.1908 77.2881 84.6817 79.7185 82.2423C81.524 80.4302 83.3989 78.6181 85.4821 77.0847Z" fill="white"/>
<path d="M28.5403 114.582C28.4015 114.582 28.2626 114.512 28.1237 114.442C22.2212 109.842 18.263 103.082 17.8464 96.8787C17.5686 93.3241 17.777 89.2817 18.263 84.5423L18.3325 84.0544C19.1658 76.6666 19.9991 69.6969 18.8186 62.5878C18.7491 62.2393 18.6797 61.9605 18.6797 61.6817C18.6103 61.3332 18.888 60.9847 19.2352 60.915C19.5824 60.8454 19.9296 61.1241 19.9991 61.4726C20.0685 61.7514 20.138 62.0302 20.2074 62.309C20.9713 66.1423 23.1934 69.4878 25.4849 73.0423C27.2904 75.7605 29.1653 78.6181 30.2764 81.7544C32.3596 87.3302 31.8735 93.3938 31.318 97.9938C31.1097 99.6666 30.8319 101.409 30.5541 103.082C29.9986 106.636 29.3736 110.261 29.3042 113.885C29.3042 114.164 29.1653 114.373 28.8876 114.512C28.7487 114.512 28.6792 114.582 28.5403 114.582ZM20.7629 67.8847C20.9713 73.2514 20.4157 78.6181 19.7908 84.1241L19.7213 84.612C19.1658 89.2817 19.0269 93.2544 19.3047 96.6696C19.6519 102.106 23.0545 108.1 27.9848 112.351C28.1931 109.145 28.6792 105.939 29.1653 102.803C29.4431 101.13 29.7208 99.4575 29.9292 97.7151C30.4847 93.2544 30.9014 87.4696 28.957 82.1029C27.8459 79.106 26.0405 76.3878 24.3044 73.6696C23.0545 71.8575 21.8045 69.9757 20.7629 67.8847Z" fill="white"/>
<path d="M39.3732 134.446C39.2343 134.446 39.1649 134.446 39.026 134.376C38.6788 134.167 38.6093 133.818 38.7482 133.47C39.9287 130.821 40.9009 127.964 41.8731 125.176C43.8174 119.6 45.7618 113.885 49.7199 109.285C54.5114 103.709 61.5944 100.782 67.8441 98.2729C68.8163 97.8547 69.719 97.5062 70.5523 97.1577C71.3856 96.8092 72.2883 96.391 73.33 95.9729C73.6772 95.8335 74.0244 95.9728 74.2327 96.3213C74.3716 96.6698 74.3021 97.0183 73.9549 97.2274C70.969 99.0395 68.4691 102.106 66.3164 106.636C65.4831 108.379 64.7887 110.191 64.0248 112.003C63.1915 114.094 62.3582 116.255 61.3166 118.346C58.9556 122.946 56.1085 126.221 52.7059 127.964C51.1782 128.8 49.4422 129.288 47.845 129.776C47.0812 129.985 46.3868 130.194 45.6229 130.473C42.8453 131.449 40.9703 132.633 39.9287 134.236C39.7898 134.376 39.5815 134.446 39.3732 134.446ZM69.4412 99.1092C69.094 99.2486 68.7468 99.388 68.3302 99.5971C62.2194 102.106 55.2752 104.894 50.6921 110.261C46.9423 114.652 45.0674 120.018 43.123 125.664C42.498 127.406 41.9425 129.149 41.2481 130.891C42.2897 130.194 43.6091 129.567 45.1368 129.009C45.9007 128.73 46.6645 128.521 47.4284 128.312C49.0255 127.824 50.6227 127.336 52.0115 126.57C55.1363 124.967 57.7751 121.9 59.9972 117.579C60.9694 115.558 61.8721 113.467 62.7054 111.376C63.3999 109.564 64.1637 107.752 64.997 105.94C66.3164 103.221 67.7747 100.921 69.4412 99.1092Z" fill="white"/>
<path d="M35.4845 158.979C35.415 158.979 35.415 158.979 35.3456 158.979C28.332 157.446 21.9434 153.543 17.3603 147.967C13.541 143.367 11.0411 137.791 8.68014 132.424C6.31914 127.127 3.8887 121.691 0.20831 117.23C-1.34334e-05 116.952 -1.34334e-05 116.533 0.277752 116.255C0.555516 115.976 0.972164 116.046 1.24993 116.255C4.30534 119.391 8.68014 120.715 12.9161 122.04L13.4716 122.179C18.263 123.643 22.2906 125.943 25.7627 129.149C29.6514 132.843 32.1513 137.373 33.1929 142.74C33.4707 144.343 33.7484 146.015 33.9568 147.618C34.4428 151.103 34.9289 154.658 36.2483 157.933C36.3178 158.143 36.3178 158.421 36.1094 158.63C35.9011 158.909 35.6928 158.979 35.4845 158.979ZM3.95814 120.158C6.31914 123.852 8.12461 127.894 9.86064 131.867C12.2216 137.164 14.6521 142.6 18.3325 147.061C22.4295 152.009 28.1237 155.633 34.304 157.306C33.2623 154.24 32.8457 151.033 32.3596 147.897C32.1513 146.294 31.8735 144.691 31.5958 143.088C30.6236 138.07 28.2626 133.749 24.5822 130.264C21.249 127.127 17.4297 124.967 12.8466 123.573L12.2911 123.433C9.58288 122.527 6.5969 121.621 3.95814 120.158Z" fill="white"/>
<path d="M52.0809 179.539C51.9421 179.539 51.8032 179.47 51.6643 179.4C51.456 179.261 51.3171 178.982 51.3865 178.703C51.9421 176.055 51.9421 173.127 51.9421 170.061C51.9421 166.227 51.9421 162.324 53.0531 158.63C56.0391 148.733 62.1499 143.506 69.1635 137.442C70.4134 136.397 71.5245 135.352 72.705 134.376C73.8855 133.33 74.9966 132.355 76.2465 131.309C76.5243 131.1 76.9409 131.1 77.1492 131.309C77.427 131.518 77.427 131.936 77.2187 132.215C74.9271 135.352 73.5383 139.464 72.9133 145.179C72.705 147.061 72.5661 149.012 72.4967 150.894C72.3578 153.682 72.1495 156.539 71.6634 159.327C70.7606 164.973 68.6774 169.364 65.622 172.361C63.0527 174.87 60.6222 175.776 58.2612 176.612C56.3863 177.309 54.4419 178.006 52.3587 179.47C52.3587 179.539 52.2198 179.539 52.0809 179.539ZM74.0938 135.003C73.9549 135.142 73.8161 135.282 73.6772 135.352C72.4967 136.397 71.3856 137.373 70.1357 138.418C63.1915 144.342 57.289 149.5 54.4419 158.979C53.4003 162.464 53.4003 166.297 53.4003 169.991C53.4003 172.57 53.4003 175.009 53.0531 177.309C54.7892 176.264 56.3863 175.706 57.914 175.149C60.275 174.312 62.4277 173.546 64.7887 171.246C67.6358 168.458 69.5107 164.346 70.4134 158.979C70.8301 156.261 71.0384 153.403 71.1773 150.685C71.3162 148.803 71.3856 146.852 71.5939 144.9C72.08 140.997 72.8439 137.721 74.0938 135.003Z" fill="white"/>
<path d="M45.9006 188.112C45.8312 188.112 45.7618 188.112 45.6923 188.042C42.2203 186.857 38.401 186.648 34.6512 186.509C29.9986 186.3 25.1377 186.021 20.9018 183.86C15.6243 181.142 12.0828 175.985 9.37455 171.245C7.29131 167.621 4.86087 163.3 2.77763 158.491C2.63875 158.142 2.77763 157.794 3.05539 157.585C3.33316 157.445 3.74981 157.515 3.95813 157.724C6.5969 161.139 9.65231 162.603 13.6799 163.857C16.3187 164.694 19.0963 164.973 21.874 165.321C24.5822 165.6 27.4293 165.948 30.068 166.715C40.4148 169.851 45.2757 183.094 46.5256 187.136C46.5951 187.415 46.5256 187.694 46.3173 187.833C46.2479 188.042 46.0395 188.112 45.9006 188.112ZM5.69416 161.557C7.29131 164.833 9.02734 167.9 10.555 170.548C13.1938 175.079 16.5964 180.027 21.5268 182.606C25.4849 184.697 29.9986 184.906 34.7206 185.115C38.0538 185.254 41.5258 185.464 44.7896 186.37C42.1508 178.773 36.9427 170.339 29.6514 168.179C27.0821 167.412 24.3739 167.133 21.6656 166.785C18.888 166.506 15.9715 166.157 13.2633 165.321C10.2773 164.345 7.84684 163.3 5.69416 161.557Z" fill="white"/>
<path d="M73.33 213.76C73.0522 213.76 72.7744 213.551 72.705 213.273C71.8717 211.042 70.8301 208.812 69.8579 206.721C68.8163 204.56 67.7747 202.26 66.8719 199.891C65.4137 195.918 64.1637 190.064 66.5942 184.976C68.4691 181.003 72.0106 178.354 75.4826 175.776L76.5937 174.939C80.3435 172.151 84.0934 169.015 84.7183 164.694C84.7878 164.345 85.135 164.067 85.4127 164.136C85.76 164.136 86.0377 164.415 86.1072 164.764C86.8016 172.43 85.4127 180.167 82.0796 187.067C81.3157 188.67 80.413 190.203 79.5797 191.736C77.9825 194.524 76.3854 197.451 75.4132 200.518C74.0938 204.979 73.9549 209.37 73.9549 213.064C73.9549 213.412 73.7466 213.691 73.3994 213.76C73.4688 213.76 73.3994 213.76 73.33 213.76ZM84.9961 168.457C83.3295 171.524 80.413 173.894 77.4964 176.054L76.3159 176.891C72.9828 179.33 69.5107 181.909 67.8441 185.533C65.622 190.203 66.8025 195.639 68.1913 199.403C69.0246 201.703 70.0662 203.933 71.1078 206.094C71.6634 207.209 72.2189 208.394 72.705 209.579C72.8439 206.651 73.1911 203.376 74.1633 200.1C75.1354 196.824 76.802 193.897 78.3992 191.039C79.2325 189.576 80.1352 187.973 80.8991 186.439C83.6073 180.864 84.9961 174.66 84.9961 168.457Z" fill="white"/>
<path d="M72.1495 211.949C71.9411 211.949 71.6634 211.809 71.5939 211.6C69.8579 208.882 66.4553 207.07 61.1778 206.094C57.4974 205.397 53.5392 205.606 49.7894 205.885L48.8867 205.955C44.5813 206.233 40.3454 206.373 36.2483 205.188C33.8179 204.491 31.5263 203.376 29.3737 202.33C27.3599 201.355 25.2072 200.309 23.0545 199.612C22.7073 199.542 22.499 199.194 22.5684 198.846C22.6379 198.497 22.9851 198.218 23.3323 198.288C27.4987 198.567 31.7347 198.218 36.1789 197.173C37.6372 196.824 39.026 196.476 40.4148 196.058C42.9841 195.361 45.6924 194.594 48.4006 194.246C52.7059 193.758 57.0113 195.012 60.5528 197.661C63.5388 199.961 69.9273 205.606 72.7744 210.903C72.9828 211.252 72.8439 211.67 72.4967 211.809C72.4272 211.879 72.2883 211.949 72.1495 211.949ZM55.4836 204.282C57.4279 204.282 59.4417 204.421 61.3861 204.77C64.1637 205.258 66.4553 206.024 68.2608 207C65.1359 203.376 61.3166 200.1 59.65 198.846C56.3863 196.406 52.4282 195.221 48.5394 195.709C45.9007 195.988 43.3314 196.755 40.762 197.452C39.3038 197.87 37.9149 198.288 36.4567 198.567C33.2624 199.333 30.207 199.682 27.221 199.752C28.1237 200.17 29.0959 200.658 29.9986 201.076C32.1513 202.121 34.3734 203.236 36.665 203.864C40.5537 204.979 44.6507 204.839 48.8172 204.561L49.7199 204.491C51.5949 204.352 53.5392 204.282 55.4836 204.282Z" fill="white"/>
<path d="M63.9554 61.8907C63.9554 61.8907 65.3442 60.9847 67.5663 59.8695C69.7884 58.7544 72.9133 57.4998 76.177 56.6635C82.7045 55.0604 89.4403 55.8968 89.4403 55.8968C89.5098 55.8968 89.5098 55.9665 89.5098 56.0362C89.5098 56.1059 89.4403 56.1059 89.3709 56.1059C89.3709 56.1059 82.7045 55.6877 76.3854 57.6392C69.9968 59.1726 64.5804 62.9362 64.5804 62.9362C64.3026 63.1453 63.8859 63.0756 63.7471 62.7968C63.5387 62.518 63.6082 62.0998 63.9554 61.8907C63.8859 61.8907 63.8859 61.8907 63.9554 61.8907Z" fill="white"/>
<path d="M46.734 42.5151C46.734 42.5151 46.5951 44.606 45.6229 47.6727C44.7896 50.6697 43.4702 54.6424 42.7758 58.7545C42.012 62.7272 41.8731 66.9091 42.012 69.9757C42.1509 73.0424 42.5675 75.0636 42.5675 75.0636C42.6369 75.4121 42.4286 75.6909 42.0814 75.7606C41.7342 75.8303 41.4564 75.6212 41.387 75.2727V75.203C41.387 75.203 39.8593 66.8394 41.8036 58.4757C42.6369 54.3636 44.0952 50.3909 45.0674 47.4636C46.109 44.5363 46.3173 42.4454 46.3173 42.4454C46.3173 42.306 46.4562 42.2363 46.5951 42.2363C46.6645 42.2363 46.8034 42.3757 46.734 42.5151Z" fill="white"/>
<path d="M47.0812 92.1394C47.0812 92.1394 48.8172 91.6515 51.2477 90.6758C53.7475 89.7 56.9418 88.2364 60.1361 86.703C63.3304 85.1 66.6636 83.7758 69.2329 83.0091C71.8023 82.2424 73.6077 82.103 73.6077 82.103C73.6772 82.103 73.7466 82.1727 73.7466 82.2424C73.7466 82.3121 73.6772 82.3818 73.6077 82.3818C73.6077 82.3818 71.8717 82.7303 69.3718 83.7061C66.8719 84.6121 63.7471 86.2849 60.5528 87.8182C57.3585 89.3515 54.0947 90.8849 51.5949 91.8606C49.095 92.8364 47.3589 93.3939 47.3589 93.3939C47.0117 93.5333 46.6645 93.3242 46.5951 93.0455C46.5951 92.6273 46.734 92.2788 47.0812 92.1394Z" fill="white"/>
<path d="M24.5822 85.518C24.5822 85.518 25.1377 87.1907 25.4155 89.8392C25.7627 92.4877 25.7627 96.0422 25.9016 99.5271C26.0405 103.012 26.3877 106.427 27.2904 108.866C28.1237 111.306 29.1653 112.63 29.1653 112.63C29.3736 112.909 29.3042 113.257 29.0959 113.466C28.8181 113.676 28.4709 113.606 28.2626 113.397L28.1931 113.327C28.1931 113.327 27.0126 111.863 26.1099 109.285C25.2072 106.706 24.6516 103.151 24.7211 99.5968C24.7905 96.0422 24.9988 92.5574 24.7905 89.9786C24.6516 87.3998 24.235 85.6574 24.235 85.6574C24.235 85.5877 24.235 85.4483 24.3739 85.4483C24.4433 85.3786 24.5127 85.4483 24.5822 85.518Z" fill="white"/>
<path d="M40.4148 130.891C40.4148 130.891 41.8036 129.985 43.5396 128.312C45.2757 126.639 47.2895 124.061 49.0949 121.273C50.9004 118.554 52.567 115.697 54.0947 113.676C55.553 111.654 56.9418 110.679 56.9418 110.679C57.0112 110.609 57.0807 110.609 57.1501 110.679C57.2195 110.748 57.2195 110.818 57.1501 110.888C57.1501 110.888 55.8307 111.933 54.5113 113.954C53.1225 115.976 51.5948 118.903 49.8588 121.761C48.1227 124.618 46.109 127.267 44.3035 129.079C42.498 130.891 41.1092 131.797 41.1092 131.797L41.0397 131.867C40.762 132.076 40.4148 132.006 40.2064 131.727C39.9981 131.448 40.137 131.1 40.4148 130.891Z" fill="white"/>
<path d="M17.4297 134.097C17.4297 134.097 18.8185 135.421 20.4157 137.721C22.0823 140.021 23.8183 143.297 25.6932 146.503C27.4987 149.709 29.6514 152.706 31.5957 154.518C33.5401 156.4 35.2067 157.166 35.2067 157.166C35.4844 157.306 35.6233 157.654 35.4844 158.003C35.415 158.212 34.9983 158.351 34.7206 158.212H34.6511C34.6511 158.212 32.8457 157.376 30.8319 155.354C28.7486 153.403 26.5265 150.266 24.7905 146.991C23.0544 143.715 21.4573 140.369 19.9296 138.069C18.4713 135.769 17.1519 134.445 17.1519 134.445C17.0825 134.376 17.0825 134.166 17.1519 134.097C17.1519 133.957 17.3603 133.957 17.4297 134.097Z" fill="white"/>
<path d="M65.4137 150.336C65.4137 150.336 64.5804 152.079 63.8165 154.867C62.9832 157.654 61.8721 161.348 60.6222 164.973C59.3028 168.597 57.7057 172.151 56.178 174.661C54.6503 177.17 53.2614 178.633 53.2614 178.633C53.0531 178.912 52.6365 178.912 52.4281 178.703C52.1504 178.494 52.1504 178.076 52.3587 177.867C52.3587 177.867 53.6781 176.542 55.2058 174.103C56.7335 171.733 58.3306 168.248 59.7195 164.624C61.1083 161.07 62.2888 157.376 63.261 154.657C64.1637 151.87 65.0664 150.127 65.0664 150.127C65.1359 149.988 65.2748 149.988 65.3442 150.057C65.4137 150.057 65.4137 150.197 65.4137 150.336Z" fill="white"/>
<path d="M21.3879 174.033C21.3879 174.033 22.4989 175.288 24.6516 176.542C26.8043 177.797 29.9291 178.982 33.1234 180.097C36.3177 181.212 39.4426 182.466 41.7342 183.651C44.0257 184.836 45.3451 185.951 45.3451 185.951C45.6229 186.16 45.6923 186.579 45.484 186.788C45.2757 187.066 44.859 187.136 44.6507 186.927C44.6507 186.927 43.4008 185.882 41.2481 184.697C39.0954 183.512 35.9705 182.257 32.8457 181.073C29.7208 179.818 26.596 178.563 24.3738 177.17C22.1517 175.845 21.0407 174.451 21.0407 174.451V174.382C20.9712 174.242 20.9712 174.103 21.1101 173.963C21.1101 173.894 21.3184 173.963 21.3879 174.033Z" fill="white"/>
<path d="M72.0106 210.136C72.0106 210.136 71.4551 208.742 70.8995 206.512C70.4134 204.282 70.0662 201.215 70.1357 198.148C70.2746 195.082 71.0384 192.085 71.7328 189.924C72.4272 187.764 73.2605 186.439 73.2605 186.439C73.33 186.37 73.3994 186.37 73.4689 186.37C73.5383 186.37 73.5383 186.439 73.5383 186.509C73.5383 186.509 73.1217 187.973 72.6356 190.133C72.08 192.294 71.8023 195.221 71.7328 198.148C71.6634 201.076 71.9412 204.003 72.4272 206.164C72.7744 208.324 73.1911 209.718 73.1911 209.718C73.2605 210.067 73.1216 210.415 72.7744 210.485C72.4967 210.624 72.1495 210.485 72.0106 210.136Z" fill="white"/>
<path d="M48.956 199.891C48.956 199.891 54.7197 199.333 60.2055 201.354C65.7608 203.097 70.0662 207.209 70.0662 207.209C70.3439 207.418 70.3439 207.836 70.1356 208.045C69.9273 208.324 69.5106 208.324 69.3023 208.115C69.3023 208.115 68.3301 207.139 66.5941 205.954C64.9275 204.7 62.4971 203.376 59.9278 202.33C54.7197 200.17 49.0255 200.448 49.0255 200.448C48.8866 200.448 48.7477 200.379 48.7477 200.17C48.6783 200.03 48.8172 199.891 48.956 199.891Z" fill="white"/>
<path d="M80.1352 42.1669C79.788 42.1669 79.5102 41.9578 79.4408 41.6093C79.3713 41.2608 79.5797 40.8426 79.9963 40.7729C83.9545 40.0063 88.4681 39.6578 93.954 39.7275C94.3706 39.7275 94.6484 40.0759 94.6484 40.4244C94.6484 40.8426 94.3012 41.1911 93.954 41.1214C88.6765 41.0517 84.1628 41.4002 80.2741 42.1669C80.2046 42.1669 80.1352 42.1669 80.1352 42.1669Z" fill="white"/>
<path d="M65.0664 51.5061C64.8581 51.5061 64.7192 51.4364 64.5803 51.297C64.3026 50.9486 64.3026 50.5304 64.5803 50.2516C69.5801 45.7213 75.6909 42.7243 81.6629 39.8667C83.3295 39.0304 84.9961 38.2637 86.5238 37.4273C86.871 37.2183 87.2876 37.3576 87.4265 37.7061C87.6348 38.0546 87.4959 38.4728 87.1487 38.6122C85.5516 39.4486 83.9544 40.2152 82.2184 41.0516C76.3853 43.9789 70.4134 46.9061 65.4831 51.297C65.4136 51.4364 65.2053 51.5061 65.0664 51.5061Z" fill="white"/>
<path d="M59.0251 65.9334C58.9556 65.9334 58.8167 65.9334 58.7473 65.8637C58.4001 65.7243 58.2612 65.3061 58.4001 64.9577C61.3861 58.6849 63.8859 52.2728 65.9692 45.3728C66.1081 45.0243 66.4553 44.8152 66.8719 44.8849C67.2191 45.094 67.4274 45.4425 67.358 45.791C65.2053 52.691 62.7054 59.1728 59.7195 65.5152C59.5806 65.794 59.3028 65.9334 59.0251 65.9334Z" fill="white"/>
<path d="M43.0535 82.3819C42.9147 82.3819 42.7758 82.3819 42.7063 82.3122C42.3591 82.1031 42.2897 81.6849 42.4286 81.3364C47.22 73.2516 54.5114 66.4213 62.9137 62.2395C63.2609 62.1001 63.6776 62.2394 63.8165 62.5879C63.9554 62.9364 63.8165 63.3546 63.4693 63.494C55.2752 67.5364 48.1922 74.1576 43.5396 82.0334C43.4702 82.3122 43.2619 82.3819 43.0535 82.3819Z" fill="white"/>
<path d="M41.0398 98.5515C40.9703 98.5515 40.9009 98.5515 40.8315 98.5515C40.4842 98.4818 40.2065 98.0636 40.3454 97.7152C42.1508 91.0243 42.6369 82.9394 41.6647 75.6909C41.5953 75.3424 41.8731 74.9939 42.2897 74.9242C42.6369 74.8546 43.0536 75.1333 43.0536 75.5515C44.0257 83.0091 43.6091 91.2333 41.7342 98.1333C41.6647 98.4121 41.387 98.5515 41.0398 98.5515Z" fill="white"/>
<path d="M30.0681 117.439C29.9986 117.439 29.9292 117.439 29.9292 117.439C29.582 117.37 29.3042 116.951 29.4431 116.603C31.6652 107.403 37.4983 98.9696 45.3451 93.603C45.6923 93.3939 46.109 93.4636 46.3173 93.8121C46.5256 94.1605 46.4562 94.5787 46.109 94.7878C38.5399 100.015 32.9151 108.1 30.7625 117.021C30.693 117.23 30.4153 117.439 30.0681 117.439Z" fill="white"/>
<path d="M37.4288 159.885C37.1511 159.885 36.8733 159.745 36.8039 159.467C33.4012 150.824 34.2345 141.276 39.2343 132.703C39.4426 132.355 39.8593 132.285 40.2065 132.424C40.5537 132.633 40.6231 133.052 40.4842 133.4C35.7622 141.624 34.9289 150.685 38.1927 158.979C38.3316 159.327 38.1927 159.745 37.776 159.885C37.5677 159.885 37.4983 159.885 37.4288 159.885Z" fill="white"/>
<path d="M51.5254 179.958C51.2476 179.958 50.9699 179.749 50.9004 179.47C47.845 170.758 42.1508 163.23 35.2067 158.77C34.7901 158.63 34.7206 158.143 34.9289 157.864C35.1373 157.515 35.5539 157.446 35.9011 157.655C43.123 162.324 49.0255 170.13 52.1504 179.052C52.2893 179.4 52.0809 179.818 51.7337 179.958C51.6643 179.958 51.5948 179.958 51.5254 179.958Z" fill="white"/>
<path d="M48.1227 189.576C48.0533 189.576 47.9839 189.576 47.9839 189.576C47.6366 189.506 47.3589 189.088 47.4978 188.739C48.3311 185.254 50.0671 180.933 51.8726 178.006C52.0809 177.657 52.4975 177.588 52.8447 177.797C53.1919 178.006 53.2614 178.424 53.0531 178.773C51.3865 181.56 49.6504 185.742 48.8866 189.088C48.6783 189.366 48.4005 189.576 48.1227 189.576Z" fill="white"/>
<path d="M73.5382 214.109C73.2605 214.109 73.0521 213.97 72.9133 213.761C72.8438 213.621 65.2053 200.1 44.5118 187.624C44.1646 187.415 44.0951 186.997 44.3035 186.648C44.5118 186.3 44.9284 186.23 45.2756 186.439C66.3163 199.194 74.0938 212.994 74.1632 213.133C74.3715 213.482 74.2326 213.9 73.8854 214.109C73.7466 214.039 73.6771 214.109 73.5382 214.109Z" fill="white"/>
<path d="M39.512 133.261C39.3037 133.261 39.0954 133.191 38.9565 132.982C34.7206 127.754 30.4847 120.367 27.7765 113.327C27.6376 112.979 27.8459 112.56 28.1931 112.421C28.5403 112.282 28.957 112.491 29.0959 112.839C31.7346 119.739 35.8317 126.988 40.0676 132.145C40.3453 132.424 40.2759 132.842 39.9981 133.121C39.8593 133.191 39.7204 133.261 39.512 133.261Z" fill="white"/>
<path d="M117.703 30.2481C117.147 30.2481 116.592 30.1784 116.106 30.039C115.064 29.6905 114.509 28.9936 114.509 28.0875C114.509 27.1118 115.55 26.136 117.147 25.5784C119.092 24.8815 121.661 24.8118 122.633 26.0663C123.189 26.7633 123.258 27.5299 122.772 28.2269C122.078 29.4118 119.717 30.2481 117.703 30.2481ZM119.995 25.7178C119.161 25.7178 118.258 25.8572 117.425 26.136C116.106 26.6239 115.203 27.3208 115.203 28.0178C115.203 28.6451 115.55 29.0633 116.314 29.2724C118.12 29.8299 121.453 28.9936 122.286 27.739C122.564 27.3208 122.564 26.9027 122.147 26.4148C121.731 25.9269 120.897 25.7178 119.995 25.7178Z" fill="white"/>
<path d="M119.578 24.812C118.745 24.812 118.189 24.4635 117.911 23.7665C117.634 22.9999 118.12 21.9544 119.231 20.9787C120.55 19.8635 122.494 19.0271 123.675 19.7241C124.369 20.1423 124.647 20.6999 124.439 21.3968C124.092 22.9999 121.453 24.7423 119.786 24.812C119.717 24.812 119.647 24.812 119.578 24.812ZM122.703 20.1423C121.869 20.1423 120.689 20.6302 119.717 21.4665C118.883 22.2332 118.397 22.9999 118.606 23.4878C118.675 23.6271 118.883 24.1847 119.786 24.115C121.314 23.9756 123.536 22.4423 123.814 21.1878C123.883 20.7696 123.744 20.4908 123.328 20.2817C123.189 20.212 122.911 20.1423 122.703 20.1423Z" fill="white"/>
<path d="M78.9547 41.1212C78.3992 41.1212 77.9131 40.9121 77.427 40.4939C76.1076 39.3091 76.5937 36.3121 77.8436 33.9424C78.8158 32.0606 80.413 30.2485 82.0796 30.6667C82.6351 30.8061 83.3989 31.2939 83.5378 32.7576C83.8156 35.2667 82.149 39.5879 79.9963 40.7727C79.7186 41.0515 79.3019 41.1212 78.9547 41.1212ZM81.5935 31.3636C80.6213 31.3636 79.3714 32.4788 78.4686 34.2909C77.3576 36.3818 76.8715 39.1 77.9131 40.0061C78.4686 40.4939 79.0936 40.5636 79.788 40.2152C81.6629 39.1697 83.1906 35.1273 82.9823 32.897C82.9129 32.0606 82.5657 31.503 82.0101 31.3636C81.8712 31.3636 81.7324 31.3636 81.5935 31.3636Z" fill="white"/>
<path d="M74.7188 50.6698C74.3021 50.6698 73.816 50.6001 73.4688 50.4607C72.6355 50.1122 72.08 49.4849 72.0106 48.5092C71.8717 46.7668 74.441 45.1637 77.0103 44.5365C79.3019 44.0486 80.9685 44.3971 81.3851 45.6516C81.6629 46.4183 81.3851 47.2546 80.5519 48.091C79.3019 49.4849 76.7326 50.6698 74.7188 50.6698ZM78.8853 45.0243C78.3297 45.0243 77.7742 45.094 77.2187 45.2334C74.9966 45.7213 72.6356 47.1849 72.705 48.4395C72.7744 49.1365 73.1216 49.6243 73.6772 49.8334C75.3438 50.4607 78.6075 49.1365 80.0658 47.6031C80.413 47.2546 80.9685 46.5577 80.7602 45.9304C80.6213 45.2334 79.788 45.0243 78.8853 45.0243Z" fill="white"/>
<path d="M53.4004 68.0939C52.9837 68.0939 52.6365 67.9545 52.2199 67.6757C50.9005 66.8393 51.1782 64.1908 52.0115 62.0302C52.7754 60.009 54.2337 57.8484 55.9697 58.0575C56.3863 58.1272 57.0113 58.406 57.2196 59.5212C57.7752 61.7515 56.5252 66.3515 54.5809 67.6757C54.1642 67.9545 53.7476 68.0939 53.4004 68.0939ZM55.6919 58.7545C54.5114 58.7545 53.2615 60.5666 52.6365 62.309C51.8032 64.4696 51.8032 66.5605 52.5671 67.1181C53.1226 67.4666 53.6087 67.4666 54.1642 67.1181C55.8308 65.9333 57.0113 61.6818 56.5252 59.6606C56.4558 59.103 56.2474 58.7545 55.9002 58.7545C55.8308 58.7545 55.7614 58.7545 55.6919 58.7545Z" fill="white"/>
<path d="M46.8728 86.215C46.2479 86.215 45.6923 85.9362 45.2063 85.4483C44.2341 84.3332 45.0674 82.312 46.2479 80.7786C47.7061 78.7574 50.0671 76.9453 51.7337 77.7817C52.1504 77.9908 52.6365 78.4786 52.567 79.5241C52.4281 81.6847 50.1366 85.1696 47.845 86.0059C47.4978 86.1453 47.1506 86.215 46.8728 86.215ZM50.7616 78.2696C49.5116 78.2696 47.845 79.6635 46.734 81.1968C45.5535 82.7999 45.1368 84.4029 45.6923 85.0302C46.1784 85.5877 46.8034 85.7271 47.5673 85.4483C49.581 84.7514 51.7337 81.4059 51.8032 79.5241C51.8032 78.9665 51.6643 78.618 51.3865 78.4786C51.1782 78.3393 50.9699 78.2696 50.7616 78.2696Z" fill="white"/>
<path d="M37.0817 100.782C37.0122 100.782 36.9428 100.782 36.8733 100.782C35.2762 100.643 34.1651 97.994 33.8179 95.4152C33.4707 92.8364 33.7485 89.491 35.6928 88.794C36.04 88.6546 36.5956 88.6546 37.2205 89.4213C38.8177 91.2334 40.3454 96.8789 39.0955 99.5274C38.6788 100.294 37.9844 100.782 37.0817 100.782ZM35.9012 89.4213C34.4429 89.9789 34.1651 92.8365 34.5123 95.2758C34.8595 97.9243 35.9012 99.9455 36.9428 100.015C37.7066 100.085 38.1233 99.7365 38.4705 99.1092C39.5815 96.8092 38.1233 91.3728 36.7345 89.7698C36.4567 89.6304 36.1095 89.3516 35.9012 89.4213Z" fill="white"/>
<path d="M36.387 121.9C36.0398 121.9 35.6926 121.83 35.3454 121.621C34.3037 121.133 33.8871 119.53 34.2343 117.3C34.651 114.164 36.5259 110.47 38.6785 110.052C39.5118 109.912 40.2757 110.261 40.6923 111.027C41.8034 113.188 40.6229 118.624 38.4702 120.855C37.7064 121.552 37.012 121.9 36.387 121.9ZM38.748 110.818C36.9425 111.167 35.2759 114.512 34.8593 117.439C34.5815 119.321 34.8593 120.646 35.6231 121.064C36.3175 121.412 37.0814 121.203 37.8453 120.436C39.7202 118.485 40.9701 113.327 39.9979 111.445C39.7202 110.888 39.373 110.679 38.748 110.818Z" fill="white"/>
<path d="M33.7485 135.491C32.7763 135.491 31.6652 134.794 30.4153 133.47C28.332 131.1 26.6655 127.406 27.7765 125.455C28.1932 124.688 28.8876 124.339 29.7903 124.479C32.1513 124.967 35.4845 129.358 35.8317 132.494C35.9706 133.888 35.5539 134.864 34.5123 135.352C34.2346 135.421 34.0262 135.491 33.7485 135.491ZM29.3042 125.106C28.8876 125.106 28.6098 125.315 28.332 125.733C27.4293 127.336 28.957 130.752 30.9708 132.982C32.2208 134.376 33.4707 135.003 34.1651 134.655C34.929 134.306 35.2067 133.609 35.1373 132.494C34.8595 129.706 31.6652 125.524 29.6514 125.106C29.5125 125.176 29.3737 125.106 29.3042 125.106Z" fill="white"/>
<path d="M43.0536 158.839C42.9147 158.839 42.7064 158.839 42.5675 158.77C40.762 158.421 39.9982 154.658 40.4148 151.382C40.762 148.524 41.8037 146.852 43.1925 146.852H43.2619C43.9563 146.852 44.5813 147.479 45.0674 148.524C46.109 150.824 46.5257 155.773 44.9285 157.864C44.373 158.491 43.748 158.839 43.0536 158.839ZM43.1925 147.549C41.9425 147.549 41.3176 149.57 41.1092 151.452C40.762 154.658 41.5259 157.864 42.7064 158.073C43.4008 158.212 43.9563 158.003 44.373 157.446C45.6924 155.703 45.484 151.173 44.4424 148.803C44.0258 148.036 43.6091 147.549 43.1925 147.549Z" fill="white"/>
<path d="M46.3173 179.33C45.2757 179.33 43.9563 178.424 42.637 176.821C40.762 174.451 39.5815 171.176 40.8315 169.503C41.2481 168.945 41.8731 168.806 42.637 169.085C44.8591 169.782 48.1923 173.754 48.4006 176.612C48.47 177.797 47.9839 178.703 47.0118 179.191C46.8034 179.26 46.5951 179.33 46.3173 179.33ZM42.012 169.642C41.5953 169.642 41.4565 169.851 41.387 169.921C40.3454 171.245 41.5259 174.242 43.1925 176.403C44.5119 178.076 45.9701 178.912 46.734 178.564C47.4978 178.215 47.7756 177.588 47.7062 176.682C47.4978 174.103 44.4424 170.409 42.4286 169.782C42.2897 169.642 42.1509 169.642 42.012 169.642Z" fill="white"/>
<path d="M41.3175 193.967C38.8871 193.967 36.3872 193.339 36.1094 191.597C36.04 191.109 36.1789 190.412 37.2205 189.715C39.5121 188.112 44.859 187.346 47.1506 188.739C48.0533 189.297 48.4005 190.064 48.3311 191.039C48.1228 192.852 44.7896 193.897 41.6647 193.967C41.5953 193.967 41.4564 193.967 41.3175 193.967ZM36.8039 191.458C37.0122 192.573 38.7482 193.27 41.2481 193.27C41.387 193.27 41.5259 193.27 41.6647 193.27C44.7896 193.2 47.4978 192.085 47.6367 190.97C47.7061 190.273 47.4284 189.715 46.8034 189.297C44.7202 188.042 39.7204 188.809 37.5677 190.273C37.2205 190.552 36.7344 190.97 36.8039 191.458Z" fill="white"/>
<path d="M59.9278 194.942C59.8584 194.942 59.7889 194.942 59.7195 194.942C57.914 194.803 56.7335 191.388 56.5252 188.182C56.3863 185.185 57.1502 183.164 58.6779 182.885C59.3028 182.745 60.2056 182.885 61.1083 184.209C62.636 186.37 63.3999 191.248 62.0805 193.618C61.5944 194.455 60.8305 194.942 59.9278 194.942ZM58.8167 183.652C57.7057 183.791 57.0807 185.603 57.2196 188.182C57.3585 191.318 58.539 194.106 59.7195 194.245C60.4833 194.315 61.0389 193.967 61.4555 193.27C62.5666 191.318 62.0805 186.788 60.5528 184.627C60.2056 184.07 59.5806 183.442 58.8167 183.652Z" fill="white"/>
<path d="M158.812 247.285C141.452 247.285 128.744 241.918 128.536 241.848C128.189 241.709 128.05 241.291 128.189 240.942C128.327 240.594 128.744 240.385 129.091 240.594C129.3 240.664 152.701 250.491 179.158 243.242C208.254 235.297 216.101 223.03 216.171 222.96C216.379 222.612 216.796 222.542 217.143 222.751C217.49 222.96 217.559 223.379 217.351 223.727C217.004 224.215 209.226 236.482 179.575 244.636C172.284 246.518 165.27 247.285 158.812 247.285Z" fill="white"/>
<path d="M156.243 249.724C136.591 249.724 123.258 243.73 123.05 243.661C122.703 243.521 122.564 243.103 122.703 242.755C122.842 242.406 123.258 242.267 123.605 242.406C123.883 242.545 149.09 253.836 181.311 244.985C210.199 237.039 221.379 223.309 221.448 223.17C221.656 222.891 222.143 222.821 222.42 223.03C222.698 223.239 222.768 223.727 222.559 224.006C222.073 224.564 211.101 238.224 181.658 246.309C172.492 248.818 163.881 249.724 156.243 249.724Z" fill="white"/>
<path d="M152.007 252.512C130.063 252.512 115.897 246.379 115.689 246.309C115.342 246.17 115.203 245.752 115.342 245.403C115.481 245.055 115.897 244.915 116.245 245.055C116.522 245.194 142.98 256.624 179.853 247.842C213.185 239.897 228.184 224.215 228.323 224.076C228.601 223.797 229.017 223.797 229.295 224.076C229.573 224.355 229.573 224.773 229.295 225.052C229.156 225.191 213.948 241.152 180.131 249.236C169.923 251.606 160.409 252.512 152.007 252.512Z" fill="white"/>
<path d="M248.739 238.572C246.169 238.572 244.086 238.363 243.461 237.806C243.253 237.597 243.114 237.388 243.114 237.109C243.114 236.203 243.947 235.018 250.197 234.391C253.53 234.042 254.294 233.484 254.502 233.345V198.427C254.502 198.148 254.71 197.869 254.988 197.8C259.78 196.057 271.376 196.824 271.862 196.894C272.21 196.894 272.487 197.242 272.487 197.591V236.969C272.487 237.178 272.418 237.318 272.279 237.457C272.14 237.597 271.932 237.736 271.724 237.666C267.14 237.318 263.807 237.248 259.294 237.806C256.238 238.224 252.072 238.572 248.739 238.572Z" fill="white"/>
<path d="M41.6647 250.282C38.2621 250.282 35.4845 250.073 35.2067 250.073C34.8595 250.073 34.5817 249.724 34.5817 249.376V209.858C34.5817 209.648 34.6512 209.509 34.7901 209.37C34.9289 209.23 35.1373 209.161 35.3456 209.161C40.137 209.509 43.4008 209.579 47.7756 209.021C54.1642 208.254 62.1499 207.767 63.5387 209.021C63.747 209.23 63.8859 209.509 63.8859 209.788C63.8859 210.764 63.0526 211.879 56.8029 212.506C53.4697 212.854 52.7059 213.412 52.4976 213.551V248.47C52.4976 248.748 52.2892 249.027 52.0115 249.097C49.6505 250.073 45.3451 250.282 41.6647 250.282Z" fill="white"/>
<path d="M63.1915 214.946C55.8307 214.806 51.8726 214.249 51.7337 214.249C51.4559 214.179 51.2476 213.97 51.1782 213.761C51.1782 213.621 51.1782 213.203 51.3865 212.924C51.942 212.088 53.678 211.53 56.7335 211.252C60.8305 210.833 63.6081 210.136 63.8165 209.439C63.8165 209.439 63.9554 209.718 63.9554 209.858V214.249C63.9554 214.458 63.8859 214.597 63.747 214.736C63.5387 214.876 63.3998 214.946 63.1915 214.946Z" fill="white"/>
<path d="M243.739 226.654C251.1 226.794 255.058 232.509 255.197 232.509C255.474 232.579 255.544 232.788 255.613 232.997C255.613 233.136 255.752 233.554 255.544 233.833C254.988 234.669 253.252 235.227 250.197 235.506C246.1 235.924 243.322 236.621 243.114 237.318C243.114 237.318 242.975 237.039 242.975 236.9V227.282C242.975 227.072 243.044 226.933 243.183 226.794C243.392 226.724 243.6 226.654 243.739 226.654Z" fill="white"/>
<path d="M65.5525 253C56.6641 253 51.8032 252.303 51.7337 252.303C51.3865 252.233 51.1088 251.954 51.1088 251.606V213.551C51.1088 213.342 51.1782 212.994 51.456 212.715C51.5254 212.785 51.7337 212.854 51.9421 212.854C52.0809 212.854 66.4553 214.945 91.3847 211.809C103.676 210.276 121.036 204.63 137.91 199.124C155.896 193.27 174.506 187.206 187.769 185.812C223.879 181.909 246.03 184.906 255.613 194.873C255.752 195.012 255.822 195.151 255.822 195.36V233.415C255.822 233.694 255.474 234.251 254.988 234.46C254.919 234.321 254.78 234.112 254.572 233.903C242.489 221.288 207.629 223.1 187.908 225.26C174.853 226.724 156.382 232.718 138.535 238.503C121.592 244.009 104.023 249.724 91.593 251.257C80.8991 252.582 72.1495 253 65.5525 253Z" fill="white"/>
<path d="M129.577 120.715V88.5151C129.577 88.5151 129.438 88.5848 129.161 88.6545C128.883 88.7242 128.605 88.7939 128.189 88.8636C127.772 88.9333 127.355 89.0727 126.869 89.1424C126.383 89.2121 125.897 89.3515 125.48 89.4212C124.994 89.4909 124.578 89.5606 124.161 89.7C123.814 89.7697 123.467 89.8394 123.189 89.9091L122.772 89.9788V86.0757C126.73 85.0303 129.369 83.6363 130.758 81.8242H134.647V120.715H129.577Z" fill="white"/>
<path d="M153.465 121.133C150.201 121.133 147.701 120.158 146.035 118.136C144.299 116.115 143.396 113.327 143.188 109.843L147.979 108.518C148.326 114.094 150.132 116.882 153.465 116.882C154.854 116.882 155.896 116.464 156.659 115.697C157.354 114.93 157.77 113.815 157.77 112.282C157.77 111.446 157.701 110.679 157.493 109.982C157.284 109.285 157.007 108.658 156.521 108.03C156.104 107.403 155.687 106.915 155.271 106.497C154.854 106.079 154.298 105.521 153.604 104.824L147.077 99.0395C145.757 97.8546 144.785 96.6001 144.229 95.2758C143.604 93.9516 143.327 92.3486 143.327 90.4667C143.327 87.6789 144.16 85.4486 145.757 83.9152C147.354 82.3122 149.576 81.5455 152.423 81.5455C155.548 81.4758 157.84 82.3122 159.368 83.9152C160.895 85.588 161.867 88.0971 162.145 91.5819L157.562 92.8364C157.493 92.0001 157.423 91.2334 157.284 90.6061C157.145 89.9789 157.007 89.2819 156.729 88.6546C156.451 87.9577 156.173 87.4698 155.826 87.0516C155.479 86.6334 154.993 86.2849 154.437 86.0758C153.812 85.8667 153.187 85.7274 152.354 85.7971C149.507 86.0061 148.049 87.4001 148.049 90.0486C148.049 91.1637 148.257 92.1395 148.604 92.9061C149.021 93.6728 149.646 94.5092 150.549 95.3455L157.076 101.13C158.743 102.664 160.131 104.267 161.104 106.079C162.076 107.821 162.631 109.843 162.631 112.003C162.631 114.861 161.798 117.091 160.062 118.764C158.395 120.297 156.173 121.133 153.465 121.133Z" fill="white"/>
<path d="M170.964 120.715V85.8666H163.881V81.8242H183.186V85.8666H176.381V120.715H170.964Z" fill="white"/>
<path d="M116.245 154.588C115.203 154.588 114.3 154.449 113.536 154.17C112.773 153.891 112.078 153.473 111.592 152.985C111.106 152.567 110.689 151.94 110.412 151.243C110.064 150.546 109.856 149.779 109.787 148.943C109.648 148.176 109.578 147.27 109.578 146.294V137.443C109.578 136.397 109.648 135.421 109.787 134.585C109.925 133.749 110.134 132.982 110.412 132.285C110.759 131.588 111.106 130.961 111.661 130.543C112.148 130.055 112.773 129.706 113.606 129.427C114.37 129.149 115.272 129.009 116.314 129.009C118.536 129.009 120.203 129.637 121.175 130.821C122.147 132.076 122.633 133.818 122.633 136.188V138.209H119.3V136.467C119.3 136.049 119.3 135.77 119.3 135.561C119.3 135.352 119.3 135.073 119.3 134.724C119.3 134.376 119.231 134.167 119.231 133.958C119.161 133.749 119.161 133.54 119.092 133.33C119.022 133.121 118.953 132.912 118.814 132.773C118.744 132.634 118.606 132.494 118.467 132.355C118.328 132.215 118.12 132.076 117.981 132.006C117.772 131.937 117.564 131.867 117.286 131.797C117.008 131.727 116.731 131.727 116.383 131.727C115.897 131.727 115.481 131.797 115.134 131.867C114.786 132.006 114.509 132.146 114.231 132.355C114.022 132.564 113.814 132.843 113.675 133.121C113.536 133.4 113.398 133.749 113.328 134.167C113.259 134.585 113.189 135.003 113.189 135.421C113.189 135.84 113.12 136.327 113.12 136.885V146.782C113.12 148.664 113.328 149.988 113.814 150.685C114.3 151.452 115.134 151.8 116.314 151.8C116.8 151.8 117.147 151.73 117.495 151.661C117.842 151.591 118.12 151.382 118.328 151.173C118.536 150.964 118.745 150.685 118.883 150.476C119.022 150.197 119.092 149.849 119.161 149.43C119.231 149.012 119.231 148.594 119.3 148.246C119.3 147.897 119.3 147.409 119.3 146.852V144.97H122.633V146.852C122.633 147.827 122.564 148.664 122.425 149.43C122.286 150.197 122.078 150.894 121.8 151.521C121.522 152.149 121.106 152.706 120.619 153.194C120.133 153.612 119.578 153.961 118.814 154.24C118.05 154.449 117.217 154.588 116.245 154.588Z" fill="white"/>
<path d="M125.897 154.309V129.218H129.369V140.021H135.758V129.218H139.23V154.309H135.758V142.53H129.369V154.309H125.897Z" fill="white"/>
<path d="M149.576 154.588C148.326 154.588 147.285 154.379 146.382 154.03C145.479 153.682 144.785 153.124 144.229 152.358C143.674 151.591 143.327 150.755 143.118 149.849C142.91 148.873 142.771 147.758 142.771 146.434V136.955C142.771 134.376 143.327 132.355 144.368 131.03C145.41 129.706 147.146 129.009 149.576 129.009C152.007 129.009 153.743 129.706 154.785 131.03C155.826 132.355 156.382 134.376 156.382 136.955V146.434C156.382 149.082 155.826 151.034 154.785 152.427C153.673 153.891 151.937 154.588 149.576 154.588ZM147.84 151.521C148.257 151.73 148.882 151.87 149.507 151.87C150.201 151.87 150.757 151.73 151.174 151.521C151.59 151.312 151.937 150.964 152.215 150.546C152.424 150.127 152.632 149.64 152.701 149.082C152.771 148.594 152.84 147.897 152.84 147.13V136.118C152.84 135.352 152.771 134.724 152.701 134.237C152.632 133.749 152.424 133.261 152.215 132.843C152.007 132.424 151.66 132.146 151.174 131.937C150.757 131.727 150.132 131.658 149.507 131.658C148.813 131.658 148.257 131.727 147.84 131.937C147.424 132.146 147.077 132.424 146.799 132.843C146.59 133.261 146.382 133.749 146.313 134.237C146.243 134.724 146.174 135.352 146.174 136.118V147.13C146.174 147.897 146.243 148.524 146.313 149.082C146.382 149.57 146.59 150.058 146.799 150.546C147.077 151.034 147.424 151.312 147.84 151.521Z" fill="white"/>
<path d="M159.993 154.309V129.218H163.395V154.309H159.993Z" fill="white"/>
<path d="M173.673 154.588C172.631 154.588 171.728 154.449 170.964 154.17C170.2 153.891 169.575 153.473 169.02 152.985C168.534 152.497 168.117 151.87 167.77 151.173C167.423 150.476 167.214 149.709 167.145 148.873C167.006 148.106 166.937 147.2 166.937 146.224V137.373C166.937 136.327 167.006 135.352 167.145 134.515C167.284 133.679 167.492 132.912 167.77 132.215C168.048 131.518 168.464 130.891 169.02 130.473C169.506 129.985 170.131 129.636 170.964 129.358C171.728 129.079 172.631 128.939 173.673 128.939C175.895 128.939 177.561 129.567 178.533 130.752C179.506 132.006 179.992 133.749 179.992 136.118V138.139H176.658V136.397C176.658 135.979 176.658 135.7 176.658 135.491C176.658 135.282 176.658 135.003 176.658 134.655C176.658 134.306 176.589 134.097 176.589 133.888C176.52 133.679 176.52 133.47 176.45 133.261C176.381 133.052 176.311 132.842 176.172 132.703C176.103 132.564 175.964 132.424 175.825 132.285C175.686 132.146 175.478 132.006 175.339 131.936C175.131 131.867 174.922 131.797 174.645 131.727C174.367 131.658 174.089 131.658 173.742 131.658C173.256 131.658 172.839 131.727 172.492 131.797C172.145 131.936 171.867 132.076 171.589 132.285C171.381 132.494 171.173 132.773 171.034 133.052C170.895 133.33 170.756 133.679 170.687 134.097C170.617 134.515 170.548 134.933 170.548 135.352C170.548 135.77 170.478 136.258 170.478 136.815V146.712C170.478 148.594 170.687 149.918 171.173 150.615C171.659 151.382 172.492 151.73 173.673 151.73C174.159 151.73 174.506 151.661 174.853 151.591C175.2 151.521 175.478 151.312 175.686 151.103C175.895 150.894 176.103 150.615 176.242 150.406C176.381 150.127 176.45 149.779 176.52 149.361C176.589 148.942 176.589 148.524 176.658 148.176C176.658 147.827 176.658 147.339 176.658 146.782V144.9H179.992V146.782C179.992 147.758 179.922 148.594 179.783 149.361C179.644 150.127 179.436 150.824 179.158 151.452C178.881 152.079 178.464 152.636 177.978 153.124C177.492 153.542 176.936 153.891 176.172 154.17C175.547 154.449 174.645 154.588 173.673 154.588Z" fill="white"/>
<path d="M183.325 154.309V129.218H192.977V131.797H186.797V140.091H191.866V142.6H186.797V151.8H193.047V154.309H183.325Z" fill="white"/>
<path d="M152.285 54.7121L156.937 54.8515L153.187 57.709L154.507 62.2393L150.688 59.5212L146.799 62.1696L148.188 57.6393L144.438 54.7818L149.16 54.7121L150.757 50.2515L152.285 54.7121Z" fill="white"/>
<path d="M171.728 58.6848L175.617 58.8242L172.492 61.1242L173.603 64.8878L170.409 62.6575L167.215 64.8181L168.395 61.1242L165.34 58.7545L169.228 58.6848L170.478 55.0605L171.728 58.6848Z" fill="white"/>
<path d="M130.272 58.6848L126.383 58.8242L129.508 61.1242L128.397 64.8878L131.591 62.6575L134.786 64.8181L133.605 61.1242L136.66 58.7545L132.772 58.6848L131.522 55.0605L130.272 58.6848Z" fill="white"/>
<path d="M187.908 68.0941L191.38 68.2335L188.602 70.3244L189.575 73.6699L186.728 71.6487L183.88 73.6002L184.922 70.2547L182.144 68.1638L185.616 68.0941L186.797 64.8184L187.908 68.0941Z" fill="white"/>
<path d="M114.092 68.0941L110.62 68.2335L113.398 70.3244L112.425 73.6699L115.272 71.6487L118.12 73.6002L117.078 70.2547L119.856 68.1638L116.384 68.0941L115.203 64.8184L114.092 68.0941Z" fill="white"/>
<path d="M200.199 79.803L203.671 79.8727L200.894 81.9636L201.866 85.309L199.019 83.2878L196.102 85.2393L197.144 81.8939L194.435 79.803L197.908 79.7333L199.088 76.4575L200.199 79.803Z" fill="white"/>
<path d="M101.801 79.803L98.3288 79.8727L101.106 81.9636L100.134 85.309L102.981 83.2878L105.898 85.2393L104.856 81.8939L107.564 79.803L104.092 79.7333L102.912 76.4575L101.801 79.803Z" fill="white"/>
<path d="M208.046 91.9304L211.171 92.0001L208.671 93.882L209.574 96.9486L206.935 95.1365L204.366 96.8789L205.268 93.882L202.768 91.9304L205.963 91.8607L207.004 88.8638L208.046 91.9304Z" fill="white"/>
<path d="M93.954 91.9304L90.8292 92.0001L93.329 93.882L92.4958 96.9486L95.0651 95.1365L97.7038 96.8789L96.7317 93.882L99.2316 91.9304L96.0373 91.8607L94.9956 88.8638L93.954 91.9304Z" fill="white"/>
<path d="M202.63 161.558H99.3704C99.1621 161.558 98.9538 161.348 98.9538 161.139C98.9538 160.93 99.1621 160.721 99.3704 160.721H202.63C202.838 160.721 203.046 160.93 203.046 161.139C203.046 161.348 202.907 161.558 202.63 161.558Z" fill="white"/>
<path d="M110.134 175.009V167.621H110.55V174.591H114.647V175.009H110.134Z" fill="white"/>
<path d="M115.967 167.621H116.384V175.009H115.967V167.621Z" fill="white"/>
<path d="M118.675 167.342C118.953 167.76 119.231 168.179 119.508 168.597C119.786 169.015 120.133 169.503 120.411 169.921C120.758 170.339 121.036 170.827 121.314 171.245C121.592 171.663 121.869 172.012 122.078 172.36C122.147 172.221 122.286 172.082 122.425 171.873C122.564 171.663 122.772 171.385 122.98 171.106C123.189 170.827 123.397 170.479 123.605 170.2C123.814 169.851 124.091 169.503 124.3 169.224C124.508 168.876 124.786 168.597 124.994 168.248C125.203 167.9 125.411 167.621 125.619 167.412V175.148H125.203V169.085C125.203 169.015 125.203 168.945 125.203 168.876C125.203 168.806 125.203 168.736 125.203 168.667C124.994 169.015 124.716 169.363 124.439 169.782C124.161 170.2 123.883 170.618 123.605 170.967C123.328 171.385 123.05 171.803 122.842 172.151C122.564 172.5 122.355 172.848 122.147 173.197C122.008 173.057 121.869 172.848 121.661 172.57C121.453 172.291 121.314 172.012 121.105 171.733C120.897 171.454 120.689 171.106 120.481 170.827C120.272 170.479 120.064 170.2 119.856 169.921C119.647 169.642 119.508 169.363 119.369 169.154C119.231 168.945 119.092 168.806 119.022 168.667C119.022 168.736 119.022 168.806 119.022 168.876C119.022 168.945 119.022 169.015 119.022 169.085V175.148H118.606V167.342H118.675Z" fill="white"/>
<path d="M127.98 167.621H128.397V175.009H127.98V167.621Z" fill="white"/>
<path d="M134.508 167.621V168.039H132.494V175.009H132.077V168.039H130.063V167.621H134.508Z" fill="white"/>
<path d="M136.105 175.009V167.621H140.618V168.039H136.521V171.106H140.202V171.524H136.521V174.66H140.757V175.079H136.105V175.009Z" fill="white"/>
<path d="M142.424 167.621H144.021C144.785 167.621 145.41 167.76 145.896 167.97C146.382 168.179 146.799 168.457 147.146 168.876C147.493 169.224 147.701 169.642 147.84 170.06C147.979 170.479 148.049 170.967 148.049 171.385C148.049 171.942 147.979 172.43 147.771 172.918C147.563 173.336 147.285 173.754 146.938 174.103C146.59 174.451 146.174 174.66 145.757 174.87C145.34 175.009 144.854 175.148 144.299 175.148H142.354V167.621H142.424ZM144.368 174.591C144.785 174.591 145.271 174.521 145.618 174.382C145.965 174.242 146.382 174.033 146.66 173.754C146.938 173.476 147.215 173.127 147.354 172.709C147.563 172.291 147.632 171.873 147.632 171.315C147.632 170.897 147.563 170.479 147.424 170.13C147.285 169.712 147.076 169.364 146.799 169.085C146.521 168.806 146.174 168.527 145.688 168.318C145.271 168.109 144.715 168.039 144.16 168.039H142.841V174.591H144.368Z" fill="white"/>
<path d="M152.493 175.009V167.621H157.007V168.039H152.91V171.106H156.59V171.524H152.91V174.66H157.145V175.079H152.493V175.009Z" fill="white"/>
<path d="M158.812 167.621H160.409C161.173 167.621 161.798 167.76 162.284 167.97C162.77 168.179 163.187 168.457 163.534 168.876C163.881 169.224 164.09 169.642 164.229 170.06C164.367 170.479 164.437 170.967 164.437 171.385C164.437 171.942 164.367 172.43 164.159 172.918C163.951 173.336 163.673 173.754 163.326 174.103C162.979 174.451 162.562 174.66 162.145 174.87C161.729 175.009 161.243 175.148 160.687 175.148H158.743V167.621H158.812ZM160.826 174.591C161.312 174.591 161.729 174.521 162.076 174.382C162.423 174.242 162.84 174.033 163.117 173.754C163.395 173.476 163.673 173.127 163.812 172.709C164.02 172.291 164.09 171.873 164.09 171.315C164.09 170.897 164.02 170.479 163.881 170.13C163.742 169.712 163.534 169.364 163.256 169.085C162.979 168.806 162.631 168.527 162.145 168.318C161.729 168.109 161.173 168.039 160.618 168.039H159.298V174.591H160.826Z" fill="white"/>
<path d="M166.242 167.621H166.659V175.009H166.242V167.621Z" fill="white"/>
<path d="M172.77 167.621V168.039H170.756V175.009H170.339V168.039H168.326V167.621H172.77Z" fill="white"/>
<path d="M174.297 167.621H174.714V175.009H174.297V167.621Z" fill="white"/>
<path d="M176.45 171.315C176.45 170.757 176.52 170.269 176.728 169.851C176.936 169.363 177.214 169.015 177.561 168.666C177.908 168.318 178.325 168.039 178.742 167.83C179.228 167.621 179.714 167.551 180.2 167.551C180.686 167.551 181.242 167.621 181.658 167.83C182.144 168.039 182.492 168.318 182.839 168.666C183.186 169.015 183.464 169.433 183.672 169.851C183.88 170.339 183.95 170.827 183.95 171.315C183.95 171.803 183.88 172.36 183.672 172.779C183.464 173.266 183.186 173.615 182.839 173.963C182.492 174.312 182.075 174.591 181.658 174.8C181.172 175.009 180.686 175.079 180.2 175.079C179.644 175.079 179.158 175.009 178.742 174.8C178.256 174.591 177.908 174.312 177.561 173.963C177.214 173.615 176.936 173.197 176.728 172.779C176.589 172.36 176.45 171.872 176.45 171.315ZM176.867 171.385C176.867 171.872 176.936 172.291 177.145 172.709C177.283 173.127 177.561 173.476 177.839 173.754C178.117 174.033 178.464 174.312 178.881 174.451C179.297 174.66 179.714 174.73 180.2 174.73C180.686 174.73 181.103 174.66 181.519 174.451C181.936 174.242 182.283 174.033 182.561 173.754C182.839 173.476 183.117 173.127 183.255 172.709C183.464 172.291 183.533 171.872 183.533 171.385C183.533 170.897 183.464 170.479 183.255 170.06C183.047 169.642 182.839 169.294 182.561 169.015C182.283 168.736 181.936 168.457 181.519 168.318C181.103 168.109 180.686 168.039 180.2 168.039C179.714 168.039 179.297 168.109 178.881 168.318C178.464 168.527 178.117 168.736 177.839 169.015C177.561 169.294 177.283 169.712 177.145 170.06C177.006 170.479 176.867 170.897 176.867 171.385Z" fill="white"/>
<path d="M191.866 167.621V175.357C191.449 174.869 191.033 174.312 190.547 173.754C190.061 173.197 189.575 172.569 189.019 171.942C188.533 171.315 188.047 170.757 187.561 170.13C187.075 169.572 186.658 169.015 186.311 168.527L186.102 168.248V168.597V175.009H185.686V167.272C186.102 167.76 186.519 168.318 187.005 168.945C187.491 169.503 187.977 170.13 188.463 170.688C188.95 171.315 189.436 171.872 189.922 172.43C190.408 172.988 190.825 173.545 191.241 174.033L191.449 174.312V173.963V167.551H191.866V167.621Z" fill="white"/>
<path d="M73.0522 225.47L77.6353 225.4C80.6213 225.33 82.8434 226.306 82.9128 229.512C82.9823 232.579 80.7602 233.973 77.8436 234.042L75.6909 234.112L75.8298 239.13L73.3994 239.2L73.0522 225.47ZM77.5659 232.091C79.5797 232.021 80.5518 231.185 80.5518 229.512C80.4824 227.77 79.5102 227.212 77.4964 227.282L75.5521 227.351L75.6909 232.161L77.5659 232.091Z" fill="url(#paint0_linear_31_8680)"/>
<path d="M93.8151 237.806L90.2736 232.857L88.1904 233.066L88.8153 238.363L86.3849 238.642L84.8572 225.051L89.4403 224.494C92.2874 224.145 94.579 224.912 94.9262 227.979C95.1345 230.069 94.2317 231.463 92.6346 232.16L96.5233 237.457L93.8151 237.806ZM87.982 231.185L89.8569 230.975C91.7319 230.766 92.6346 229.86 92.4263 228.327C92.218 226.794 91.1763 226.306 89.3014 226.585L87.4265 226.794L87.982 231.185Z" fill="url(#paint1_linear_31_8680)"/>
<path d="M96.5233 223.588L104.509 221.915L104.926 223.936L99.301 225.121L99.9954 228.536L104.787 227.561L105.203 229.582L100.412 230.557L101.245 234.53L107.078 233.276L107.495 235.297L99.3704 236.97L96.5233 223.588Z" fill="url(#paint2_linear_31_8680)"/>
<path d="M106.801 221.288L109.301 220.521L113.675 226.236L115.272 228.466H115.342L115.411 225.748L115.689 218.569L118.258 217.803L122.286 230.906L120.133 231.603L118.258 225.609C117.911 224.424 117.495 222.612 117.286 221.357H117.217L117.078 224.633L116.661 231.254L115.62 231.603L111.523 226.375L109.578 223.727H109.509C109.995 224.912 110.689 226.585 111.037 227.769L112.911 233.763L110.828 234.391L106.801 221.288Z" fill="url(#paint3_linear_31_8680)"/>
<path d="M121.383 216.618L123.675 215.851L128.05 228.815L125.758 229.581L121.383 216.618Z" fill="url(#paint4_linear_31_8680)"/>
<path d="M126.73 214.736L129.022 213.969L131.591 221.427C132.563 224.215 133.952 224.772 135.48 224.285C137.077 223.727 137.841 222.403 136.869 219.615L134.299 212.157L136.522 211.391L139.021 218.639C140.48 222.891 139.16 225.191 136.174 226.236C133.188 227.282 130.688 226.306 129.23 222.054L126.73 214.736Z" fill="url(#paint5_linear_31_8680)"/>
<path d="M139.785 210.206L142.285 209.37L146.729 215.015L148.396 217.176H148.465L148.535 214.458L148.743 207.279L151.312 206.442L155.548 219.476L153.396 220.173L151.451 214.248C151.035 213.064 150.687 211.251 150.41 209.997H150.34L150.271 213.273L149.993 219.894L148.951 220.242L144.785 215.085L142.771 212.436H142.702C143.188 213.621 143.952 215.294 144.299 216.479L146.243 222.403L144.16 223.1L139.785 210.206Z" fill="url(#paint6_linear_31_8680)"/>
<path d="M174.923 217.384C174.506 217.663 173.811 218.081 172.909 218.29C170.27 218.987 168.117 218.081 166.798 216.339C163.812 216.548 161.312 214.596 160.34 210.763C159.229 206.512 160.965 203.375 164.367 202.469C167.84 201.563 170.825 203.515 171.937 207.766C172.909 211.46 171.798 214.387 169.228 215.642C170.131 216.548 171.381 216.618 172.7 216.339C173.256 216.2 173.742 215.99 174.089 215.781L174.923 217.384ZM167.353 214.178C169.437 213.621 170.27 211.39 169.506 208.393C168.742 205.466 166.937 204.003 164.854 204.56C162.77 205.118 161.937 207.209 162.701 210.206C163.465 213.133 165.34 214.666 167.353 214.178Z" fill="url(#paint7_linear_31_8680)"/>
<path d="M173.395 200.448L175.756 200.03L177.214 207.766C177.77 210.694 179.02 211.46 180.686 211.112C182.353 210.833 183.255 209.648 182.7 206.721L181.242 198.985L183.533 198.566L184.922 206.094C185.755 210.485 184.089 212.645 181.033 213.203C177.908 213.76 175.617 212.436 174.784 207.976L173.395 200.448Z" fill="url(#paint8_linear_31_8680)"/>
<path d="M194.852 207.209L190.338 207.697L189.713 211.53L187.283 211.809L190.269 197.73L193.116 197.451L199.019 210.554L196.449 210.833L194.852 207.209ZM194.158 205.327L193.533 203.724C192.977 202.33 192.352 200.797 191.797 199.333H191.727C191.519 200.866 191.311 202.469 191.033 203.933L190.755 205.675L194.158 205.327Z" fill="url(#paint9_linear_31_8680)"/>
<path d="M199.991 196.754L202.421 196.685L202.699 208.324L208.324 208.254L208.393 210.275L200.338 210.485L199.991 196.754Z" fill="url(#paint10_linear_31_8680)"/>
<path d="M210.824 196.824L213.254 196.893L212.698 210.554L210.268 210.484L210.824 196.824Z" fill="url(#paint11_linear_31_8680)"/>
<path d="M219.99 199.403L216.101 198.985L216.31 196.963L226.517 198.009L226.309 200.03L222.42 199.612L221.24 211.182L218.809 210.972L219.99 199.403Z" fill="url(#paint12_linear_31_8680)"/>
<path d="M229.989 207.348L227.698 198.079L230.198 198.636L230.962 202.33C231.17 203.445 231.378 204.421 231.517 205.536H231.587C232.211 204.63 232.836 203.794 233.461 202.818L235.614 199.682L238.114 200.17L232.35 207.766L231.309 212.715L228.948 212.227L229.989 207.348Z" fill="url(#paint13_linear_31_8680)"/>
<defs>
<linearGradient id="paint0_linear_31_8680" x1="72.7104" y1="225.396" x2="85.8918" y2="229.402" gradientUnits="userSpaceOnUse">
<stop stop-color="#9A77F9"/>
<stop offset="1" stop-color="#7746FD"/>
</linearGradient>
<linearGradient id="paint1_linear_31_8680" x1="84.4529" y1="224.416" x2="99.6379" y2="229.712" gradientUnits="userSpaceOnUse">
<stop stop-color="#9A77F9"/>
<stop offset="1" stop-color="#7746FD"/>
</linearGradient>
<linearGradient id="paint2_linear_31_8680" x1="96.1431" y1="221.915" x2="110.757" y2="226.445" gradientUnits="userSpaceOnUse">
<stop stop-color="#9A77F9"/>
<stop offset="1" stop-color="#7746FD"/>
</linearGradient>
<linearGradient id="paint3_linear_31_8680" x1="106.264" y1="217.803" x2="125.793" y2="225.557" gradientUnits="userSpaceOnUse">
<stop stop-color="#9A77F9"/>
<stop offset="1" stop-color="#7746FD"/>
</linearGradient>
<linearGradient id="paint4_linear_31_8680" x1="121.152" y1="215.851" x2="130.487" y2="217.779" gradientUnits="userSpaceOnUse">
<stop stop-color="#9A77F9"/>
<stop offset="1" stop-color="#7746FD"/>
</linearGradient>
<linearGradient id="paint5_linear_31_8680" x1="126.284" y1="211.391" x2="142.941" y2="217.385" gradientUnits="userSpaceOnUse">
<stop stop-color="#9A77F9"/>
<stop offset="1" stop-color="#7746FD"/>
</linearGradient>
<linearGradient id="paint6_linear_31_8680" x1="139.239" y1="206.442" x2="159.044" y2="214.414" gradientUnits="userSpaceOnUse">
<stop stop-color="#9A77F9"/>
<stop offset="1" stop-color="#7746FD"/>
</linearGradient>
<linearGradient id="paint7_linear_31_8680" x1="159.488" y1="202.251" x2="178.394" y2="209.622" gradientUnits="userSpaceOnUse">
<stop stop-color="#9A77F9"/>
<stop offset="1" stop-color="#7746FD"/>
</linearGradient>
<linearGradient id="paint8_linear_31_8680" x1="172.988" y1="198.566" x2="188.368" y2="203.771" gradientUnits="userSpaceOnUse">
<stop stop-color="#9A77F9"/>
<stop offset="1" stop-color="#7746FD"/>
</linearGradient>
<linearGradient id="paint9_linear_31_8680" x1="186.876" y1="197.451" x2="202.162" y2="202.765" gradientUnits="userSpaceOnUse">
<stop stop-color="#9A77F9"/>
<stop offset="1" stop-color="#7746FD"/>
</linearGradient>
<linearGradient id="paint10_linear_31_8680" x1="199.7" y1="196.685" x2="211.196" y2="199.662" gradientUnits="userSpaceOnUse">
<stop stop-color="#9A77F9"/>
<stop offset="1" stop-color="#7746FD"/>
</linearGradient>
<linearGradient id="paint11_linear_31_8680" x1="210.165" y1="196.824" x2="214.487" y2="197.224" gradientUnits="userSpaceOnUse">
<stop stop-color="#9A77F9"/>
<stop offset="1" stop-color="#7746FD"/>
</linearGradient>
<linearGradient id="paint12_linear_31_8680" x1="215.74" y1="196.963" x2="229.602" y2="201.282" gradientUnits="userSpaceOnUse">
<stop stop-color="#9A77F9"/>
<stop offset="1" stop-color="#7746FD"/>
</linearGradient>
<linearGradient id="paint13_linear_31_8680" x1="227.337" y1="198.079" x2="241.268" y2="202.295" gradientUnits="userSpaceOnUse">
<stop stop-color="#9A77F9"/>
<stop offset="1" stop-color="#7746FD"/>
</linearGradient>
</defs>
</svg>
