<svg width="205" height="50" viewBox="0 0 205 50" fill="none" xmlns="http://www.w3.org/2000/svg">
<path d="M201.549 43.229C200.659 43.2376 199.808 43.6003 199.182 44.2378C198.557 44.8753 198.208 45.7356 198.213 46.6307C198.217 47.5258 198.574 48.3827 199.205 49.0141C199.836 49.6455 200.691 50 201.582 50C202.472 50 203.327 49.6455 203.958 49.0141C204.589 48.3827 204.946 47.5258 204.951 46.6307C204.955 45.7356 204.606 44.8753 203.981 44.2378C203.356 43.6003 202.505 43.2376 201.614 43.229H201.549ZM201.549 49.6124C200.965 49.6222 200.391 49.4576 199.9 49.1396C199.409 48.8216 199.023 48.3643 198.79 47.8257C198.557 47.287 198.489 46.6912 198.593 46.1135C198.698 45.5358 198.97 45.0022 199.377 44.5801C199.783 44.1581 200.305 43.8666 200.876 43.7425C201.447 43.6184 202.042 43.6672 202.585 43.8828C203.128 44.0985 203.596 44.4712 203.929 44.9539C204.261 45.4366 204.444 46.0076 204.454 46.5946V46.6445C204.47 47.4146 204.181 48.1597 203.651 48.716C203.121 49.2723 202.393 49.5942 201.626 49.6109H201.55M188.617 42.304H181.296V30.7832C181.296 28.036 181.248 24.4994 177.489 24.4994C173.676 24.4994 173.093 27.4927 173.093 30.5832V42.3033H165.772V18.6118H172.8V21.8495H172.898C173.602 20.6411 174.618 19.647 175.839 18.973C177.06 18.2991 178.44 17.9706 179.832 18.0225C187.252 18.0225 188.62 22.927 188.62 29.3073L188.617 42.304ZM157.512 15.3734C156.672 15.3735 155.851 15.1233 155.152 14.6543C154.453 14.1854 153.909 13.5187 153.587 12.7387C153.265 11.9587 153.181 11.1003 153.345 10.2721C153.509 9.44396 153.913 8.6832 154.507 8.08604C155.101 7.48888 155.858 7.08215 156.682 6.91727C157.506 6.7524 158.36 6.83679 159.136 7.15977C159.913 7.48275 160.576 8.02982 161.043 8.73179C161.51 9.43376 161.76 10.2591 161.76 11.1035C161.76 11.6641 161.65 12.2193 161.437 12.7373C161.223 13.2553 160.91 13.7259 160.516 14.1224C160.122 14.5189 159.653 14.8335 159.138 15.0481C158.623 15.2628 158.07 15.3733 157.512 15.3734ZM161.173 42.304H153.844V18.6118H161.173V42.304ZM192.267 0.00338141H150.166C149.21 -0.00745534 148.289 0.363393 147.606 1.03443C146.922 1.70548 146.532 2.62181 146.52 3.58208V46.0659C146.531 47.0266 146.922 47.9436 147.605 48.6153C148.289 49.2871 149.21 49.6586 150.166 49.6484H192.267C193.225 49.6605 194.148 49.29 194.834 48.6183C195.521 47.9465 195.914 47.0285 195.927 46.0659V3.57901C195.913 2.61684 195.52 1.69947 194.834 1.02844C194.147 0.357415 193.224 -0.0123738 192.267 0.000316141M126.595 24.3301C122.935 24.3301 120.739 26.7861 120.739 30.3648C120.739 33.9435 122.934 36.4019 126.595 36.4019C130.256 36.4019 132.457 33.9497 132.457 30.3648C132.457 26.78 130.26 24.3301 126.595 24.3301ZM139.196 42.2902H132.457V39.1483H132.357C131.511 40.2912 130.415 41.2224 129.152 41.8694C127.89 42.5165 126.496 42.8619 125.079 42.8788C118.045 42.8788 113.412 37.7774 113.412 30.5633C113.412 23.9377 117.512 17.854 124.252 17.854C127.282 17.854 130.112 18.6869 131.772 20.9958H131.868V7.33933H139.196L139.196 42.2902ZM104.013 27.6935C104.027 27.0966 103.92 26.5031 103.699 25.9489C103.478 25.3948 103.147 24.8914 102.727 24.4694C102.307 24.0474 101.806 23.7155 101.254 23.4939C100.703 23.2722 100.112 23.1654 99.5181 23.1798C98.2391 23.0999 96.9799 23.5282 96.0122 24.3726C95.0445 25.2169 94.4457 26.4096 94.3449 27.6935H104.013ZM110.214 38.192C108.997 39.6744 107.468 40.8664 105.737 41.6817C104.005 42.4969 102.115 42.915 100.203 42.9056C92.8823 42.9056 87.0213 37.995 87.0213 30.3909C87.0213 22.7867 92.8816 17.8785 100.203 17.8785C107.045 17.8785 111.336 22.7829 111.336 30.3909V32.6975H94.3449C94.5565 34.0057 95.2314 35.1929 96.2452 36.0405C97.259 36.8881 98.5435 37.3389 99.862 37.31C100.904 37.3035 101.928 37.0352 102.84 36.5295C103.753 36.0239 104.525 35.2969 105.086 34.4148L110.214 38.192ZM37.4398 18.6057H44.4698V21.8434H44.5697C45.2719 20.6344 46.2876 19.6399 47.5085 18.9658C48.7293 18.2918 50.1094 17.9636 51.5014 18.0164C58.9249 18.0164 60.2914 22.9247 60.2914 29.3012V42.2933H52.9708V30.7748C52.9708 28.0253 52.9205 24.491 49.158 24.491C45.3529 24.491 44.7657 27.485 44.7657 30.5748V42.2902H37.4451L37.4398 18.6057ZM64.0035 7.34163H71.3241V28.2352L79.6207 18.5927H88.596L78.9878 29.561L88.3939 42.3048H79.1929L71.4217 30.594H71.3256V42.3033H64.005L64.0035 7.34163ZM26.0601 18.6034H33.3807V42.2948H26.0601V18.6034ZM29.7204 6.82513C30.5603 6.82528 31.3813 7.0757 32.0795 7.54472C32.7778 8.01375 33.322 8.68031 33.6433 9.46013C33.9646 10.2399 34.0486 11.098 33.8846 11.9258C33.7207 12.7536 33.3162 13.5139 32.7222 14.1107C32.1283 14.7074 31.3716 15.1138 30.5478 15.2784C29.7241 15.443 28.8703 15.3585 28.0943 15.0354C27.3184 14.7124 26.6552 14.1654 26.1886 13.4636C25.722 12.7618 25.4729 11.9368 25.4729 11.0927C25.4729 10.5322 25.5828 9.97724 25.7963 9.45942C26.0097 8.9416 26.3226 8.47111 26.717 8.07481C27.1115 7.67852 27.5797 7.36419 28.095 7.14976C28.6103 6.93534 29.1627 6.82503 29.7204 6.82513ZM0.963562 7.34699H8.58381V35.2409H22.6911V42.3079H0.963562V7.34699ZM202.084 46.8291C202.209 46.8304 202.333 46.8058 202.449 46.7567C202.564 46.7077 202.669 46.6354 202.755 46.5442C202.842 46.453 202.909 46.3449 202.952 46.2267C202.995 46.1084 203.014 45.9825 203.006 45.8567C203.006 45.167 202.592 44.8375 201.743 44.8375H200.37V48.4484H200.887V46.8744H201.521L201.535 46.8935L202.52 48.4484H203.072L202.013 46.8391L202.084 46.8291ZM201.487 46.4674H200.888V45.2467H201.647C202.039 45.2467 202.486 45.3111 202.486 45.8268C202.486 46.4199 202.033 46.4674 201.484 46.4674" fill="white"/>
</svg>
