<svg width="149" height="49" viewBox="0 0 149 49" fill="none" xmlns="http://www.w3.org/2000/svg">
<path d="M19.1611 0H20.4739C25.0315 0.0990843 29.5147 1.93214 32.7348 5.17715C31.5458 6.39094 30.3321 7.55518 29.168 8.76896C27.3598 7.13407 25.1801 5.87074 22.8022 5.42486C19.2849 4.68173 15.4952 5.35055 12.5476 7.35701C9.3276 9.46255 7.14788 13.0296 6.67726 16.8443C6.1571 20.6095 7.22219 24.5729 9.67437 27.4959C12.0275 30.3446 15.619 32.1281 19.3345 32.2519C22.8022 32.4501 26.4185 31.3849 28.945 28.9574C30.9266 27.2482 31.8431 24.6472 32.1403 22.1206C28.0286 22.1206 23.9168 22.1453 19.8051 22.1206V17.0177H37.119C38.0107 22.4921 36.7227 28.6601 32.5614 32.574C29.7872 35.3483 25.9479 36.9832 22.0343 37.3052C18.2446 37.6768 14.331 36.9584 10.9624 35.1254C6.92495 32.9703 3.70492 29.3289 2.11967 25.0436C0.633501 21.105 0.608732 16.6462 1.99582 12.6828C3.25907 9.06621 5.68648 5.87074 8.80744 3.64135C11.8045 1.43672 15.4457 0.22294 19.1611 0Z" fill="white"/>
<path d="M118.487 1.28809H123.788V36.6612C122.029 36.6612 120.246 36.6859 118.487 36.6364C118.512 24.8701 118.487 13.0791 118.487 1.28809Z" fill="white"/>
<path d="M48.909 13.5498C52.1785 12.9305 55.7206 13.6241 58.4204 15.581C60.8726 17.315 62.5817 20.0398 63.1019 23.0124C63.7706 26.4555 62.9285 30.2207 60.6992 32.9456C58.2966 35.9924 54.3582 37.6273 50.519 37.3796C47.0017 37.1814 43.5835 35.4227 41.5029 32.5492C39.1498 29.3785 38.5801 25.0188 39.8681 21.3032C41.1561 17.315 44.7972 14.2682 48.909 13.5498ZM49.652 18.2563C48.3145 18.6031 47.076 19.371 46.1843 20.4609C43.7817 23.3344 43.9303 28.0161 46.5806 30.6914C48.0916 32.2272 50.3704 32.9456 52.4758 32.5245C54.4325 32.1777 56.1416 30.8648 57.0829 29.1308C58.7177 26.1831 58.2471 22.1206 55.7453 19.8169C54.1353 18.3306 51.7822 17.7114 49.652 18.2563Z" fill="white"/>
<path d="M75.1654 13.5497C78.9056 12.8313 82.9925 13.8717 85.7915 16.4974C90.3491 20.5847 90.8445 28.2389 86.9557 32.9454C84.6026 35.918 80.7881 37.5529 77.0231 37.3795C73.4315 37.2804 69.8895 35.4969 67.7593 32.5491C65.3567 29.3041 64.8365 24.8453 66.1988 21.0553C67.5612 17.191 71.128 14.2433 75.1654 13.5497ZM75.9085 18.2562C74.5709 18.603 73.3324 19.3709 72.4407 20.436C70.0629 23.2599 70.162 27.8674 72.7132 30.5674C74.2242 32.1775 76.5773 32.9702 78.757 32.5243C80.689 32.1528 82.4229 30.8647 83.3641 29.1307C84.9741 26.1582 84.5035 22.0957 81.977 19.792C80.367 18.3057 78.0139 17.7112 75.9085 18.2562Z" fill="white"/>
<path d="M97.4323 14.9872C100.281 13.2037 104.071 12.7082 107.142 14.244C108.108 14.6652 108.901 15.3835 109.668 16.1019C109.693 15.4331 109.668 14.7395 109.693 14.0459C111.353 14.0706 113.012 14.0459 114.697 14.0706V35.9187C114.672 39.2133 113.83 42.706 111.452 45.1088C108.851 47.7593 104.863 48.5767 101.272 48.0318C97.4323 47.4621 94.0885 44.6629 92.6023 41.1207C94.0885 40.4023 95.6489 39.8326 97.1846 39.1637C98.0516 41.195 99.8102 42.9289 102.015 43.3253C104.219 43.7216 106.77 43.1767 108.207 41.3436C109.743 39.461 109.743 36.8848 109.668 34.5811C108.529 35.6958 107.216 36.6866 105.631 37.0582C102.188 38.0243 98.3984 36.8353 95.748 34.5068C93.0729 32.1783 91.4877 28.5865 91.6363 25.0195C91.7106 20.9818 93.9894 17.0927 97.4323 14.9872ZM102.56 18.1579C101.049 18.4056 99.6368 19.2478 98.6708 20.412C96.3425 23.1864 96.3425 27.6204 98.6956 30.3452C100.033 31.9554 102.188 32.8471 104.269 32.6242C106.226 32.426 108.034 31.1875 109 29.4783C110.634 26.58 110.362 22.6414 108.158 20.1148C106.795 18.5542 104.616 17.7863 102.56 18.1579Z" fill="white"/>
<path d="M130.153 16.2503C133.126 13.476 137.708 12.5347 141.523 13.9962C145.139 15.3586 147.443 18.8018 148.607 22.344C143.232 24.5734 137.882 26.778 132.507 29.0074C133.25 30.4194 134.389 31.7075 135.925 32.2277C138.08 32.9956 140.656 32.7231 142.464 31.2864C143.182 30.7414 143.752 30.0231 144.297 29.3295C145.659 30.246 147.021 31.1378 148.384 32.0543C146.452 34.9525 143.207 36.9837 139.714 37.3058C135.85 37.7764 131.739 36.2901 129.237 33.2681C125.125 28.512 125.522 20.5357 130.153 16.2503ZM132.804 20.833C131.962 22.0468 131.615 23.533 131.64 24.9945C135.231 23.5083 138.823 22.022 142.414 20.511C141.82 19.1238 140.383 18.2816 138.922 18.0586C136.569 17.6375 134.117 18.9008 132.804 20.833Z" fill="white"/>
</svg>
