<svg width="170" height="43" viewBox="0 0 170 43" fill="none" xmlns="http://www.w3.org/2000/svg">
<path fill-rule="evenodd" clip-rule="evenodd" d="M54.8005 33.5426L56.9014 28.6604C59.1707 30.3574 62.1941 31.2395 65.1771 31.2395C67.3791 31.2395 68.7729 30.391 68.7729 29.1048C68.7393 25.5088 55.5816 28.3237 55.4806 19.3067C55.447 14.7275 59.5141 11.1988 65.2781 11.1988C68.7056 11.1988 72.1263 12.0473 74.5706 13.98L72.6044 18.9633C70.3688 17.5356 67.5878 16.5188 64.9415 16.5188C63.1436 16.5188 61.9584 17.3673 61.9584 18.4515C61.9921 21.9801 75.2507 20.0475 75.3854 28.6604C75.3854 33.3406 71.4193 36.6336 65.7226 36.6336C61.5477 36.6268 57.7162 35.6437 54.8005 33.5426ZM135.477 26.896C134.426 28.7277 132.46 29.9803 130.184 29.9803C126.824 29.9803 124.117 27.2664 124.117 23.9128C124.117 20.5592 126.831 17.8454 130.184 17.8454C132.453 17.8454 134.426 19.0979 135.477 20.9296L141.274 17.7107C139.106 13.8453 134.931 11.1988 130.184 11.1988C123.161 11.1988 117.464 16.8959 117.464 23.9196C117.464 30.9432 123.161 36.6403 130.184 36.6403C134.965 36.6403 139.106 34.0275 141.274 30.1284L135.477 26.896ZM78.3011 0.646484H85.56V36.1554H78.3011V0.646484ZM144.123 0.646484V36.1554H151.382V25.5021L159.994 36.1554H169.287L158.331 23.5021L168.472 11.6972H159.583L151.375 21.4953V0.646484H144.123Z" fill="white"/>
<path d="M107.128 26.9627C106.078 28.6934 103.909 29.9796 101.465 29.9796C98.1048 29.9796 95.3979 27.2657 95.3979 23.9121C95.3979 20.5586 98.1116 17.8447 101.465 17.8447C103.909 17.8447 106.078 19.1983 107.128 20.9626V26.9627ZM107.128 11.7032V14.5854C105.943 12.5854 102.993 11.1914 99.9027 11.1914C93.5259 11.1914 88.5093 16.8211 88.5093 23.8785C88.5093 30.9358 93.5259 36.6329 99.9027 36.6329C102.987 36.6329 105.936 35.2456 107.128 33.2389V36.1211H114.387V11.7032H107.128Z" fill="white"/>
<path fill-rule="evenodd" clip-rule="evenodd" d="M9.93358 26.9294C9.93358 29.4075 7.93368 31.4075 5.45568 31.4075C2.97769 31.4075 0.977783 29.4008 0.977783 26.9294C0.977783 24.4579 2.97769 22.4512 5.45568 22.4512H9.93358V26.9294ZM12.1692 26.9294C12.1692 24.4512 14.1691 22.4512 16.6471 22.4512C19.1251 22.4512 21.125 24.4512 21.125 26.9294V38.1214C21.125 40.5996 19.1251 42.5996 16.6471 42.5996C14.1691 42.5996 12.1692 40.5996 12.1692 38.1214V26.9294Z" fill="white"/>
<path fill-rule="evenodd" clip-rule="evenodd" d="M16.6469 8.95637C14.1689 8.95637 12.169 6.95634 12.169 4.47818C12.169 2.00003 14.1689 0 16.6469 0C19.1249 0 21.1248 2.00003 21.1248 4.47818V8.95637H16.6469ZM16.6469 11.2258C19.1249 11.2258 21.1248 13.2258 21.1248 15.7039C21.1248 18.1821 19.1249 20.1821 16.6469 20.1821H5.42187C2.94387 20.1821 0.94397 18.1754 0.94397 15.7039C0.94397 13.2325 2.94387 11.2258 5.42187 11.2258H16.6469Z" fill="white"/>
<path fill-rule="evenodd" clip-rule="evenodd" d="M34.5857 15.7039C34.5857 13.2258 36.5856 11.2258 39.0636 11.2258C41.5416 11.2258 43.5415 13.2258 43.5415 15.7039C43.5415 18.1821 41.5416 20.1821 39.0636 20.1821H34.5857V15.7039ZM32.3501 15.7039C32.3501 18.1821 30.3502 20.1821 27.8722 20.1821C25.3942 20.1821 23.3943 18.1821 23.3943 15.7039V4.47818C23.3943 2.00003 25.3942 0 27.8722 0C30.3502 0 32.3501 2.00003 32.3501 4.47818V15.7039Z" fill="white"/>
<path fill-rule="evenodd" clip-rule="evenodd" d="M27.8722 33.6433C30.3502 33.6433 32.3501 35.6433 32.3501 38.1214C32.3501 40.5996 30.3502 42.5996 27.8722 42.5996C25.3943 42.5996 23.3943 40.5996 23.3943 38.1214V33.6433H27.8722ZM27.8722 31.4075C25.3943 31.4075 23.3943 29.4075 23.3943 26.9294C23.3943 24.4512 25.3943 22.4512 27.8722 22.4512H39.0973C41.5753 22.4512 43.5752 24.4512 43.5752 26.9294C43.5752 29.4075 41.5753 31.4075 39.0973 31.4075H27.8722Z" fill="white"/>
</svg>
