<svg width="219" height="52" viewBox="0 0 219 52" fill="none" xmlns="http://www.w3.org/2000/svg">
<path d="M192.167 17.5062C193.386 17.5062 194.389 16.8726 194.524 16.0541L195.727 2.44873C195.727 1.10397 194.152 0 192.171 0C190.193 0 188.619 1.10397 188.619 2.44897L189.821 16.0541C189.953 16.8724 190.956 17.5062 192.172 17.5062H192.167ZM184.815 21.7558C185.426 20.7018 185.38 19.5173 184.736 18.991L173.553 11.1465C172.391 10.4731 170.647 11.2836 169.658 12.9995C168.665 14.7133 168.841 16.6272 170.001 17.3008L182.383 23.0663C183.157 23.3532 184.212 22.801 184.819 21.7478L184.815 21.7558ZM199.527 21.7485C200.137 22.8017 201.187 23.3542 201.962 23.067L214.344 17.3016C215.51 16.6282 215.676 14.714 214.693 13.0003C213.699 11.2861 211.952 10.4739 210.793 11.1472L199.61 18.9917C198.97 19.5173 198.923 20.7028 199.531 21.7565L199.527 21.7485ZM192.167 34.5014C193.386 34.5014 194.389 35.1296 194.524 35.9489L195.727 49.5523C195.727 50.9012 194.152 52.0027 192.171 52.0027C190.193 52.0027 188.619 50.9012 188.619 49.5523L189.821 35.9489C189.953 35.1296 190.956 34.5014 192.172 34.5014H192.167ZM199.527 30.2508C200.137 29.1947 201.187 28.6471 201.962 28.9374L214.344 34.699C215.51 35.3731 215.676 37.289 214.693 39.0042C213.699 40.7128 211.952 41.5272 210.793 40.8548L199.61 33.0176C198.97 32.4879 198.923 31.3017 199.531 30.2487H199.526M184.815 30.2494C185.426 31.3017 185.38 32.4879 184.736 33.0185L173.553 40.8555C172.391 41.5279 170.647 40.7135 169.658 39.0049C168.665 37.2897 168.841 35.3738 170.001 34.6997L182.383 28.9381C183.157 28.6478 184.212 29.1954 184.819 30.2518H184.815" fill="white"/>
<path d="M121.633 32.9932C121.633 33.4107 121.596 33.8413 121.482 34.2195C121.007 35.7902 119.381 37.1185 117.347 37.1185C115.65 37.1185 114.303 36.1548 114.303 34.1195C114.303 31.0044 117.731 30.1442 121.634 30.1658L121.633 32.9929V32.9932ZM127.755 27.5646C127.755 22.428 125.56 17.9083 118.144 17.9083C114.338 17.9083 111.316 18.9775 109.667 19.9305L110.875 24.06C112.382 23.1084 114.784 22.3207 117.057 22.3207C120.819 22.3103 121.435 24.451 121.435 25.821V26.1453C113.235 26.1332 108.052 28.9725 108.052 34.7564C108.052 38.2906 110.692 41.6009 115.281 41.6009C118.101 41.6009 120.462 40.4753 121.876 38.6705H122.015C122.015 38.6705 122.951 42.5888 128.114 41.0896C127.844 39.4602 127.755 37.7207 127.755 35.629L127.755 27.5646M0 10.9131C0 10.9131 5.35808 32.8696 6.21367 36.433C7.21174 40.5923 9.01055 42.1235 14.1944 41.0896L17.5398 27.4774C18.3881 24.0947 18.9558 21.6828 19.5024 18.2452H19.5976C19.9813 21.7192 20.5257 24.1051 21.2238 27.4886C21.2238 27.4886 22.585 33.6687 23.2833 36.9136C23.9823 40.1575 25.928 42.2033 31.0062 41.0896L38.9782 10.9121H32.5436L29.8208 23.9599C29.0887 27.7564 28.4251 30.7262 27.913 34.1986H27.822C27.3567 30.7568 26.7642 27.9081 26.0207 24.2083L23.1882 10.9121H16.4827L13.4511 23.873C12.5931 27.8127 11.7885 30.9925 11.2788 34.3493H11.1861C10.6628 31.1884 9.96615 27.1903 9.21225 23.3786C9.21225 23.3786 7.41247 14.1077 6.77945 10.9121L0 10.9131ZM51.1497 32.9932C51.1497 33.4107 51.1125 33.8413 50.9965 34.2195C50.5232 35.7902 48.896 37.1185 46.8615 37.1185C45.1649 37.1185 43.8195 36.1548 43.8195 34.1195C43.8195 31.0044 47.247 30.1442 51.1504 30.1658L51.1497 32.9929V32.9932ZM57.2704 27.5646C57.2704 22.428 55.0757 17.9083 47.6615 17.9083C43.854 17.9083 40.8304 18.9775 39.1823 19.9305L40.3886 24.06C41.8954 23.1084 44.2974 22.3207 46.5712 22.3207C50.3353 22.3103 50.9514 24.451 50.9514 25.821V26.1453C42.7486 26.1332 37.568 28.9725 37.568 34.7564C37.568 38.2906 40.2063 41.6009 44.7918 41.6009C47.6154 41.6009 49.9756 40.4753 51.3907 38.6705H51.5286C51.5286 38.6705 52.4664 42.5888 57.6282 41.0896C57.3582 39.4602 57.2704 37.7207 57.2704 35.629V27.5646ZM67.4856 34.6838V10.9131H61.3568V41.0906H67.4856V34.6838ZM147.66 10.9131V33.1745C147.66 36.2451 148.239 38.3941 149.473 39.7092C150.555 40.8591 152.332 41.6033 154.463 41.6033C156.276 41.6033 158.058 41.2574 158.899 40.9455L158.82 36.1572C158.194 36.3102 157.476 36.434 156.492 36.434C154.404 36.434 153.705 35.096 153.705 32.3407V23.823H159.042V18.0483H153.705V10.9131H147.66ZM131.841 18.4202V41.0906H138.163V29.4829C138.163 28.8555 138.201 28.3088 138.301 27.8088C138.768 25.3761 140.628 23.823 143.298 23.823C144.03 23.823 144.554 23.9027 145.122 23.9833V18.0483C144.646 17.9534 144.322 17.909 143.729 17.909C141.37 17.909 138.686 19.4314 137.56 22.6972H137.389V18.4202H131.841ZM71.7769 18.4202V41.0906H77.9364V27.7966C77.9364 27.1728 78.0097 26.5131 78.2257 25.9412C78.7362 24.6027 79.9818 23.0351 81.9695 23.0351C84.4562 23.0351 85.6173 25.1365 85.6173 28.1692V41.0889H91.772V27.633C91.772 27.0379 91.8533 26.3203 92.0293 25.7955C92.5347 24.2721 93.8764 23.0334 95.7245 23.0334C98.2442 23.0334 99.4537 25.0979 99.4537 28.6676V41.0882H105.613V27.7352C105.613 20.6942 102.037 17.9068 98.0008 17.9068C96.2148 17.9068 94.8036 18.3542 93.5274 19.1363C92.4558 19.7965 91.4946 20.732 90.656 21.9617H90.565C89.5917 19.5186 87.3016 17.908 84.3173 17.908C80.4835 17.908 78.7605 19.8516 77.7153 21.4998H77.6236V18.4195H71.7769" fill="white"/>
<path d="M217.449 39.9873H217.542C217.665 39.9873 217.744 39.9364 217.744 39.8606C217.744 39.7745 217.67 39.7276 217.555 39.7276C217.516 39.7276 217.476 39.7356 217.449 39.7356V39.9895V39.9871L217.449 39.9873ZM217.435 40.5985H217.107V39.5317C217.181 39.5172 217.355 39.4912 217.577 39.4912C217.818 39.4912 217.926 39.5252 218.005 39.5786C218.072 39.6252 218.12 39.7048 218.12 39.8123C218.12 39.9218 218.019 40.0145 217.871 40.0551V40.0687C217.992 40.1009 218.058 40.1888 218.093 40.3429C218.126 40.4968 218.146 40.5597 218.167 40.5993H217.796C217.763 40.5597 217.744 40.4653 217.722 40.3711C217.702 40.2631 217.651 40.209 217.541 40.209H217.434L217.435 40.5985ZM217.57 39.1841C217.1 39.1841 216.745 39.5672 216.745 40.0555C216.745 40.5313 217.101 40.9194 217.583 40.9194C218.067 40.9275 218.423 40.5316 218.423 40.0478C218.423 39.5662 218.067 39.1841 217.577 39.1841H217.57ZM217.591 38.8945C218.247 38.8945 218.769 39.4106 218.769 40.0475C218.769 40.692 218.247 41.2088 217.582 41.2088C216.918 41.2088 216.389 40.6913 216.389 40.0478C216.389 39.4106 216.919 38.8948 217.582 38.8948H217.589" fill="white"/>
</svg>
