<svg width="167" height="50" viewBox="0 0 167 50" fill="none" xmlns="http://www.w3.org/2000/svg">
<path fill-rule="evenodd" clip-rule="evenodd" d="M103.951 39.1024C94.3362 46.212 80.3511 49.9999 68.2889 49.9999C51.3902 49.9999 36.2396 43.7644 24.7019 33.3915C23.8278 32.5756 24.5854 31.4684 25.6925 32.1094C38.1043 39.3355 53.4297 43.6479 69.2795 43.6479C79.9432 43.6479 91.714 41.4334 102.552 36.8297C104.184 36.1887 105.524 37.9369 103.951 39.1024Z" fill="white"/>
<path fill-rule="evenodd" clip-rule="evenodd" d="M107.972 34.499C106.748 32.9256 99.8136 33.7414 96.7253 34.1494C95.7929 34.2659 95.6181 33.4501 96.4922 32.8673C102.028 28.9629 111.06 30.1284 112.109 31.4104C113.158 32.6925 111.818 41.7834 106.631 46.0957C105.816 46.7368 105.058 46.3871 105.408 45.513C106.573 42.5992 109.195 36.1307 107.972 34.499Z" fill="white"/>
<path fill-rule="evenodd" clip-rule="evenodd" d="M96.8996 5.47785V1.68997C96.8996 1.10722 97.3074 0.757569 97.8319 0.757569H114.731C115.255 0.757569 115.721 1.1655 115.721 1.68997V4.8951C115.721 5.41958 115.255 6.11888 114.439 7.28438L105.699 19.7552C108.962 19.697 112.4 20.1632 115.313 21.7949C115.954 22.1445 116.129 22.7273 116.187 23.2517V27.2727C116.187 27.8555 115.605 28.4965 114.964 28.1468C109.778 25.4079 102.843 25.1165 97.1326 28.2051C96.5499 28.4965 95.9089 27.9138 95.9089 27.331V23.4848C95.9089 22.9021 95.9089 21.8531 96.5499 20.9207L106.689 6.41026H97.8902C97.3657 6.41026 96.8996 6.00233 96.8996 5.47785ZM35.3067 28.9627H30.1789C29.7127 28.9044 29.3048 28.5548 29.2465 28.0886V1.74825C29.2465 1.22378 29.7127 0.815847 30.2371 0.815847H35.0154C35.5398 0.815847 35.8895 1.22377 35.9477 1.68997V5.1282H36.0643C37.288 1.80652 39.6771 0.233097 42.8237 0.233097C46.0287 0.233097 48.0682 1.80652 49.4667 5.1282C50.6904 1.80652 53.5457 0.233097 56.5758 0.233097C58.7318 0.233097 61.0627 1.10722 62.5195 3.14685C64.1511 5.3613 63.8014 8.56644 63.8014 11.4219V28.0886C63.8014 28.613 63.3353 29.021 62.8108 29.021H57.7412C57.2168 28.9627 56.8089 28.5548 56.8089 28.0886V14.1026C56.8089 12.9953 56.9254 10.1981 56.6923 9.14917C56.2844 7.40092 55.1773 6.87645 53.6622 6.87645C52.4385 6.87645 51.0983 7.69231 50.5738 9.03263C50.0494 10.373 50.1077 12.5874 50.1077 14.1026V28.0886C50.1077 28.613 49.6415 29.021 49.117 29.021H43.9892C43.4647 28.9627 43.0568 28.5548 43.0568 28.0886V14.1026C43.0568 11.1888 43.523 6.81817 39.9102 6.81817C36.2391 6.81817 36.3556 11.014 36.3556 14.1026V28.0886C36.2973 28.5548 35.8894 28.9627 35.3067 28.9627ZM130.289 0.233097C137.923 0.233097 142.06 6.7599 142.06 15.0932C142.06 23.1352 137.515 29.5454 130.289 29.5454C122.83 29.5454 118.751 23.0186 118.751 14.8601C118.693 6.64336 122.83 0.233097 130.289 0.233097ZM130.289 5.65267C126.501 5.65267 126.268 10.8392 126.268 14.0443C126.268 17.2494 126.21 24.1259 130.231 24.1259C134.193 24.1259 134.426 18.5897 134.426 15.2098C134.426 12.9953 134.31 10.3147 133.669 8.21679C133.086 6.35199 131.921 5.65267 130.289 5.65267ZM151.908 28.9627H146.78C146.255 28.9044 145.848 28.4965 145.848 28.0303V1.63169C145.906 1.16549 146.314 0.757569 146.838 0.757569H151.616C152.083 0.757569 152.432 1.10723 152.549 1.51516V5.53613H152.665C154.122 1.92308 156.103 0.233097 159.658 0.233097C161.93 0.233097 164.203 1.04894 165.66 3.32167C167 5.41957 167 8.97435 167 11.5385V28.1468C166.942 28.613 166.534 28.9627 166.009 28.9627H160.882C160.415 28.9044 160.007 28.5548 159.949 28.1468V13.8112C159.949 10.8974 160.299 6.70163 156.744 6.70163C155.521 6.70163 154.355 7.51749 153.772 8.79954C153.073 10.4312 152.957 12.0047 152.957 13.8112V28.0303C152.898 28.5548 152.432 28.9627 151.908 28.9627ZM83.4389 16.3753C83.4389 18.3566 83.4971 20.0466 82.5065 21.8531C81.6907 23.31 80.4088 24.1842 78.952 24.1842C76.9707 24.1842 75.8053 22.669 75.8053 20.4546C75.8053 16.0839 79.7095 15.2681 83.4389 15.2681V16.3753ZM88.625 28.9044C88.2754 29.1958 87.8092 29.2541 87.4013 29.021C85.7115 27.6224 85.3618 26.9231 84.4295 25.5827C81.6325 28.4382 79.593 29.3123 75.9801 29.3123C71.6681 29.3123 68.2883 26.6317 68.2883 21.3287C68.2883 17.1329 70.5609 14.3357 73.7658 12.9371C76.5629 11.7133 80.467 11.4802 83.4389 11.1305V10.4895C83.4389 9.26573 83.5554 7.80886 82.7979 6.75991C82.1569 5.82751 80.9915 5.41957 79.9426 5.41957C77.9614 5.41957 76.2132 6.41026 75.8053 8.50816C75.6888 8.97436 75.3974 9.44055 74.9313 9.44055L69.9782 8.91608C69.5703 8.79953 69.1041 8.50816 69.2207 7.86713C70.3861 1.80653 75.8053 0 80.7001 0C83.2058 0 86.469 0.641022 88.4502 2.5641C90.9559 4.8951 90.7228 8.04196 90.7228 11.4219V19.4056C90.7228 21.7949 91.7134 22.8438 92.6457 24.1842C92.9954 24.6504 93.0536 25.2331 92.6457 25.5245C91.5386 26.3986 89.6739 28.0303 88.625 28.9044ZM16.1355 16.3753C16.1355 18.3566 16.1937 20.0466 15.2031 21.8531C14.3873 23.31 13.1053 24.1842 11.6486 24.1842C9.66734 24.1842 8.50191 22.669 8.50191 20.4546C8.50191 16.0839 12.4061 15.2681 16.1355 15.2681V16.3753ZM21.2633 28.9044C20.9137 29.1958 20.4475 29.2541 20.0396 29.021C18.3498 27.6224 18.0001 26.9231 17.0678 25.5827C14.2708 28.4382 12.2313 29.3123 8.61845 29.3123C4.30637 29.3123 0.926636 26.6317 0.926636 21.3287C0.926636 17.1329 3.19922 14.3357 6.40414 12.9371C9.20116 11.7133 13.1053 11.4802 16.0772 11.1305V10.4895C16.0772 9.26573 16.1937 7.80886 15.4362 6.75991C14.7952 5.82751 13.6298 5.41957 12.5809 5.41957C10.5997 5.41957 8.85154 6.41026 8.44364 8.50816C8.32709 8.97436 8.03574 9.44055 7.56957 9.44055L2.6165 8.91608C2.2086 8.79953 1.74244 8.50816 1.85898 7.86713C3.02441 1.80653 8.44364 0 13.3384 0C15.8441 0 19.1073 0.641022 21.0885 2.5641C23.5942 4.8951 23.3611 8.04196 23.3611 11.4219V19.4056C23.3611 21.7949 24.3517 22.8438 25.2841 24.1842C25.6337 24.6504 25.692 25.2331 25.2841 25.5245C24.1769 26.3986 22.3122 28.0303 21.2633 28.9044Z" fill="white"/>
</svg>
