<svg width="14" height="14" viewBox="0 0 14 14" fill="none" xmlns="http://www.w3.org/2000/svg">
<path d="M0 3.03456C0.0752484 2.79828 0.116293 2.54487 0.229165 2.32571C0.615668 1.55522 1.25528 1.14429 2.12064 1.09635C2.36348 1.08265 2.60975 1.09292 2.8697 1.09292C2.8697 0.918277 2.8697 0.753905 2.8697 0.592958C2.8697 0.247092 3.09544 0.00395897 3.41354 0.000534555C3.73163 0.000534555 3.95738 0.243668 3.9608 0.589533C3.9608 0.753905 3.9608 0.914852 3.9608 1.08607C4.78169 1.08607 5.5889 1.08607 6.42005 1.08607C6.42005 0.904579 6.41321 0.719661 6.42005 0.534743C6.43373 0.158057 6.78945 -0.0885001 7.14175 0.0313543C7.35724 0.103267 7.50431 0.301883 7.51115 0.538167C7.51799 0.716236 7.51115 0.894306 7.51115 1.08265C8.33889 1.08265 9.15978 1.08265 9.99777 1.08265C9.99777 0.901155 9.99093 0.716236 9.99777 0.531318C10.0183 0.103267 10.4732 -0.139866 10.8323 0.0861448C10.9999 0.192302 11.082 0.3464 11.0889 0.541592C11.0923 0.719661 11.0889 0.894306 11.0889 1.09292C11.2496 1.09292 11.4035 1.09635 11.554 1.09292C11.8961 1.08607 12.2347 1.11004 12.5596 1.23332C13.3737 1.53467 13.962 2.32571 13.9757 3.19551C13.9928 4.2605 13.9825 5.32892 13.9791 6.39391C13.9791 6.70896 13.7362 6.94524 13.4353 6.94524C13.1274 6.94524 12.8914 6.70553 12.8914 6.38364C12.888 5.37344 12.8914 4.35981 12.8914 3.34961C12.8914 2.88046 12.6999 2.5209 12.2723 2.30859C12.1492 2.24695 12.0055 2.20928 11.8687 2.20243C11.6156 2.18531 11.3591 2.19901 11.0889 2.19901C11.0889 2.36338 11.0889 2.52775 11.0889 2.6887C11.0855 3.04484 10.8597 3.29139 10.5348 3.28797C10.2167 3.28454 9.99777 3.04141 9.99435 2.69212C9.99435 2.5346 9.99435 2.37365 9.99435 2.20586C9.16662 2.20586 8.34573 2.20586 7.50773 2.20586C7.50773 2.35653 7.50773 2.50378 7.50773 2.65445C7.50773 3.03799 7.29567 3.28797 6.96389 3.28797C6.63212 3.29139 6.41663 3.04141 6.41321 2.65788C6.41321 2.5072 6.41321 2.35995 6.41321 2.20243C5.59232 2.20243 4.78511 2.20243 3.95396 2.20243C3.95396 2.38392 3.9608 2.56884 3.95396 2.75034C3.94028 3.12702 3.58456 3.37358 3.23568 3.25715C3.01677 3.18524 2.8697 2.9832 2.86628 2.73664C2.86286 2.56199 2.86628 2.38392 2.86628 2.18188C2.54476 2.19901 2.23009 2.17846 1.93251 2.23668C1.4434 2.31886 1.12188 2.74691 1.09452 3.25715C1.0911 3.29482 1.09452 3.32906 1.09452 3.36673C1.09452 6.1542 1.09452 8.9451 1.09452 11.7326C1.09452 12.2051 1.27922 12.5784 1.71361 12.7839C1.88121 12.8626 2.07959 12.8969 2.26771 12.9003C3.61192 12.9106 4.95271 12.9071 6.29692 12.9037C6.47478 12.9037 6.63212 12.9414 6.75867 13.0715C7.02204 13.3386 6.93995 13.7838 6.60133 13.9447C6.56029 13.9653 6.51924 13.9824 6.4782 13.9995C4.96639 13.9995 3.45458 13.9995 1.94278 13.9995C1.92225 13.9927 1.90173 13.979 1.88121 13.9756C1.11162 13.8523 0.554102 13.4379 0.218904 12.7393C0.116293 12.527 0.0752484 12.2873 0.00342038 12.0579C0 9.05125 0 6.04462 0 3.03456Z" fill="url(#paint0_linear_485_17319)"/>
<path d="M10.4068 14.0001C10.0956 13.9213 9.77407 13.8734 9.47307 13.7638C8.05361 13.2433 7.15748 11.6715 7.42084 10.1853C7.65343 8.87374 8.40249 7.96627 9.66461 7.55876C10.9609 7.13756 12.1307 7.44576 13.0747 8.42856C13.9435 9.33603 14.2035 10.4421 13.8375 11.6407C13.4476 12.918 12.5514 13.6885 11.2346 13.9487C11.1422 13.9658 11.0464 13.983 10.9541 14.0001C10.7694 14.0001 10.5881 14.0001 10.4068 14.0001ZM12.89 10.6887C12.89 9.46958 11.8879 8.47308 10.6736 8.47651C9.45939 8.47993 8.4709 9.47301 8.46748 10.6853C8.46406 11.9043 9.45939 12.9043 10.677 12.9043C11.8947 12.9077 12.8935 11.9078 12.89 10.6887Z" fill="url(#paint1_linear_485_17319)"/>
<path d="M3.95832 5.74371C3.95832 6.04505 3.70864 6.29161 3.40764 6.28819C3.10665 6.28476 2.8638 6.03478 2.86722 5.73343C2.87064 5.43893 3.11691 5.1958 3.41106 5.1958C3.71206 5.1958 3.95832 5.44236 3.95832 5.74371Z" fill="url(#paint2_linear_485_17319)"/>
<path d="M5.79677 6.28822C5.49578 6.29164 5.24951 6.04166 5.24609 5.74374C5.24609 5.44239 5.49578 5.19583 5.79335 5.19925C6.08751 5.20268 6.33035 5.44239 6.33719 5.73689C6.34404 6.03481 6.09777 6.28822 5.79677 6.28822Z" fill="url(#paint3_linear_485_17319)"/>
<path d="M8.71223 5.74716C8.71223 6.04851 8.46254 6.29506 8.16155 6.29164C7.86056 6.28822 7.61771 6.03823 7.62113 5.73689C7.62797 5.44239 7.87082 5.19925 8.16497 5.19925C8.46938 5.19583 8.71565 5.44581 8.71223 5.74716Z" fill="url(#paint4_linear_485_17319)"/>
<path d="M10.5473 6.28774C10.2463 6.28774 10 6.04118 10 5.73983C10 5.43848 10.2497 5.19192 10.5507 5.19535C10.8448 5.19877 11.0877 5.44191 11.0911 5.7364C11.0945 6.03775 10.8483 6.28774 10.5473 6.28774Z" fill="url(#paint5_linear_485_17319)"/>
<path d="M3.40775 7.57572C3.70874 7.57229 3.95843 7.81885 3.95843 8.1202C3.95843 8.42155 3.71216 8.66811 3.41117 8.66811C3.11701 8.66811 2.87075 8.42497 2.86733 8.13047C2.86049 7.82913 3.10675 7.57914 3.40775 7.57572Z" fill="url(#paint6_linear_485_17319)"/>
<path d="M5.79726 8.6681C5.49627 8.67152 5.25 8.42154 5.25 8.12362C5.25 7.82227 5.49969 7.57571 5.80068 7.57914C6.09483 7.58256 6.33768 7.82227 6.3411 8.11677C6.34452 8.41469 6.09825 8.66468 5.79726 8.6681Z" fill="url(#paint7_linear_485_17319)"/>
<path d="M3.95861 10.5109C3.95177 10.8122 3.69866 11.0519 3.39766 11.0451C3.09667 11.0382 2.85724 10.7814 2.86751 10.48C2.87777 10.1855 3.12745 9.94925 3.42161 9.95267C3.71918 9.95952 3.96545 10.2129 3.95861 10.5109Z" fill="url(#paint8_linear_485_17319)"/>
<path d="M5.79335 11.048C5.49236 11.048 5.24609 10.8014 5.24609 10.5001C5.24609 10.1987 5.49578 9.95218 5.79677 9.9556C6.09093 9.95903 6.33377 10.2022 6.33719 10.4967C6.34062 10.798 6.09435 11.0446 5.79335 11.048Z" fill="url(#paint9_linear_485_17319)"/>
<path d="M11.2282 10.1471C11.3376 10.1471 11.4232 10.1437 11.5087 10.1471C11.8028 10.1677 12.0251 10.4074 12.0217 10.6985C12.0183 10.9827 11.796 11.2224 11.5052 11.2327C11.2179 11.2429 10.9306 11.2429 10.6467 11.2327C10.3697 11.2224 10.1473 10.9998 10.1405 10.719C10.1302 10.3286 10.1302 9.93482 10.1405 9.54444C10.1473 9.24651 10.3902 9.02393 10.6809 9.02393C10.9717 9.02393 11.2111 9.24994 11.2248 9.54444C11.235 9.73963 11.2282 9.93482 11.2282 10.1471Z" fill="url(#paint10_linear_485_17319)"/>
<defs>
<linearGradient id="paint0_linear_485_17319" x1="-0.484638" y1="3.34183e-07" x2="16.8111" y2="7.34867" gradientUnits="userSpaceOnUse">
<stop stop-color="#9A77F9"/>
<stop offset="1" stop-color="#7746FD"/>
</linearGradient>
<linearGradient id="paint1_linear_485_17319" x1="7.14548" y1="7.375" x2="15.3348" y2="10.8572" gradientUnits="userSpaceOnUse">
<stop stop-color="#9A77F9"/>
<stop offset="1" stop-color="#7746FD"/>
</linearGradient>
<linearGradient id="paint2_linear_485_17319" x1="2.82938" y1="5.1958" x2="4.17886" y2="5.76908" gradientUnits="userSpaceOnUse">
<stop stop-color="#9A77F9"/>
<stop offset="1" stop-color="#7746FD"/>
</linearGradient>
<linearGradient id="paint3_linear_485_17319" x1="5.20828" y1="5.19922" x2="6.55657" y2="5.77383" gradientUnits="userSpaceOnUse">
<stop stop-color="#9A77F9"/>
<stop offset="1" stop-color="#7746FD"/>
</linearGradient>
<linearGradient id="paint4_linear_485_17319" x1="7.58328" y1="5.19922" x2="8.93281" y2="5.77252" gradientUnits="userSpaceOnUse">
<stop stop-color="#9A77F9"/>
<stop offset="1" stop-color="#7746FD"/>
</linearGradient>
<linearGradient id="paint5_linear_485_17319" x1="9.96219" y1="5.19531" x2="11.3117" y2="5.7686" gradientUnits="userSpaceOnUse">
<stop stop-color="#9A77F9"/>
<stop offset="1" stop-color="#7746FD"/>
</linearGradient>
<linearGradient id="paint6_linear_485_17319" x1="2.82937" y1="7.57568" x2="4.17895" y2="8.14906" gradientUnits="userSpaceOnUse">
<stop stop-color="#9A77F9"/>
<stop offset="1" stop-color="#7746FD"/>
</linearGradient>
<linearGradient id="paint7_linear_485_17319" x1="5.21219" y1="7.5791" x2="6.56039" y2="8.15362" gradientUnits="userSpaceOnUse">
<stop stop-color="#9A77F9"/>
<stop offset="1" stop-color="#7746FD"/>
</linearGradient>
<linearGradient id="paint8_linear_485_17319" x1="2.82936" y1="9.95264" x2="4.17926" y2="10.5262" gradientUnits="userSpaceOnUse">
<stop stop-color="#9A77F9"/>
<stop offset="1" stop-color="#7746FD"/>
</linearGradient>
<linearGradient id="paint9_linear_485_17319" x1="5.20828" y1="9.95557" x2="6.55777" y2="10.5288" gradientUnits="userSpaceOnUse">
<stop stop-color="#9A77F9"/>
<stop offset="1" stop-color="#7746FD"/>
</linearGradient>
<linearGradient id="paint10_linear_485_17319" x1="10.0674" y1="9.02393" x2="12.5049" y2="9.90746" gradientUnits="userSpaceOnUse">
<stop stop-color="#9A77F9"/>
<stop offset="1" stop-color="#7746FD"/>
</linearGradient>
</defs>
</svg>
