<svg width="80" height="80" viewBox="0 0 80 80" fill="none" xmlns="http://www.w3.org/2000/svg">
<path d="M61.25 55.7812H18.7467C8.40984 55.7812 0 47.3714 0 37.0345V18.75C0 8.41125 8.41125 0 18.75 0H61.25C71.5888 0 80 8.41125 80 18.75V37.0312C80 47.37 71.5888 55.7812 61.25 55.7812ZM18.75 6.25C11.8575 6.25 6.25 11.8575 6.25 18.75V37.0345C6.25 43.9252 11.8561 49.5312 18.7467 49.5312H61.25C68.1425 49.5312 73.75 43.9238 73.75 37.0312V18.75C73.75 11.8575 68.1425 6.25 61.25 6.25H18.75ZM35.7936 41.5695C34.5675 41.5695 33.3408 41.2505 32.2169 40.6109C29.9481 39.3202 28.5938 36.9972 28.5938 34.3973V22.1653C28.5938 19.5653 29.9481 17.2425 32.2169 15.9516C34.5048 14.6498 37.2213 14.6753 39.4836 16.0197L49.7753 22.1358C51.9706 23.4403 53.2812 25.7377 53.2812 28.2812C53.2812 30.8248 51.9706 33.1222 49.7753 34.4269L39.4836 40.543C38.3325 41.2269 37.0634 41.5695 35.7936 41.5695ZM36.2906 35.1698L46.5823 29.0537C46.9533 28.8333 47.0312 28.5119 47.0312 28.2811C47.0312 28.0503 46.9533 27.7289 46.5823 27.5084L36.2906 21.3923C35.8656 21.1397 35.4923 21.2784 35.3077 21.3834C35.0959 21.5039 34.8436 21.7372 34.8436 22.1648V34.3969C34.8436 34.8245 35.0959 35.0578 35.3077 35.1783C35.4923 35.2838 36.2906 35.1698 36.2906 35.1698ZM33.5938 76.875V64.375C33.5938 62.6491 32.1947 61.25 30.4688 61.25C28.7428 61.25 27.3438 62.6491 27.3438 64.375V76.875C27.3438 78.6009 28.7428 80 30.4688 80C32.1947 80 33.5938 78.6009 33.5938 76.875Z" fill="#252F4B"/>
<path d="M76.875 72.8571H42.9688C41.2428 72.8571 39.8438 71.578 39.8438 70C39.8438 68.422 41.2428 67.1428 42.9688 67.1428H76.875C78.6009 67.1428 80 68.422 80 70C80 71.578 78.6009 72.8571 76.875 72.8571ZM21.0938 70C21.0938 68.422 19.6947 67.1428 17.9688 67.1428H3.125C1.39906 67.1428 0 68.422 0 70C0 71.578 1.39906 72.8571 3.125 72.8571H17.9688C19.6947 72.8571 21.0938 71.578 21.0938 70Z" fill="url(#paint0_linear_484_12628)"/>
<defs>
<linearGradient id="paint0_linear_484_12628" x1="-2.77228" y1="67.1428" x2="0.431587" y2="86.22" gradientUnits="userSpaceOnUse">
<stop stop-color="#9A77F9"/>
<stop offset="1" stop-color="#7746FD"/>
</linearGradient>
</defs>
</svg>
