<svg width="80" height="80" viewBox="0 0 80 80" fill="none" xmlns="http://www.w3.org/2000/svg">
<path fill-rule="evenodd" clip-rule="evenodd" d="M3.125 0C4.85089 0 6.25 1.39911 6.25 3.125V50.5806L15.2459 41.5847C18.9071 37.9235 24.8431 37.9235 28.5042 41.5847C28.5282 41.6086 28.5518 41.633 28.575 41.6577L37.8204 51.5254C39.0387 52.7118 40.9855 52.7062 42.1968 51.5087L63.9649 29.1161C63.9752 29.1056 63.9855 29.0951 63.9959 29.0847C69.9017 23.1788 80 27.3615 80 35.7139V76.875C80 78.6009 78.6009 80 76.875 80H9.375C4.19739 80 0 75.8026 0 70.625V3.125C0 1.39911 1.39911 0 3.125 0ZM6.25 59.4194V70.625C6.25 72.3508 7.64917 73.75 9.375 73.75H73.75V35.7139C73.75 32.9359 70.3988 31.5417 68.4285 33.491L46.6603 55.8837C46.65 55.8943 46.6397 55.9048 46.6292 55.9152C42.9681 59.5763 37.0321 59.5763 33.3709 55.9152C33.3469 55.8912 33.3234 55.8668 33.3002 55.8421L24.0548 45.9744C22.8321 44.7838 20.8758 44.7937 19.6653 46.0041L6.25 59.4194Z" fill="#252F4B"/>
<path fill-rule="evenodd" clip-rule="evenodd" d="M79.0401 2.30631C80.2906 3.50475 80.3237 5.48052 79.1139 6.71933L47.9316 38.6493C47.9195 38.6617 47.9073 38.674 47.895 38.6862C44.204 42.3426 38.2196 42.3426 34.5285 38.6862L24.5367 28.7882C23.3065 27.5696 21.3115 27.5695 20.0811 28.7885C20.0811 28.7885 20.0811 28.7885 20.0811 28.7885L18.2355 30.6168C17.0052 31.8357 15.0104 31.8358 13.78 30.617C12.5496 29.3983 12.5495 27.4222 13.7798 26.2034L15.6254 24.375L15.6254 24.375C19.3164 20.7185 25.301 20.7181 28.9922 24.3746L38.984 34.2726C40.2092 35.4863 42.1927 35.4913 43.4242 34.2877L74.5852 2.37942C75.795 1.14061 77.7895 1.10788 79.0401 2.30631Z" fill="url(#paint0_linear_484_12637)"/>
<path fill-rule="evenodd" clip-rule="evenodd" d="M61.4285 3.09524C61.4285 1.38579 62.8143 0 64.5237 0H73.8094C77.2284 0 79.9999 2.77152 79.9999 6.19048V15.4762C79.9999 17.1856 78.6141 18.5714 76.9047 18.5714C75.1952 18.5714 73.8094 17.1856 73.8094 15.4762V6.19048H64.5237C62.8143 6.19048 61.4285 4.80469 61.4285 3.09524Z" fill="url(#paint1_linear_484_12637)"/>
<defs>
<linearGradient id="paint0_linear_484_12637" x1="10.5304" y1="1.42847" x2="75.4621" y2="47.7847" gradientUnits="userSpaceOnUse">
<stop stop-color="#9A77F9"/>
<stop offset="1" stop-color="#7746FD"/>
</linearGradient>
<linearGradient id="paint1_linear_484_12637" x1="60.7849" y1="4.43319e-07" x2="83.7452" y2="9.76541" gradientUnits="userSpaceOnUse">
<stop stop-color="#9A77F9"/>
<stop offset="1" stop-color="#7746FD"/>
</linearGradient>
</defs>
</svg>
