<svg width="82" height="82" viewBox="0 0 82 82" fill="none" xmlns="http://www.w3.org/2000/svg">
<path d="M49.6484 82H19.2188C8.62153 82 0 73.3785 0 62.7812V19.2188C0 8.62153 8.62153 0 19.2188 0H62.7812C73.3785 0 82 8.62153 82 19.2188V49.8887C82 51.6578 80.566 53.0918 78.7969 53.0918C77.0278 53.0918 75.5938 51.6578 75.5938 49.8887V19.2188C75.5938 12.1539 69.8461 6.40625 62.7812 6.40625H19.2188C12.1539 6.40625 6.40625 12.1539 6.40625 19.2188V62.7812C6.40625 69.8461 12.1539 75.5938 19.2188 75.5938H49.6484C51.4175 75.5938 52.8516 77.0278 52.8516 78.7969C52.8516 80.566 51.4175 82 49.6484 82ZM78.5757 78.5755C83.1341 74.0172 83.1341 66.6 78.5757 62.0415L67.3473 50.8133C64.1021 47.5678 60.0078 45.3772 55.5076 44.4776L46.4325 42.6637C45.3828 42.4534 44.297 42.7825 43.5398 43.5398C42.7825 44.2971 42.4539 45.3825 42.6637 46.4327L44.4776 55.5078C45.3772 60.0081 47.568 64.1021 50.8131 67.3475L62.0415 78.5757C64.2497 80.7838 67.1857 82 70.3086 82C73.4315 82 76.3675 80.7838 78.5757 78.5755ZM54.252 50.7596C57.5078 51.4103 60.4696 52.9951 62.8173 55.343L74.0457 66.5712C76.1064 68.6319 76.1064 71.985 74.0457 74.0457C73.0476 75.0439 71.7202 75.5938 70.3086 75.5938C68.897 75.5938 67.5696 75.0439 66.5715 74.0457L55.3431 62.8174C52.9954 60.4696 51.4105 57.5078 50.7598 54.2521L49.8874 49.8874L54.252 50.7596Z" fill="#252F4B"/>
<path d="M62.7015 23.754H33.5003C31.7377 23.754 30.3089 22.2972 30.3089 20.5C30.3089 18.7029 31.7377 17.2461 33.5003 17.2461H62.7015C64.4641 17.2461 65.8929 18.7029 65.8929 20.5C65.8929 22.2972 64.4641 23.754 62.7015 23.754ZM65.8929 33.5159C65.8929 31.7187 64.4641 30.2619 62.7015 30.2619H19.2986C17.536 30.2619 16.1072 31.7187 16.1072 33.5159C16.1072 35.3131 17.536 36.7699 19.2986 36.7699H62.7015C64.4641 36.7699 65.8929 35.3131 65.8929 33.5159ZM33.979 46.5318C33.979 44.7346 32.5502 43.2778 30.7876 43.2778H19.2986C17.536 43.2778 16.1072 44.7346 16.1072 46.5318C16.1072 48.3289 17.536 49.7857 19.2986 49.7857H30.7876C32.5502 49.7857 33.979 48.3289 33.979 46.5318ZM16.1072 20.1746C16.1072 22.421 17.8932 24.2421 20.0964 24.2421C22.2996 24.2421 24.0857 22.421 24.0857 20.1746C24.0857 17.9283 22.2996 16.1072 20.0964 16.1072C17.8932 16.1072 16.1072 17.9283 16.1072 20.1746Z" fill="url(#paint0_linear_484_12619)"/>
<defs>
<linearGradient id="paint0_linear_484_12619" x1="14.3819" y1="16.1072" x2="66.4751" y2="48.8597" gradientUnits="userSpaceOnUse">
<stop stop-color="#9A77F9"/>
<stop offset="1" stop-color="#7746FD"/>
</linearGradient>
</defs>
</svg>
