<svg width="17" height="16" viewBox="0 0 17 16" fill="none" xmlns="http://www.w3.org/2000/svg">
<path d="M16.9984 8.47233C17.0116 9.70306 16.7074 10.764 16.1385 11.7331C16.0062 11.9523 15.9864 12.1504 16.0591 12.3979C16.3369 13.3033 16.6015 14.2157 16.8727 15.1211C16.9521 15.397 16.9719 15.6587 16.747 15.8638C16.5354 16.0618 16.3105 16.0194 16.0724 15.8921C15.2521 15.4394 14.4187 15.0009 13.5985 14.5411C13.367 14.4138 13.1685 14.3926 12.9105 14.4845C10.2911 15.4182 7.91647 14.9513 5.84608 12.9709C5.68733 12.8153 5.51535 12.7516 5.31691 12.7162C4.88034 12.6384 4.45039 12.5253 4.0469 12.3484C3.84184 12.2565 3.67648 12.2848 3.48465 12.3909C2.66443 12.8506 1.83098 13.2892 1.01077 13.7348C0.766023 13.8692 0.521281 13.9682 0.276538 13.7489C0.0185664 13.5155 0.0714837 13.2326 0.157474 12.9355C0.422061 12.0372 0.686647 11.1389 0.957848 10.2406C1.01738 10.0355 1.03061 9.86574 0.911546 9.67477C-0.82811 6.80307 -0.00789211 3.05429 2.77688 1.15869C5.43598 -0.644971 8.86237 -0.319605 11.151 1.9721C11.3495 2.17015 11.5678 2.20551 11.8059 2.2621C13.9292 2.736 15.5432 3.93844 16.4957 6.06038C16.8529 6.83843 17.0182 7.67307 16.9984 8.47233ZM15.5035 14.2935C15.3051 13.6357 15.1661 13.0628 14.9677 12.5182C14.8023 12.0514 14.8619 11.6906 15.1331 11.2733C16.2642 9.52623 16.198 7.29819 15.0074 5.59356C13.1156 2.89161 9.17326 2.47429 6.79198 4.72356C4.52977 6.85965 4.50992 10.2689 6.81844 12.3555C8.57133 13.9399 10.5888 14.1804 12.7121 13.3316C13.1354 13.1618 13.4728 13.1548 13.8631 13.3953C14.3658 13.7065 14.8949 13.9611 15.5035 14.2935ZM9.62306 2.156C9.57014 2.09942 9.54368 2.0782 9.51722 2.05698C7.19548 0.458442 3.88153 1.00308 2.12203 3.29478C1.32827 4.32746 0.971078 5.52282 1.09014 6.8738C1.16952 7.79331 1.47379 8.60672 1.98312 9.34233C2.1551 9.58989 2.19479 9.83745 2.10219 10.1345C1.92359 10.6933 1.75822 11.2521 1.59947 11.8179C1.57301 11.9099 1.50025 12.0018 1.57963 12.1221C2.18156 11.7967 2.7835 11.4784 3.37881 11.146C3.61033 11.0187 3.82861 10.9974 4.07335 11.1177C4.25195 11.2096 4.43055 11.3087 4.66206 11.3299C2.74381 7.10721 5.50874 2.72185 9.62306 2.156Z" fill="url(#paint0_linear_485_17331)"/>
<path d="M9.03385 8.52168C9.04046 8.81876 8.80233 9.08046 8.51129 9.08754C8.22024 9.09461 7.9755 8.84705 7.96888 8.5429C7.96227 8.24583 8.2004 7.98412 8.49144 7.97705C8.78249 7.97705 9.02723 8.21754 9.03385 8.52168Z" fill="url(#paint1_linear_485_17331)"/>
<path d="M10.4823 9.08794C10.1913 9.08794 9.95312 8.82623 9.95312 8.52916C9.95312 8.22501 10.1979 7.97745 10.4955 7.98452C10.7866 7.98452 11.0247 8.23916 11.0247 8.5433C11.0181 8.84745 10.7733 9.09501 10.4823 9.08794Z" fill="url(#paint2_linear_485_17331)"/>
<path d="M12.4641 7.98452C12.7551 7.97745 12.9999 8.22501 13.0065 8.52208C13.0131 8.81916 12.775 9.08086 12.4839 9.08794C12.1929 9.09501 11.9482 8.84745 11.9415 8.5433C11.9349 8.24623 12.1731 7.9916 12.4641 7.98452Z" fill="url(#paint3_linear_485_17331)"/>
<defs>
<linearGradient id="paint0_linear_485_17331" x1="-0.589109" y1="3.81936e-07" x2="20.0214" y2="9.31388" gradientUnits="userSpaceOnUse">
<stop stop-color="#9A77F9"/>
<stop offset="1" stop-color="#7746FD"/>
</linearGradient>
<linearGradient id="paint1_linear_485_17331" x1="7.93184" y1="7.97705" x2="9.26517" y2="8.52095" gradientUnits="userSpaceOnUse">
<stop stop-color="#9A77F9"/>
<stop offset="1" stop-color="#7746FD"/>
</linearGradient>
<linearGradient id="paint2_linear_485_17331" x1="9.91599" y1="7.98438" x2="11.2526" y2="8.53629" gradientUnits="userSpaceOnUse">
<stop stop-color="#9A77F9"/>
<stop offset="1" stop-color="#7746FD"/>
</linearGradient>
<linearGradient id="paint3_linear_485_17331" x1="11.9045" y1="7.98438" x2="13.2354" y2="8.53071" gradientUnits="userSpaceOnUse">
<stop stop-color="#9A77F9"/>
<stop offset="1" stop-color="#7746FD"/>
</linearGradient>
</defs>
</svg>
