<svg width="15" height="15" viewBox="0 0 15 15" fill="none" xmlns="http://www.w3.org/2000/svg">
<path d="M2.73782 12.2092C2.29853 12.1112 1.89335 11.9493 1.53083 11.698C0.554141 11.0206 0.0252811 10.0834 0.0124861 8.89479C-0.0088389 7.06292 -0.00457391 5.23105 0.00822109 3.39919C0.0252811 1.68235 1.24081 0.297797 2.94254 0.0379278C3.11314 0.0123668 3.29227 0.00384653 3.46714 0.00384653C6.15835 0.00384653 8.84956 -0.000413627 11.5408 0.00384653C13.2084 0.00810668 14.5732 1.10723 14.9187 2.73034C14.9698 2.97317 14.9912 3.22452 14.9912 3.47587C14.9954 5.25236 14.9997 7.0331 14.9954 8.80958C14.9912 10.5136 13.8652 11.8939 12.2061 12.2134C11.9715 12.2603 11.7327 12.2688 11.4939 12.2688C10.2954 12.2731 9.1012 12.2731 7.90273 12.2688C7.77478 12.2688 7.66816 12.2986 7.56153 12.3711C6.33321 13.1933 5.10489 14.0112 3.87657 14.8334C3.71877 14.9399 3.55243 15.0166 3.35624 14.9953C2.98945 14.957 2.74635 14.6843 2.74209 14.3009C2.73782 13.6747 2.74209 13.0442 2.74209 12.4179C2.73782 12.354 2.73782 12.2901 2.73782 12.2092ZM4.09409 13.0442C4.17086 12.9973 4.21777 12.9632 4.26469 12.9334C5.18166 12.3242 6.09864 11.715 7.01135 11.0973C7.20754 10.9652 7.40373 10.9098 7.6383 10.9098C8.94339 10.9141 10.2442 10.9141 11.5493 10.9098C12.7435 10.9056 13.6349 10.0109 13.6349 8.81384C13.6349 7.02458 13.6349 5.23531 13.6349 3.44605C13.6349 2.26173 12.7392 1.36284 11.5536 1.36284C8.85809 1.36284 6.15835 1.36284 3.46287 1.36284C2.27294 1.36284 1.37729 2.26173 1.37729 3.45457C1.37729 5.23957 1.37729 7.02032 1.37729 8.80532C1.37729 9.9726 2.20896 10.8459 3.37757 10.9056C3.85098 10.9311 4.09409 11.1825 4.09835 11.6554C4.09409 12.1069 4.09409 12.5543 4.09409 13.0442Z" fill="url(#paint0_linear_30_3349)"/>
<path d="M7.48513 5.45638C6.13739 5.45638 4.79391 5.45638 3.44617 5.45638C2.93864 5.45638 2.60597 4.99628 2.77657 4.54044C2.87893 4.26353 3.09218 4.12295 3.3822 4.09313C3.43338 4.08887 3.48882 4.08887 3.54 4.08887C6.18004 4.08887 8.8158 4.08887 11.4558 4.08887C11.571 4.08887 11.6904 4.09739 11.8013 4.13147C12.1169 4.22945 12.3003 4.5447 12.2534 4.88552C12.2107 5.19651 11.9293 5.44786 11.5966 5.45212C11.2127 5.46064 10.8289 5.45212 10.4493 5.45212C9.46408 5.45638 8.4746 5.45638 7.48513 5.45638Z" fill="url(#paint1_linear_30_3349)"/>
<path d="M7.48496 8.17895C6.58931 8.17895 5.69792 8.18321 4.80654 8.17895C4.32886 8.17469 4.01325 7.78701 4.11987 7.3397C4.18385 7.05853 4.43122 6.84552 4.72124 6.82848C4.76389 6.82422 4.80654 6.82422 4.84919 6.82422C6.61916 6.82422 8.3934 6.82422 10.1634 6.82422C10.56 6.82422 10.8287 7.02871 10.897 7.37378C10.978 7.78275 10.6837 8.16617 10.2657 8.17895C9.89041 8.19173 9.51083 8.18321 9.13125 8.18321C8.58106 8.17895 8.03514 8.17895 7.48496 8.17895Z" fill="url(#paint2_linear_30_3349)"/>
<defs>
<linearGradient id="paint0_linear_30_3349" x1="0.818967" y1="1.61701" x2="15.1885" y2="2.70002" gradientUnits="userSpaceOnUse">
<stop stop-color="#794AFF"/>
<stop offset="1" stop-color="#1904E5"/>
</linearGradient>
<linearGradient id="paint1_linear_30_3349" x1="3.25328" y1="4.23614" x2="10.4498" y2="8.015" gradientUnits="userSpaceOnUse">
<stop stop-color="#794AFF"/>
<stop offset="1" stop-color="#1904E5"/>
</linearGradient>
<linearGradient id="paint2_linear_30_3349" x1="4.47212" y1="6.97087" x2="10.2181" y2="9.13658" gradientUnits="userSpaceOnUse">
<stop stop-color="#794AFF"/>
<stop offset="1" stop-color="#1904E5"/>
</linearGradient>
</defs>
</svg>
