<svg width="232" height="66" viewBox="0 0 232 66" fill="none" xmlns="http://www.w3.org/2000/svg">
<path d="M52.0711 16.0713L25.3215 16.1734C18.5207 16.1994 12.9835 21.7366 12.9576 28.5374L12.9305 29.016C12.918 32.2905 15.5778 34.9502 18.8773 34.9628L30.6149 34.918L30.6168 34.4142C30.6293 31.1398 27.9696 28.48 24.67 28.4675L39.7324 28.41C46.5079 28.4093 52.0451 22.8721 52.0711 16.0713Z" fill="url(#paint0_linear_30_3674)"/>
<path d="M52.0422 36.8761L52.0441 36.3723C52.0566 33.0979 49.3969 30.4382 46.0973 30.4256L34.0826 30.4966L34.0807 31.0004C34.0682 34.2748 36.7279 36.9346 40.0274 36.9471L25.2926 36.9782C18.4918 37.0042 12.9546 42.5414 12.9287 49.3421L39.6782 49.24C46.479 49.214 52.0162 43.6768 52.0422 36.8761Z" fill="#BCA3EA"/>
<path d="M83.2173 27.3801C83.1043 26.24 82.619 25.3543 81.7617 24.7231C80.9043 24.0918 79.7406 23.7762 78.2708 23.7762C77.2721 23.7762 76.4288 23.9175 75.741 24.2002C75.0532 24.4734 74.5256 24.855 74.1581 25.3449C73.8001 25.8349 73.6211 26.3908 73.6211 27.0126C73.6022 27.5308 73.7106 27.9831 73.9461 28.3694C74.1911 28.7557 74.5256 29.0901 74.9496 29.3728C75.3736 29.646 75.8635 29.8863 76.4194 30.0936C76.9753 30.2914 77.5689 30.461 78.2002 30.6024L80.8006 31.2242C82.0632 31.5069 83.2221 31.8838 84.2773 32.3548C85.3326 32.8259 86.2465 33.4054 87.0191 34.0932C87.7917 34.781 88.39 35.5913 88.814 36.5241C89.2474 37.4568 89.4688 38.5262 89.4782 39.7322C89.4688 41.5036 89.0166 43.0393 88.1215 44.3396C87.2358 45.6304 85.9544 46.6338 84.2773 47.3499C82.6096 48.0565 80.598 48.4099 78.2426 48.4099C75.9059 48.4099 73.8708 48.0518 72.1371 47.3358C70.4129 46.6197 69.0656 45.5597 68.0951 44.1558C67.1341 42.7426 66.63 40.9948 66.5829 38.9125H72.5046C72.5705 39.883 72.8485 40.6933 73.3384 41.3434C73.8378 41.9841 74.502 42.4693 75.3312 42.7991C76.1697 43.1194 77.1166 43.2796 78.1719 43.2796C79.2083 43.2796 80.1081 43.1289 80.8713 42.8273C81.6439 42.5258 82.2422 42.1066 82.6662 41.5695C83.0901 41.0325 83.3021 40.4153 83.3021 39.7181C83.3021 39.068 83.109 38.5215 82.7227 38.0787C82.3458 37.6359 81.7899 37.259 81.055 36.9481C80.3295 36.6371 79.4391 36.3545 78.3839 36.1001L75.2322 35.3086C72.792 34.715 70.8652 33.787 69.4519 32.5244C68.0386 31.2619 67.3366 29.5612 67.3461 27.4225C67.3366 25.67 67.803 24.1389 68.7452 22.8293C69.6968 21.5196 71.0018 20.4973 72.66 19.7624C74.3183 19.0275 76.2027 18.66 78.3132 18.66C80.4614 18.66 82.3364 19.0275 83.9381 19.7624C85.5493 20.4973 86.8024 21.5196 87.6975 22.8293C88.5926 24.1389 89.0542 25.6558 89.0825 27.3801H83.2173ZM99.6716 48.4099C98.2866 48.4099 97.0523 48.1696 95.9688 47.6891C94.8853 47.1991 94.0279 46.4784 93.3966 45.5267C92.7747 44.5657 92.4638 43.3691 92.4638 41.937C92.4638 40.731 92.6852 39.7181 93.1281 38.8984C93.5709 38.0787 94.1739 37.4191 94.9371 36.9198C95.7003 36.4204 96.5671 36.0435 97.5375 35.7892C98.5174 35.5348 99.5444 35.3557 100.619 35.2521C101.881 35.1202 102.899 34.9977 103.671 34.8846C104.444 34.7622 105.004 34.5831 105.353 34.3476C105.702 34.112 105.876 33.7634 105.876 33.3018V33.217C105.876 32.3219 105.593 31.6294 105.028 31.1394C104.472 30.6495 103.681 30.4045 102.654 30.4045C101.57 30.4045 100.708 30.6448 100.067 31.1253C99.4266 31.5964 99.0026 32.19 98.7954 32.906L93.227 32.4538C93.5096 31.1347 94.0655 29.9947 94.8947 29.0336C95.7238 28.0632 96.7932 27.3188 98.1028 26.8006C99.4219 26.273 100.948 26.0092 102.682 26.0092C103.888 26.0092 105.042 26.1505 106.144 26.4332C107.256 26.7158 108.241 27.1539 109.098 27.7475C109.965 28.3411 110.648 29.1043 111.148 30.0371C111.647 30.9604 111.897 32.0675 111.897 33.3583V48H106.187V44.9897H106.017C105.669 45.6681 105.202 46.2664 104.618 46.7846C104.034 47.2934 103.332 47.6938 102.512 47.9859C101.693 48.2685 100.746 48.4099 99.6716 48.4099ZM101.396 44.2548C102.281 44.2548 103.064 44.0805 103.742 43.7319C104.42 43.3738 104.953 42.8933 105.339 42.2903C105.725 41.6873 105.918 41.0042 105.918 40.241V37.9374C105.73 38.0598 105.471 38.1729 105.141 38.2765C104.821 38.3708 104.458 38.4603 104.053 38.5451C103.648 38.6204 103.243 38.6911 102.837 38.7571C102.432 38.8136 102.065 38.8654 101.735 38.9125C101.028 39.0162 100.411 39.1811 99.8836 39.4072C99.356 39.6333 98.9461 39.9395 98.654 40.3258C98.362 40.7027 98.2159 41.1738 98.2159 41.7391C98.2159 42.5588 98.5127 43.1854 99.1063 43.6188C99.7093 44.0428 100.472 44.2548 101.396 44.2548ZM122.758 48.4099C121.373 48.4099 120.138 48.1696 119.055 47.6891C117.971 47.1991 117.114 46.4784 116.483 45.5267C115.861 44.5657 115.55 43.3691 115.55 41.937C115.55 40.731 115.771 39.7181 116.214 38.8984C116.657 38.0787 117.26 37.4191 118.023 36.9198C118.786 36.4204 119.653 36.0435 120.624 35.7892C121.604 35.5348 122.631 35.3557 123.705 35.2521C124.967 35.1202 125.985 34.9977 126.757 34.8846C127.53 34.7622 128.091 34.5831 128.439 34.3476C128.788 34.112 128.962 33.7634 128.962 33.3018V33.217C128.962 32.3219 128.679 31.6294 128.114 31.1394C127.558 30.6495 126.767 30.4045 125.74 30.4045C124.656 30.4045 123.794 30.6448 123.153 31.1253C122.513 31.5964 122.089 32.19 121.881 32.906L116.313 32.4538C116.596 31.1347 117.152 29.9947 117.981 29.0336C118.81 28.0632 119.879 27.3188 121.189 26.8006C122.508 26.273 124.034 26.0092 125.768 26.0092C126.974 26.0092 128.128 26.1505 129.231 26.4332C130.342 26.7158 131.327 27.1539 132.184 27.7475C133.051 28.3411 133.734 29.1043 134.234 30.0371C134.733 30.9604 134.983 32.0675 134.983 33.3583V48H129.273V44.9897H129.103C128.755 45.6681 128.288 46.2664 127.704 46.7846C127.12 47.2934 126.418 47.6938 125.598 47.9859C124.779 48.2685 123.832 48.4099 122.758 48.4099ZM124.482 44.2548C125.368 44.2548 126.15 44.0805 126.828 43.7319C127.506 43.3738 128.039 42.8933 128.425 42.2903C128.811 41.6873 129.004 41.0042 129.004 40.241V37.9374C128.816 38.0598 128.557 38.1729 128.227 38.2765C127.907 38.3708 127.544 38.4603 127.139 38.5451C126.734 38.6204 126.329 38.6911 125.924 38.7571C125.518 38.8136 125.151 38.8654 124.821 38.9125C124.114 39.0162 123.497 39.1811 122.97 39.4072C122.442 39.6333 122.032 39.9395 121.74 40.3258C121.448 40.7027 121.302 41.1738 121.302 41.7391C121.302 42.5588 121.599 43.1854 122.192 43.6188C122.795 44.0428 123.559 44.2548 124.482 44.2548ZM157.716 32.482L152.204 32.8212C152.109 32.3501 151.907 31.9262 151.596 31.5493C151.285 31.163 150.875 30.8568 150.366 30.6306C149.867 30.3951 149.269 30.2773 148.572 30.2773C147.639 30.2773 146.852 30.4752 146.211 30.8709C145.571 31.2572 145.25 31.7754 145.25 32.4255C145.25 32.9437 145.458 33.3818 145.872 33.7399C146.287 34.0979 146.998 34.3853 148.006 34.602L151.935 35.3934C154.046 35.8268 155.619 36.5241 156.656 37.4851C157.692 38.4461 158.21 39.7087 158.21 41.2727C158.21 42.6954 157.791 43.9438 156.952 45.018C156.123 46.0921 154.983 46.9306 153.532 47.5336C152.091 48.1272 150.428 48.424 148.543 48.424C145.67 48.424 143.38 47.8257 141.675 46.6291C139.979 45.4231 138.985 43.7837 138.693 41.7108L144.614 41.3999C144.793 42.2762 145.227 42.9451 145.915 43.4068C146.602 43.8591 147.483 44.0852 148.557 44.0852C149.613 44.0852 150.461 43.8826 151.101 43.4775C151.751 43.0629 152.081 42.5306 152.091 41.8804C152.081 41.334 151.85 40.8864 151.398 40.5378C150.946 40.1798 150.249 39.9065 149.306 39.7181L145.547 38.9691C143.427 38.5451 141.849 37.8102 140.813 36.7643C139.786 35.7185 139.272 34.3853 139.272 32.7647C139.272 31.3703 139.649 30.169 140.403 29.1608C141.166 28.1527 142.235 27.3753 143.611 26.8289C144.996 26.2824 146.616 26.0092 148.473 26.0092C151.214 26.0092 153.372 26.5886 154.945 27.7475C156.528 28.9064 157.452 30.4846 157.716 32.482ZM173.548 26.2918V30.8144H160.475V26.2918H173.548ZM163.443 21.0909H169.464V41.3293C169.464 41.8852 169.548 42.3186 169.718 42.6295C169.888 42.931 170.123 43.143 170.425 43.2655C170.735 43.388 171.094 43.4492 171.499 43.4492C171.781 43.4492 172.064 43.4256 172.347 43.3785C172.629 43.322 172.846 43.2796 172.997 43.2513L173.944 47.7315C173.642 47.8257 173.218 47.934 172.672 48.0565C172.125 48.1884 171.461 48.2685 170.679 48.2968C169.228 48.3533 167.956 48.1602 166.863 47.7173C165.78 47.2745 164.936 46.5867 164.333 45.6539C163.73 44.7212 163.433 43.5434 163.443 42.1207V21.0909ZM187.13 48.424C184.897 48.424 182.975 47.9717 181.363 47.0672C179.762 46.1533 178.527 44.8625 177.661 43.1948C176.794 41.5177 176.36 39.5344 176.36 37.2448C176.36 35.0118 176.794 33.0521 177.661 31.3655C178.527 29.679 179.748 28.3647 181.321 27.4225C182.904 26.4803 184.76 26.0092 186.889 26.0092C188.322 26.0092 189.655 26.24 190.889 26.7017C192.133 27.1539 193.216 27.837 194.14 28.751C195.072 29.6649 195.798 30.8144 196.316 32.1994C196.834 33.575 197.093 35.1861 197.093 37.0328V38.6864H178.763V34.9553H191.426C191.426 34.0885 191.238 33.3206 190.861 32.6516C190.484 31.9827 189.961 31.4598 189.292 31.0829C188.632 30.6966 187.865 30.5034 186.988 30.5034C186.074 30.5034 185.264 30.7154 184.557 31.1394C183.86 31.554 183.314 32.1146 182.918 32.8212C182.522 33.5185 182.32 34.2958 182.31 35.1532V38.7005C182.31 39.7746 182.508 40.7027 182.904 41.4847C183.309 42.2667 183.879 42.8697 184.614 43.2937C185.349 43.7177 186.22 43.9297 187.229 43.9297C187.898 43.9297 188.51 43.8355 189.066 43.6471C189.622 43.4586 190.098 43.176 190.493 42.7991C190.889 42.4222 191.191 41.9605 191.398 41.4141L196.966 41.7815C196.684 43.1194 196.104 44.2878 195.228 45.2865C194.361 46.2758 193.24 47.0484 191.864 47.6043C190.498 48.1508 188.92 48.424 187.13 48.424ZM207.043 35.45V48H201.022V26.2918H206.76V30.1218H207.015C207.495 28.8593 208.301 27.8606 209.431 27.1257C210.562 26.3813 211.933 26.0092 213.544 26.0092C215.052 26.0092 216.366 26.3389 217.487 26.9985C218.608 27.658 219.48 28.6002 220.102 29.8251C220.724 31.0405 221.035 32.4915 221.035 34.178V48H215.014V35.2521C215.023 33.9236 214.684 32.8872 213.996 32.1429C213.309 31.3891 212.362 31.0122 211.156 31.0122C210.345 31.0122 209.629 31.1865 209.007 31.5351C208.395 31.8838 207.915 32.3925 207.566 33.0615C207.227 33.721 207.052 34.5172 207.043 35.45Z" fill="white"/>
<defs>
<linearGradient id="paint0_linear_30_3674" x1="34.2773" y1="4.15225" x2="51.0641" y2="22.7376" gradientUnits="userSpaceOnUse">
<stop stop-color="#794AFF"/>
<stop offset="1" stop-color="#1904E5"/>
</linearGradient>
</defs>
</svg>
