<svg width="148" height="55" viewBox="0 0 148 55" fill="none" xmlns="http://www.w3.org/2000/svg">
<path d="M34.5127 7.77319L33.3147 11.1249C32.1981 14.2501 29.2378 16.3363 25.9199 16.3363L27.3027 12.47H14.4978C12.3222 12.47 10.4328 13.7038 9.49105 15.5078C9.08177 16.2906 8.84932 17.1767 8.84932 18.1184C8.84932 18.5496 8.897 18.9747 8.99237 19.384C9.26853 20.598 9.94205 21.6927 10.9295 22.4993L25.0556 33.3492C24.1317 34.5512 22.743 35.183 21.3343 35.183C20.3409 35.183 19.3356 34.8671 18.4853 34.2154L7.96718 26.1411C5.53932 24.1642 4.14856 21.2337 4.15254 18.1025C4.15651 15.3548 5.26315 12.76 7.2718 10.7951C9.26058 8.84606 11.8732 7.77319 14.6249 7.77319H34.5127Z" fill="#A4DB74"/>
<path d="M33.1397 33.1963C33.1358 35.9441 32.0291 38.5388 30.0224 40.5037C28.0317 42.4528 25.419 43.5277 22.6673 43.5277H0L1.19804 40.1739C2.3166 37.0487 5.27693 34.9626 8.59487 34.9626L7.21206 38.8289H22.7945C24.968 38.8289 26.8595 37.5951 27.7992 35.7911C28.2105 35.0103 28.4429 34.1222 28.4429 33.1804C28.4429 32.7513 28.3933 32.3261 28.2999 31.9148C28.0217 30.7009 27.3482 29.6062 26.3608 28.7995L12.4036 18.204L12.4195 18.1821C13.989 16.1357 16.9156 15.7423 18.9699 17.3L29.3291 25.1577C31.7549 27.1346 33.1437 30.0651 33.1397 33.1963Z" fill="#FBFE74"/>
<path d="M51.9144 39.6766C48.8101 39.6766 46.3824 39.0398 44.6313 37.7663C42.8802 36.4927 41.9516 34.7018 41.8454 32.3935H47.4968C47.6029 33.0833 48.0142 33.7068 48.7305 34.264C49.4734 34.7946 50.5745 35.06 52.0338 35.06C53.1482 35.06 54.0635 34.8742 54.7799 34.5028C55.5228 34.1048 55.8942 33.5476 55.8942 32.8313C55.8942 32.1945 55.6157 31.6904 55.0585 31.3189C54.5013 30.9209 53.5063 30.6424 52.0736 30.4832L50.3623 30.324C47.7356 30.0586 45.7589 29.329 44.4323 28.1351C43.1322 26.9411 42.4822 25.4155 42.4822 23.5583C42.4822 22.0194 42.8669 20.7326 43.6364 19.6978C44.4058 18.6631 45.4671 17.8804 46.8202 17.3497C48.1999 16.8191 49.7653 16.5537 51.5164 16.5537C54.3288 16.5537 56.5973 17.1773 58.3219 18.4243C60.0465 19.6447 60.9486 21.4224 61.0282 23.7572H55.3769C55.2707 23.0409 54.8993 22.4439 54.2625 21.9663C53.6257 21.4622 52.6838 21.2101 51.4368 21.2101C50.4551 21.2101 49.6724 21.3959 49.0887 21.7673C48.505 22.1388 48.2132 22.6429 48.2132 23.2797C48.2132 23.8899 48.4652 24.3542 48.9693 24.6726C49.4734 24.991 50.2959 25.2165 51.4368 25.3492L53.1482 25.5084C55.8279 25.8002 57.9107 26.5431 59.3965 27.7371C60.8823 28.931 61.6252 30.5362 61.6252 32.5527C61.6252 34.0119 61.2272 35.2855 60.4312 36.3733C59.6353 37.4346 58.5077 38.2571 57.0484 38.8408C55.5891 39.398 53.8778 39.6766 51.9144 39.6766ZM78.9241 39V32.5527H77.8495V25.5482C77.8495 24.4338 77.5842 23.598 77.0536 23.0409C76.5229 22.4837 75.6739 22.2051 74.5065 22.2051C73.9228 22.2051 73.1533 22.2184 72.1982 22.2449C71.243 22.2714 70.2613 22.3112 69.2531 22.3643C68.2449 22.4174 67.3295 22.4704 66.507 22.5235V17.1507C67.1173 17.0977 67.8336 17.0446 68.6561 16.9915C69.4786 16.9385 70.3277 16.8987 71.2032 16.8721C72.0788 16.8456 72.9013 16.8323 73.6707 16.8323C75.8994 16.8323 77.7699 17.1507 79.2823 17.7875C80.8212 18.4243 81.9886 19.3927 82.7845 20.6928C83.5805 21.9663 83.9785 23.6113 83.9785 25.6278V39H78.9241ZM71.9594 39.5572C70.394 39.5572 69.0143 39.2786 67.8204 38.7214C66.6529 38.1642 65.7376 37.3683 65.0743 36.3335C64.411 35.2722 64.0793 34.0119 64.0793 32.5527C64.0793 30.9607 64.4906 29.6607 65.3131 28.6524C66.1356 27.6177 67.2897 26.8615 68.7755 26.3839C70.2613 25.8798 71.9727 25.6278 73.9095 25.6278H78.5659V29.1698H73.8697C72.7554 29.1698 71.8931 29.4484 71.2828 30.0056C70.6991 30.5362 70.4073 31.2659 70.4073 32.1945C70.4073 33.07 70.6991 33.7864 71.2828 34.3436C71.8931 34.8742 72.7554 35.1396 73.8697 35.1396C74.5861 35.1396 75.2229 35.0202 75.78 34.7814C76.3637 34.5161 76.8413 34.0783 77.2128 33.468C77.5842 32.8578 77.7965 32.0088 77.8495 30.9209L79.3619 32.5129C79.2292 34.0252 78.8578 35.2988 78.2475 36.3335C77.6638 37.3683 76.8413 38.1642 75.78 38.7214C74.7453 39.2786 73.4717 39.5572 71.9594 39.5572ZM97.6592 39.6766C94.5549 39.6766 92.1272 39.0398 90.3761 37.7663C88.6249 36.4927 87.6963 34.7018 87.5902 32.3935H93.2415C93.3477 33.0833 93.7589 33.7068 94.4753 34.264C95.2182 34.7946 96.3193 35.06 97.7786 35.06C98.8929 35.06 99.8083 34.8742 100.525 34.5028C101.268 34.1048 101.639 33.5476 101.639 32.8313C101.639 32.1945 101.36 31.6904 100.803 31.3189C100.246 30.9209 99.2511 30.6424 97.8184 30.4832L96.107 30.324C93.4803 30.0586 91.5037 29.329 90.1771 28.1351C88.877 26.9411 88.227 25.4155 88.227 23.5583C88.227 22.0194 88.6117 20.7326 89.3811 19.6978C90.1505 18.6631 91.2118 17.8804 92.565 17.3497C93.9446 16.8191 95.51 16.5537 97.2612 16.5537C100.074 16.5537 102.342 17.1773 104.067 18.4243C105.791 19.6447 106.693 21.4224 106.773 23.7572H101.122C101.015 23.0409 100.644 22.4439 100.007 21.9663C99.3705 21.4622 98.4286 21.2101 97.1816 21.2101C96.1999 21.2101 95.4172 21.3959 94.8335 21.7673C94.2498 22.1388 93.9579 22.6429 93.9579 23.2797C93.9579 23.8899 94.21 24.3542 94.7141 24.6726C95.2182 24.991 96.0407 25.2165 97.1816 25.3492L98.8929 25.5084C101.573 25.8002 103.655 26.5431 105.141 27.7371C106.627 28.931 107.37 30.5362 107.37 32.5527C107.37 34.0119 106.972 35.2855 106.176 36.3733C105.38 37.4346 104.252 38.2571 102.793 38.8408C101.334 39.398 99.6225 39.6766 97.6592 39.6766ZM112.53 39V17.1905H118.898V39H112.53ZM109.625 21.8867V17.1905H118.898V21.8867H109.625ZM114.998 15.0414C113.804 15.0414 112.915 14.7363 112.331 14.126C111.774 13.4893 111.496 12.6933 111.496 11.7381C111.496 10.7565 111.774 9.96049 112.331 9.35025C112.915 8.71348 113.804 8.39509 114.998 8.39509C116.192 8.39509 117.067 8.71348 117.625 9.35025C118.208 9.96049 118.5 10.7565 118.5 11.7381C118.5 12.6933 118.208 13.4893 117.625 14.126C117.067 14.7363 116.192 15.0414 114.998 15.0414ZM124.788 39V17.1905H129.842V26.5431H129.484C129.484 24.3144 129.762 22.4572 130.32 20.9714C130.903 19.4856 131.779 18.3712 132.946 17.6283C134.114 16.8854 135.533 16.5139 137.205 16.5139H137.483C140.03 16.5139 141.967 17.3497 143.294 19.0212C144.647 20.6662 145.324 23.1735 145.324 26.5431V39H138.956V26.1849C138.956 25.0175 138.611 24.0624 137.921 23.3195C137.231 22.5766 136.303 22.2051 135.135 22.2051C133.941 22.2051 132.973 22.5898 132.23 23.3593C131.514 24.1022 131.155 25.0839 131.155 26.3043V39H124.788Z" fill="white"/>
</svg>
