<svg width="232" height="65" viewBox="0 0 232 65" fill="none" xmlns="http://www.w3.org/2000/svg">
<path d="M52.0708 15.8643L25.3212 15.9664C18.5205 15.9924 12.9833 21.5296 12.9573 28.3303L12.9303 28.809C12.9178 32.0834 15.5775 34.7431 18.877 34.7557L30.6146 34.7109L30.6166 34.2072C30.6291 30.9327 27.9693 28.273 24.6698 28.2604L39.7322 28.2029C46.5076 28.2022 52.0449 22.665 52.0708 15.8643Z" fill="#52EE98"/>
<path d="M52.0419 36.6695L52.0439 36.1658C52.0564 32.8914 49.3966 30.2316 46.0971 30.219L34.0824 30.2901L34.0804 30.7938C34.0679 34.0683 36.7277 36.728 40.0272 36.7406L25.2923 36.7717C18.4916 36.7976 12.9544 42.3348 12.9284 49.1356L39.678 49.0335C46.4787 49.0075 52.016 43.4703 52.0419 36.6695Z" fill="white"/>
<path d="M83.2173 27.173C83.1043 26.033 82.619 25.1473 81.7617 24.516C80.9043 23.8848 79.7406 23.5691 78.2708 23.5691C77.2721 23.5691 76.4288 23.7105 75.741 23.9931C75.0532 24.2664 74.5256 24.6479 74.1581 25.1379C73.8001 25.6278 73.6211 26.1837 73.6211 26.8056C73.6022 27.3238 73.7106 27.776 73.9461 28.1623C74.1911 28.5486 74.5256 28.8831 74.9496 29.1658C75.3736 29.439 75.8635 29.6793 76.4194 29.8866C76.9753 30.0844 77.5689 30.254 78.2002 30.3953L80.8006 31.0172C82.0632 31.2998 83.2221 31.6767 84.2773 32.1478C85.3326 32.6189 86.2465 33.1984 87.0191 33.8862C87.7917 34.574 88.39 35.3843 88.814 36.317C89.2474 37.2498 89.4688 38.3192 89.4782 39.5252C89.4688 41.2965 89.0166 42.8323 88.1215 44.1325C87.2358 45.4233 85.9544 46.4268 84.2773 47.1429C82.6096 47.8495 80.598 48.2028 78.2426 48.2028C75.9059 48.2028 73.8708 47.8448 72.1371 47.1287C70.4129 46.4127 69.0656 45.3527 68.0951 43.9488C67.1341 42.5355 66.63 40.7877 66.5829 38.7055H72.5046C72.5705 39.676 72.8485 40.4862 73.3384 41.1364C73.8378 41.7771 74.502 42.2623 75.3312 42.5921C76.1697 42.9124 77.1166 43.0726 78.1719 43.0726C79.2083 43.0726 80.1081 42.9218 80.8713 42.6203C81.6439 42.3188 82.2422 41.8995 82.6662 41.3625C83.0901 40.8254 83.3021 40.2083 83.3021 39.5111C83.3021 38.861 83.109 38.3145 82.7227 37.8717C82.3458 37.4288 81.7899 37.0519 81.055 36.741C80.3295 36.4301 79.4391 36.1474 78.3839 35.893L75.2322 35.1016C72.792 34.508 70.8652 33.58 69.4519 32.3174C68.0386 31.0549 67.3366 29.3542 67.3461 27.2154C67.3366 25.4629 67.803 23.9319 68.7452 22.6222C69.6968 21.3126 71.0018 20.2903 72.66 19.5554C74.3183 18.8205 76.2027 18.453 78.3132 18.453C80.4614 18.453 82.3364 18.8205 83.9381 19.5554C85.5493 20.2903 86.8024 21.3126 87.6975 22.6222C88.5926 23.9319 89.0542 25.4488 89.0825 27.173H83.2173ZM99.6716 48.2028C98.2866 48.2028 97.0523 47.9626 95.9688 47.482C94.8853 46.9921 94.0279 46.2713 93.3966 45.3197C92.7747 44.3587 92.4638 43.1621 92.4638 41.7299C92.4638 40.5239 92.6852 39.5111 93.1281 38.6914C93.5709 37.8717 94.1739 37.2121 94.9371 36.7128C95.7003 36.2134 96.5671 35.8365 97.5375 35.5821C98.5174 35.3277 99.5444 35.1487 100.619 35.0451C101.881 34.9132 102.899 34.7907 103.671 34.6776C104.444 34.5551 105.004 34.3761 105.353 34.1406C105.702 33.905 105.876 33.5564 105.876 33.0947V33.0099C105.876 32.1148 105.593 31.4223 105.028 30.9324C104.472 30.4424 103.681 30.1975 102.654 30.1975C101.57 30.1975 100.708 30.4377 100.067 30.9183C99.4266 31.3894 99.0026 31.9829 98.7954 32.699L93.227 32.2467C93.5096 30.9277 94.0655 29.7876 94.8947 28.8266C95.7238 27.8561 96.7932 27.1118 98.1028 26.5936C99.4219 26.0659 100.948 25.8021 102.682 25.8021C103.888 25.8021 105.042 25.9435 106.144 26.2261C107.256 26.5088 108.241 26.9469 109.098 27.5405C109.965 28.1341 110.648 28.8972 111.148 29.83C111.647 30.7534 111.897 31.8604 111.897 33.1513V47.793H106.187V44.7827H106.017C105.669 45.461 105.202 46.0593 104.618 46.5775C104.034 47.0863 103.332 47.4868 102.512 47.7788C101.693 48.0615 100.746 48.2028 99.6716 48.2028ZM101.396 44.0477C102.281 44.0477 103.064 43.8734 103.742 43.5248C104.42 43.1668 104.953 42.6863 105.339 42.0833C105.725 41.4803 105.918 40.7972 105.918 40.034V37.7303C105.73 37.8528 105.471 37.9659 105.141 38.0695C104.821 38.1637 104.458 38.2532 104.053 38.338C103.648 38.4134 103.243 38.4841 102.837 38.55C102.432 38.6066 102.065 38.6584 101.735 38.7055C101.028 38.8091 100.411 38.974 99.8836 39.2001C99.356 39.4263 98.9461 39.7325 98.654 40.1188C98.362 40.4957 98.2159 40.9668 98.2159 41.5321C98.2159 42.3518 98.5127 42.9784 99.1063 43.4118C99.7093 43.8357 100.472 44.0477 101.396 44.0477ZM122.758 48.2028C121.373 48.2028 120.138 47.9626 119.055 47.482C117.971 46.9921 117.114 46.2713 116.483 45.3197C115.861 44.3587 115.55 43.1621 115.55 41.7299C115.55 40.5239 115.771 39.5111 116.214 38.6914C116.657 37.8717 117.26 37.2121 118.023 36.7128C118.786 36.2134 119.653 35.8365 120.624 35.5821C121.604 35.3277 122.631 35.1487 123.705 35.0451C124.967 34.9132 125.985 34.7907 126.757 34.6776C127.53 34.5551 128.091 34.3761 128.439 34.1406C128.788 33.905 128.962 33.5564 128.962 33.0947V33.0099C128.962 32.1148 128.679 31.4223 128.114 30.9324C127.558 30.4424 126.767 30.1975 125.74 30.1975C124.656 30.1975 123.794 30.4377 123.153 30.9183C122.513 31.3894 122.089 31.9829 121.881 32.699L116.313 32.2467C116.596 30.9277 117.152 29.7876 117.981 28.8266C118.81 27.8561 119.879 27.1118 121.189 26.5936C122.508 26.0659 124.034 25.8021 125.768 25.8021C126.974 25.8021 128.128 25.9435 129.231 26.2261C130.342 26.5088 131.327 26.9469 132.184 27.5405C133.051 28.1341 133.734 28.8972 134.234 29.83C134.733 30.7534 134.983 31.8604 134.983 33.1513V47.793H129.273V44.7827H129.103C128.755 45.461 128.288 46.0593 127.704 46.5775C127.12 47.0863 126.418 47.4868 125.598 47.7788C124.779 48.0615 123.832 48.2028 122.758 48.2028ZM124.482 44.0477C125.368 44.0477 126.15 43.8734 126.828 43.5248C127.506 43.1668 128.039 42.6863 128.425 42.0833C128.811 41.4803 129.004 40.7972 129.004 40.034V37.7303C128.816 37.8528 128.557 37.9659 128.227 38.0695C127.907 38.1637 127.544 38.2532 127.139 38.338C126.734 38.4134 126.329 38.4841 125.924 38.55C125.518 38.6066 125.151 38.6584 124.821 38.7055C124.114 38.8091 123.497 38.974 122.97 39.2001C122.442 39.4263 122.032 39.7325 121.74 40.1188C121.448 40.4957 121.302 40.9668 121.302 41.5321C121.302 42.3518 121.599 42.9784 122.192 43.4118C122.795 43.8357 123.559 44.0477 124.482 44.0477ZM157.716 32.275L152.204 32.6142C152.109 32.1431 151.907 31.7191 151.596 31.3422C151.285 30.9559 150.875 30.6497 150.366 30.4236C149.867 30.1881 149.269 30.0703 148.572 30.0703C147.639 30.0703 146.852 30.2681 146.211 30.6639C145.571 31.0502 145.25 31.5684 145.25 32.2185C145.25 32.7367 145.458 33.1748 145.872 33.5328C146.287 33.8909 146.998 34.1782 148.006 34.395L151.935 35.1864C154.046 35.6198 155.619 36.317 156.656 37.2781C157.692 38.2391 158.21 39.5017 158.21 41.0657C158.21 42.4884 157.791 43.7368 156.952 44.8109C156.123 45.885 154.983 46.7236 153.532 47.3266C152.091 47.9202 150.428 48.217 148.543 48.217C145.67 48.217 143.38 47.6187 141.675 46.4221C139.979 45.2161 138.985 43.5766 138.693 41.5038L144.614 41.1929C144.793 42.0691 145.227 42.7381 145.915 43.1998C146.602 43.652 147.483 43.8781 148.557 43.8781C149.613 43.8781 150.461 43.6756 151.101 43.2704C151.751 42.8559 152.081 42.3235 152.091 41.6734C152.081 41.1269 151.85 40.6794 151.398 40.3308C150.946 39.9727 150.249 39.6995 149.306 39.5111L145.547 38.762C143.427 38.338 141.849 37.6031 140.813 36.5573C139.786 35.5115 139.272 34.1782 139.272 32.5577C139.272 31.1632 139.649 29.9619 140.403 28.9538C141.166 27.9456 142.235 27.1683 143.611 26.6218C144.996 26.0754 146.616 25.8021 148.473 25.8021C151.214 25.8021 153.372 26.3816 154.945 27.5405C156.528 28.6994 157.452 30.2776 157.716 32.275ZM173.548 26.0848V30.6073H160.475V26.0848H173.548ZM163.443 20.8839H169.464V41.1222C169.464 41.6781 169.548 42.1115 169.718 42.4225C169.888 42.724 170.123 42.936 170.425 43.0584C170.735 43.1809 171.094 43.2422 171.499 43.2422C171.781 43.2422 172.064 43.2186 172.347 43.1715C172.629 43.115 172.846 43.0726 172.997 43.0443L173.944 47.5244C173.642 47.6187 173.218 47.727 172.672 47.8495C172.125 47.9814 171.461 48.0615 170.679 48.0898C169.228 48.1463 167.956 47.9531 166.863 47.5103C165.78 47.0675 164.936 46.3797 164.333 45.4469C163.73 44.5141 163.433 43.3364 163.443 41.9137V20.8839ZM187.13 48.217C184.897 48.217 182.975 47.7647 181.363 46.8602C179.762 45.9463 178.527 44.6555 177.661 42.9878C176.794 41.3107 176.36 39.3273 176.36 37.0378C176.36 34.8048 176.794 32.845 177.661 31.1585C178.527 29.472 179.748 28.1576 181.321 27.2154C182.904 26.2732 184.76 25.8021 186.889 25.8021C188.322 25.8021 189.655 26.033 190.889 26.4946C192.133 26.9469 193.216 27.63 194.14 28.5439C195.072 29.4579 195.798 30.6073 196.316 31.9924C196.834 33.368 197.093 34.9791 197.093 36.8258V38.4794H178.763V34.7483H191.426C191.426 33.8815 191.238 33.1136 190.861 32.4446C190.484 31.7757 189.961 31.2527 189.292 30.8759C188.632 30.4896 187.865 30.2964 186.988 30.2964C186.074 30.2964 185.264 30.5084 184.557 30.9324C183.86 31.347 183.314 31.9076 182.918 32.6142C182.522 33.3114 182.32 34.0887 182.31 34.9461V38.4935C182.31 39.5676 182.508 40.4957 182.904 41.2777C183.309 42.0597 183.879 42.6627 184.614 43.0867C185.349 43.5107 186.22 43.7227 187.229 43.7227C187.898 43.7227 188.51 43.6285 189.066 43.44C189.622 43.2516 190.098 42.9689 190.493 42.5921C190.889 42.2152 191.191 41.7535 191.398 41.207L196.966 41.5745C196.684 42.9124 196.104 44.0807 195.228 45.0794C194.361 46.0688 193.24 46.8414 191.864 47.3972C190.498 47.9437 188.92 48.217 187.13 48.217ZM207.043 35.2429V47.793H201.022V26.0848H206.76V29.9148H207.015C207.495 28.6523 208.301 27.6535 209.431 26.9186C210.562 26.1743 211.933 25.8021 213.544 25.8021C215.052 25.8021 216.366 26.1319 217.487 26.7914C218.608 27.451 219.48 28.3932 220.102 29.618C220.724 30.8335 221.035 32.2844 221.035 33.971V47.793H215.014V35.0451C215.023 33.7166 214.684 32.6802 213.996 31.9358C213.309 31.1821 212.362 30.8052 211.156 30.8052C210.345 30.8052 209.629 30.9795 209.007 31.3281C208.395 31.6767 207.915 32.1855 207.566 32.8545C207.227 33.514 207.052 34.3102 207.043 35.2429Z" fill="white"/>
</svg>
