<svg width="50" height="50" viewBox="0 0 50 50" fill="none" xmlns="http://www.w3.org/2000/svg">
<path d="M25 50C38.8071 50 50 38.8071 50 25C50 11.1929 38.8071 0 25 0C11.1929 0 0 11.1929 0 25C0 38.8071 11.1929 50 25 50Z" fill="#03A9F4"/>
<path d="M41.1937 14.9578C39.9756 15.4898 38.6871 15.8433 37.3681 16.0072C38.7586 15.1826 39.798 13.8763 40.2891 12.3361C38.9877 13.1086 37.5636 13.6527 36.0786 13.9447C35.1686 12.9715 33.9868 12.2947 32.6869 12.0022C31.3871 11.7098 30.0293 11.8152 28.7902 12.3049C27.5511 12.7946 26.488 13.6458 25.7392 14.7479C24.9904 15.8499 24.5906 17.1518 24.5917 18.4842C24.5871 18.9927 24.6389 19.5002 24.7464 19.9973C22.1048 19.8676 19.5204 19.182 17.1618 17.9855C14.8033 16.7889 12.7237 15.1082 11.0589 13.0532C10.2031 14.5151 9.93801 16.2486 10.3177 17.8994C10.6974 19.5502 11.6932 20.9937 13.1016 21.9348C12.0504 21.9065 11.0214 21.6255 10.1016 21.1157V21.1881C10.1046 22.7204 10.635 24.205 11.6036 25.3923C12.5723 26.5797 13.9202 27.3973 15.4207 27.7078C14.8528 27.857 14.2677 27.93 13.6806 27.9249C13.2578 27.9328 12.8355 27.8953 12.4207 27.8131C12.8506 29.1309 13.6782 30.2832 14.7898 31.1114C15.9013 31.9396 17.2422 32.4031 18.6279 32.4381C16.2797 34.2736 13.3848 35.2706 10.4042 35.2703C9.87318 35.2749 9.34241 35.2441 8.81543 35.1782C11.8545 37.1376 15.3969 38.1729 19.0128 38.1585C31.2332 38.1585 37.9141 28.0368 37.9141 19.2638C37.9141 18.971 37.9141 18.6881 37.8911 18.4052C39.1922 17.4662 40.3113 16.298 41.1937 14.9578Z" fill="white"/>
</svg>
