<svg width="50" height="50" viewBox="0 0 50 50" fill="none" xmlns="http://www.w3.org/2000/svg">
<path d="M18.1611 26.2583C15.2991 26.2583 12.9707 28.5867 12.9707 31.4487V44.4193C12.9707 47.2814 15.2991 49.6098 18.1611 49.6098C21.0232 49.6099 23.3516 47.2815 23.3516 44.4194V31.4487C23.3516 28.5867 21.0232 26.2583 18.1611 26.2583Z" fill="#FF4340"/>
<path d="M10.0636 26.2583H5.03862C2.26783 26.2583 0.0136719 28.5126 0.0136719 31.2832C0.0136719 34.054 2.26792 36.3082 5.03862 36.3082C7.80932 36.3082 10.0636 34.0539 10.0636 31.2832V26.2583Z" fill="#FF4340"/>
<path d="M0 18.1611C0 21.0232 2.32838 23.3516 5.19045 23.3516H18.161C21.0232 23.3516 23.3516 21.0232 23.3516 18.1611C23.3516 15.2991 21.0232 12.9707 18.1611 12.9707H5.19045C2.32838 12.9706 0 15.2991 0 18.1611H0Z" fill="#36C6FF"/>
<path d="M18.3272 10.0636H23.3521V5.03862C23.3521 2.26783 21.0979 0.0136719 18.3272 0.0136719C15.5564 0.0136719 13.3022 2.26792 13.3022 5.03862C13.3022 7.80932 15.5564 10.0636 18.3272 10.0636Z" fill="#36C6FF"/>
<path d="M31.4487 23.3516C34.3108 23.3516 36.6392 21.0232 36.6392 18.1611V5.19045C36.6393 2.32838 34.3108 0 31.4487 0C28.5867 0 26.2583 2.32838 26.2583 5.19045V18.161C26.2583 21.0232 28.5867 23.3516 31.4487 23.3516Z" fill="#0DC46E"/>
<path d="M39.5469 23.3517H44.5718C47.3426 23.3517 49.5968 21.0974 49.5968 18.3267C49.5968 15.5559 47.3425 13.3018 44.5718 13.3018C41.8011 13.3018 39.5469 15.556 39.5469 18.3267V23.3517Z" fill="#0DC46E"/>
<path d="M49.6109 31.4487C49.6109 28.5867 47.2825 26.2583 44.4204 26.2583H31.4497C28.5877 26.2583 26.2593 28.5867 26.2593 31.4487C26.2593 34.3108 28.5877 36.6392 31.4497 36.6392H44.4203C47.2825 36.6393 49.6109 34.3108 49.6109 31.4487Z" fill="#FDCB02"/>
<path d="M31.2842 39.5464H26.2593V44.5713C26.2593 47.3421 28.5135 49.5963 31.2842 49.5963C34.055 49.5963 36.3092 47.342 36.3092 44.5713C36.3092 41.8006 34.055 39.5464 31.2842 39.5464Z" fill="#FDCB02"/>
</svg>
