<svg width="57" height="57" viewBox="0 0 57 57" fill="none" xmlns="http://www.w3.org/2000/svg">
<path fill-rule="evenodd" clip-rule="evenodd" d="M42.5994 29.4717C42.5994 31.7703 42.3154 34.0689 42.3154 34.0689C42.3154 34.0689 42.0385 36.0249 41.1865 36.8875C40.1073 38.0182 38.8968 38.0235 38.3412 38.0892C34.3671 38.3767 28.3996 38.3856 28.3996 38.3856C28.3996 38.3856 21.0157 38.3182 18.7437 38.1016C18.1119 37.9827 16.6919 38.0182 15.6127 36.8875C14.7607 36.0249 14.4838 34.0689 14.4838 34.0689C14.4838 34.0689 14.1998 31.7703 14.1998 29.4717V27.3169C14.1998 25.0183 14.4838 22.7215 14.4838 22.7215C14.4838 22.7215 14.7607 20.7637 15.6127 19.901C16.6919 18.7704 17.9024 18.765 18.458 18.6994C22.4321 18.4118 28.3943 18.4118 28.3943 18.4118H28.4049C28.4049 18.4118 34.3671 18.4118 38.3412 18.6994C38.8968 18.765 40.1073 18.7704 41.1865 19.901C42.0385 20.7637 42.3154 22.7215 42.3154 22.7215C42.3154 22.7215 42.5994 25.0183 42.5994 27.3169V29.4717ZM28.3996 0C12.7141 0 0 12.7141 0 28.3996C0 44.0833 12.7141 56.7992 28.3996 56.7992C44.0851 56.7992 56.7992 44.0833 56.7992 28.3996C56.7992 12.7141 44.0851 0 28.3996 0Z" fill="#EA412C"/>
<path fill-rule="evenodd" clip-rule="evenodd" d="M25.4676 32.0828L33.1408 28.1069L25.4658 24.1025L25.4676 32.0828Z" fill="#EA412C"/>
</svg>
