<svg width="44" height="44" viewBox="0 0 44 44" fill="none" xmlns="http://www.w3.org/2000/svg">
<path d="M21.9995 43.9727C34.1347 43.9727 43.9722 34.1352 43.9722 22C43.9722 9.86484 34.1347 0.0273438 21.9995 0.0273438C9.86435 0.0273438 0.0268555 9.86484 0.0268555 22C0.0268555 34.1352 9.86435 43.9727 21.9995 43.9727Z" fill="url(#paint0_linear_485_14950)"/>
<path d="M26.666 9.79297L17.3398 9.79297C13.1797 9.79297 9.80078 13.1719 9.80078 17.332L9.80078 26.6582C9.80078 30.8184 13.1797 34.1973 17.3398 34.1973H26.666C30.8262 34.1973 34.2051 30.8184 34.2051 26.6582V17.332C34.2051 13.1719 30.8262 9.79297 26.666 9.79297ZM31.4805 26.668C31.4805 29.3242 29.3223 31.4922 26.6563 31.4922L17.3301 31.4922C14.6738 31.4922 12.5059 29.334 12.5059 26.668L12.5059 17.3418C12.5059 14.6855 14.6641 12.5176 17.3301 12.5176L26.6563 12.5176C29.3125 12.5176 31.4805 14.6758 31.4805 17.3418L31.4805 26.668Z" fill="white"/>
<path d="M21.9976 15.7607C18.5601 15.7607 15.7573 18.5635 15.7573 22.001C15.7573 25.4385 18.5601 28.2412 21.9976 28.2412C25.4351 28.2412 28.2378 25.4385 28.2378 22.001C28.2378 18.5635 25.4351 15.7607 21.9976 15.7607ZM21.9976 25.79C19.9077 25.79 18.2085 24.0908 18.2085 22.001C18.2085 19.9111 19.9077 18.2119 21.9976 18.2119C24.0874 18.2119 25.7866 19.9111 25.7866 22.001C25.7866 24.0908 24.0874 25.79 21.9976 25.79Z" fill="white"/>
<path d="M28.7139 16.4459C29.2888 16.3527 29.6794 15.8111 29.5862 15.2362C29.493 14.6613 28.9513 14.2708 28.3764 14.364C27.8015 14.4572 27.411 14.9988 27.5042 15.5737C27.5974 16.1486 28.139 16.5391 28.7139 16.4459Z" fill="white"/>
<defs>
<linearGradient id="paint0_linear_485_14950" x1="5.26895" y1="38.7306" x2="36.4945" y2="7.50498" gradientUnits="userSpaceOnUse">
<stop stop-color="#FEE411"/>
<stop offset="0.0518459" stop-color="#FEDB16"/>
<stop offset="0.1381" stop-color="#FEC125"/>
<stop offset="0.2481" stop-color="#FE983D"/>
<stop offset="0.3762" stop-color="#FE5F5E"/>
<stop offset="0.5" stop-color="#FE2181"/>
<stop offset="1" stop-color="#9000DC"/>
</linearGradient>
</defs>
</svg>
