<svg width="489" height="498" viewBox="0 0 489 498" fill="none" xmlns="http://www.w3.org/2000/svg">
<path d="M384.737 244.452C384.737 309.978 329.887 363.388 261.862 363.388C193.837 363.388 138.987 309.978 138.987 244.452C138.987 178.925 193.837 125.516 261.862 125.516C329.887 125.516 384.737 178.925 384.737 244.452Z" stroke="#C2FF66" stroke-width="11"/>
<path d="M442.421 253.223C442.421 349.63 361.745 428.074 261.862 428.074C161.979 428.074 81.3022 349.63 81.3022 253.223C81.3022 156.816 161.979 78.373 261.862 78.373C361.745 78.373 442.421 156.816 442.421 253.223Z" stroke="#B1F6FB" stroke-width="11"/>
<path d="M506.892 248.838C506.892 382.786 394.819 491.662 256.206 491.662C117.594 491.662 5.52112 382.786 5.52112 248.838C5.52112 114.89 117.594 6.01367 256.206 6.01367C394.819 6.01367 506.892 114.89 506.892 248.838Z" stroke="#AA5FF5" stroke-width="11"/>
</svg>
