<svg width="60" height="60" viewBox="0 0 60 60" fill="none" xmlns="http://www.w3.org/2000/svg">
<circle cx="30" cy="30" r="30" fill="#DAF4DA"/>
<path fill-rule="evenodd" clip-rule="evenodd" d="M18 15C16.3432 15 15 16.3432 15 18V24.0001C15 25.657 16.3432 27.0001 18 27.0001H24.0001C25.657 27.0001 27.0001 25.657 27.0001 24.0001V18C27.0001 16.3432 25.657 15 24.0001 15H18ZM39.0003 27.0001C42.314 27.0001 45.0003 24.3138 45.0003 21.0001C45.0003 17.6863 42.314 15 39.0003 15C35.6865 15 33.0002 17.6863 33.0002 21.0001C33.0002 24.3138 35.6865 27.0001 39.0003 27.0001ZM27.0001 39.0003C27.0001 42.314 24.3138 45.0003 21.0001 45.0003C17.6863 45.0003 15 42.314 15 39.0003C15 35.6865 17.6863 33.0002 21.0001 33.0002C24.3138 33.0002 27.0001 35.6865 27.0001 39.0003ZM36.0002 33.0002C34.3434 33.0002 33.0002 34.3434 33.0002 36.0002V42.0003C33.0002 43.6572 34.3434 45.0003 36.0002 45.0003H42.0003C43.6572 45.0003 45.0003 43.6572 45.0003 42.0003V36.0002C45.0003 34.3434 43.6572 33.0002 42.0003 33.0002H36.0002Z" fill="url(#paint0_linear_282_6850)"/>
<path d="M15.75 18C15.75 16.7574 16.7574 15.75 18 15.75V14.25C15.9289 14.25 14.25 15.9289 14.25 18H15.75ZM15.75 24.0001V18H14.25V24.0001H15.75ZM18 26.2501C16.7574 26.2501 15.75 25.2428 15.75 24.0001H14.25C14.25 26.0712 15.9289 27.7501 18 27.7501V26.2501ZM24.0001 26.2501H18V27.7501H24.0001V26.2501ZM26.2501 24.0001C26.2501 25.2428 25.2428 26.2501 24.0001 26.2501V27.7501C26.0712 27.7501 27.7501 26.0712 27.7501 24.0001H26.2501ZM26.2501 18V24.0001H27.7501V18H26.2501ZM24.0001 15.75C25.2428 15.75 26.2501 16.7574 26.2501 18H27.7501C27.7501 15.9289 26.0712 14.25 24.0001 14.25V15.75ZM18 15.75H24.0001V14.25H18V15.75ZM44.2503 21.0001C44.2503 23.8996 41.8998 26.2501 39.0003 26.2501V27.7501C42.7282 27.7501 45.7503 24.728 45.7503 21.0001H44.2503ZM39.0003 15.75C41.8998 15.75 44.2503 18.1005 44.2503 21.0001H45.7503C45.7503 17.2721 42.7282 14.25 39.0003 14.25V15.75ZM33.7502 21.0001C33.7502 18.1005 36.1007 15.75 39.0003 15.75V14.25C35.2723 14.25 32.2502 17.2721 32.2502 21.0001H33.7502ZM39.0003 26.2501C36.1007 26.2501 33.7502 23.8996 33.7502 21.0001H32.2502C32.2502 24.728 35.2723 27.7501 39.0003 27.7501V26.2501ZM21.0001 45.7503C24.728 45.7503 27.7501 42.7282 27.7501 39.0003H26.2501C26.2501 41.8998 23.8996 44.2503 21.0001 44.2503V45.7503ZM14.25 39.0003C14.25 42.7282 17.2721 45.7503 21.0001 45.7503V44.2503C18.1005 44.2503 15.75 41.8998 15.75 39.0003H14.25ZM21.0001 32.2502C17.2721 32.2502 14.25 35.2723 14.25 39.0003H15.75C15.75 36.1007 18.1005 33.7502 21.0001 33.7502V32.2502ZM27.7501 39.0003C27.7501 35.2723 24.728 32.2502 21.0001 32.2502V33.7502C23.8996 33.7502 26.2501 36.1007 26.2501 39.0003H27.7501ZM33.7502 36.0002C33.7502 34.7576 34.7576 33.7502 36.0002 33.7502V32.2502C33.9291 32.2502 32.2502 33.9291 32.2502 36.0002H33.7502ZM33.7502 42.0003V36.0002H32.2502V42.0003H33.7502ZM36.0002 44.2503C34.7576 44.2503 33.7502 43.243 33.7502 42.0003H32.2502C32.2502 44.0714 33.9291 45.7503 36.0002 45.7503V44.2503ZM42.0003 44.2503H36.0002V45.7503H42.0003V44.2503ZM44.2503 42.0003C44.2503 43.243 43.243 44.2503 42.0003 44.2503V45.7503C44.0714 45.7503 45.7503 44.0714 45.7503 42.0003H44.2503ZM44.2503 36.0002V42.0003H45.7503V36.0002H44.2503ZM42.0003 33.7502C43.243 33.7502 44.2503 34.7576 44.2503 36.0002H45.7503C45.7503 33.9291 44.0714 32.2502 42.0003 32.2502V33.7502ZM36.0002 33.7502H42.0003V32.2502H36.0002V33.7502Z" fill="url(#paint1_linear_282_6850)"/>
<defs>
<linearGradient id="paint0_linear_282_6850" x1="45.0003" y1="15" x2="23.8473" y2="39.7395" gradientUnits="userSpaceOnUse">
<stop stop-color="#9BF763"/>
<stop offset="1" stop-color="#26AB5B"/>
</linearGradient>
<linearGradient id="paint1_linear_282_6850" x1="45.0003" y1="15" x2="23.8473" y2="39.7395" gradientUnits="userSpaceOnUse">
<stop stop-color="#9BF763"/>
<stop offset="1" stop-color="#71FFAA"/>
</linearGradient>
</defs>
</svg>
