<svg width="60" height="60" viewBox="0 0 60 60" fill="none" xmlns="http://www.w3.org/2000/svg">
<circle opacity="0.2" cx="30" cy="30" r="30" fill="#BCA3EA"/>
<path d="M25.4839 43.0572C25.4862 42.3755 25.3017 41.7068 24.9512 41.1202L24.95 41.1183C23.8535 39.2962 21.4752 38.6831 19.6086 39.7127L19.6086 39.7127L19.6019 39.7165C18.4317 40.378 16.942 39.9865 16.2688 38.871L15.279 37.108L15.2745 37.1002L15.2699 37.0924C14.9518 36.5565 14.8668 35.922 15.0309 35.3273C15.1949 34.7333 15.5961 34.2211 16.1535 33.9081C16.7531 33.581 17.2511 33.0974 17.59 32.5084C18.6875 30.6597 18.0348 28.3031 16.1609 27.2401L16.1599 27.2395C15.0015 26.5849 14.6189 25.1597 15.2716 24.0487L15.2717 24.0488L15.2765 24.0404L16.2712 22.2964C16.2713 22.2963 16.2714 22.2962 16.2714 22.2961C16.5865 21.7456 17.1206 21.3368 17.7573 21.1702C18.3944 21.0036 19.0731 21.0957 19.6369 21.4232L19.6369 21.4232L19.6443 21.4274C20.8565 22.1131 22.3503 22.1141 23.5634 21.4299C24.7773 20.7452 25.5325 19.473 25.5266 18.0883C25.5342 16.8132 26.6034 15.75 27.9614 15.75H30.0514C30.7016 15.75 31.3211 16.0025 31.7739 16.4455C32.226 16.8878 32.4748 17.4831 32.472 18.0985L32.472 18.0985L32.472 18.1064C32.476 18.7829 32.6587 19.4459 33.0011 20.0315L33.0033 20.0353C33.5284 20.9213 34.3897 21.5622 35.393 21.824C36.3959 22.0858 37.465 21.9493 38.3668 21.4422L38.3672 21.4419C38.9261 21.1272 39.5931 21.0412 40.2194 21.2052C40.8438 21.3687 41.37 21.7654 41.6873 22.3009L42.7226 24.1105L42.7225 24.1106L42.7286 24.1209C43.0468 24.6568 43.1318 25.2913 42.9676 25.886C42.8033 26.4812 42.4008 26.9943 41.8416 27.3071L41.8382 27.309C41.2432 27.6458 40.7485 28.1325 40.4073 28.7209L40.4046 28.7256C39.3627 30.5521 40.0088 32.8453 41.8319 33.9007L41.8319 33.9007L24.7339 43.056M25.4839 43.0572C25.4839 43.0577 25.4839 43.0583 25.4839 43.0588L24.7339 43.056M25.4839 43.0572C25.4839 43.0568 25.4839 43.0564 25.4839 43.056L24.7339 43.056M25.4839 43.0572C25.4842 43.6776 25.7387 44.2765 26.1977 44.7196C26.6576 45.1636 27.2848 45.4137 27.9407 45.408L27.9472 45.408L30.0372 45.408C31.399 45.408 32.4695 44.3389 32.472 43.0604M24.7339 43.056C24.7339 43.8835 25.0733 44.6767 25.6767 45.2592C26.2802 45.8417 27.0976 46.1653 27.9472 46.158H30.0372C31.7961 46.158 33.222 44.7691 33.222 43.056M32.472 43.0604C32.472 43.0624 32.472 43.0643 32.4721 43.0663L33.222 43.056M32.472 43.0604C32.472 43.0589 32.472 43.0574 32.472 43.056H33.222M32.472 43.0604C32.4594 42.0291 32.871 41.0397 33.6085 40.3117C34.3463 39.5835 35.3485 39.1768 36.3903 39.1763M33.222 43.056C33.2106 42.2298 33.5396 41.4336 34.1354 40.8454C34.7313 40.2573 35.5442 39.9262 36.3926 39.9263M36.3926 39.9263L36.388 39.1763C36.3888 39.1763 36.3895 39.1763 36.3903 39.1763M36.3926 39.9263C36.9521 39.9229 37.5021 40.0664 37.985 40.3418M36.3926 39.9263L36.3926 39.1763C36.3919 39.1763 36.3911 39.1763 36.3903 39.1763M36.3903 39.1763C37.0785 39.1725 37.7563 39.3488 38.3529 39.6882M37.985 40.3418L38.3501 39.6866C38.351 39.6871 38.352 39.6877 38.3529 39.6882M37.985 40.3418C39.5051 41.189 41.4424 40.6817 42.3214 39.2062M37.985 40.3418L38.3565 39.6902C38.3553 39.6895 38.3541 39.6889 38.3529 39.6882M38.3529 39.6882C39.5256 40.3399 41.01 39.9409 41.6765 38.8234L42.3214 39.2062M42.3214 39.2062L41.6771 38.8224L42.2077 33.2516C43.7039 34.1015 44.223 35.9635 43.3736 37.4337M42.3214 39.2062L43.3736 37.4337M43.3736 37.4337L42.7286 37.0509L42.7262 37.0549C42.7255 37.0561 42.7248 37.0573 42.7242 37.0585L43.3736 37.4337Z" fill="#BCA3EA" stroke="url(#paint0_linear_282_6868)" stroke-width="1.5"/>
<path d="M29.0002 34.4741C31.1512 34.4741 32.895 32.7303 32.895 30.5793C32.895 28.4283 31.1512 26.6846 29.0002 26.6846C26.8492 26.6846 25.1055 28.4283 25.1055 30.5793C25.1055 32.7303 26.8492 34.4741 29.0002 34.4741Z" fill="#935AFD"/>
<defs>
<linearGradient id="paint0_linear_282_6868" x1="17.5268" y1="21.8837" x2="42.7671" y2="35.6511" gradientUnits="userSpaceOnUse">
<stop stop-color="#E3D5FF"/>
<stop offset="1" stop-color="#BCA3EA"/>
</linearGradient>
</defs>
</svg>
