<svg width="21" height="20" viewBox="0 0 21 20" fill="none" xmlns="http://www.w3.org/2000/svg">
<path d="M17.8822 19.9938C17.4558 19.9567 17.0293 19.9259 16.6029 19.8764C13.8464 19.5675 11.2877 18.684 8.93298 17.2135C6.46082 15.6688 4.45836 13.6546 2.93798 11.177C1.70808 9.18134 0.898442 7.0312 0.496715 4.72042C0.323663 3.72567 0.237137 2.72475 0.224777 1.71146C0.212416 0.691999 0.886081 0 1.90585 0C3.06777 0 4.22351 0 5.38543 0C6.37429 0 7.0356 0.630213 7.06032 1.61878C7.09122 2.80507 7.25809 3.96046 7.61656 5.09113C7.81433 5.72135 7.68454 6.26506 7.26427 6.77788C6.70185 7.46988 6.1827 8.19277 5.65118 8.90948C5.62028 8.95273 5.6141 9.04541 5.63882 9.09484C6.80074 11.3129 8.44473 13.0677 10.6326 14.2972C10.8304 14.4084 11.0343 14.6061 11.2259 14.5938C11.4113 14.5814 11.5844 14.359 11.7636 14.2292C12.3878 13.7597 13.0059 13.2777 13.6301 12.8143C14.0195 12.5239 14.4583 12.4498 14.928 12.561C15.5275 12.7031 16.1208 12.8947 16.7265 12.9935C17.3322 13.0924 17.9564 13.1233 18.5683 13.1603C19.2419 13.1974 19.7611 13.4569 20.0639 14.0748C20.1319 14.2169 20.169 14.3775 20.2246 14.532C20.2246 15.8974 20.2246 17.2629 20.2246 18.6345C20.1134 18.8817 20.033 19.1474 19.8909 19.3698C19.656 19.7405 19.2666 19.895 18.8587 20C18.5312 19.9938 18.2036 19.9938 17.8822 19.9938Z" fill="#A4DB74"/>
</svg>
