<svg width="36" height="36" viewBox="0 0 36 36" fill="none" xmlns="http://www.w3.org/2000/svg">
<circle cx="18" cy="17.9999" r="18" fill="#405C5C"/>
<path d="M24.937 11.5389V13.6789H24.5666C23.6886 13.6789 22.989 13.8298 22.4677 14.1316C21.9464 14.4334 21.5623 14.9136 21.3154 15.572C21.0959 16.203 20.9862 17.0124 20.9862 18.0001V21.0866L19.9985 19.2347C20.1905 19.125 20.4375 19.0427 20.7393 18.9878C21.0685 18.9329 21.384 18.9055 21.6858 18.9055C22.454 18.9055 23.085 19.1524 23.5789 19.6462C24.1002 20.1127 24.3608 20.7711 24.3608 21.6216C24.3608 22.4173 24.1139 23.0757 23.62 23.597C23.1536 24.1183 22.5089 24.3789 21.6858 24.3789C21.1645 24.3789 20.6707 24.2555 20.2043 24.0086C19.7379 23.7616 19.3538 23.3227 19.052 22.6916C18.7502 22.0606 18.5993 21.1552 18.5993 19.9755V19.1112C18.5993 17.1084 18.8462 15.5583 19.34 14.4609C19.8339 13.3634 20.5335 12.6089 21.4389 12.1974C22.3443 11.7584 23.4143 11.5389 24.6489 11.5389H24.937ZM16.9531 11.5389V13.6789H16.5827C15.7048 13.6789 15.0052 13.8298 14.4839 14.1316C13.9626 14.4334 13.5785 14.9136 13.3316 15.572C13.1121 16.203 13.0023 17.0124 13.0023 18.0001V21.0866L12.0146 19.2347C12.2067 19.125 12.4536 19.0427 12.7554 18.9878C13.0846 18.9329 13.4002 18.9055 13.702 18.9055C14.4702 18.9055 15.1012 19.1524 15.595 19.6462C16.1163 20.1127 16.377 20.7711 16.377 21.6216C16.377 22.4173 16.13 23.0757 15.6362 23.597C15.1698 24.1183 14.525 24.3789 13.702 24.3789C13.1807 24.3789 12.6868 24.2555 12.2204 24.0086C11.754 23.7616 11.3699 23.3227 11.0681 22.6916C10.7663 22.0606 10.6154 21.1552 10.6154 19.9755V19.1112C10.6154 17.1084 10.8623 15.5583 11.3562 14.4609C11.85 13.3634 12.5496 12.6089 13.455 12.1974C14.3604 11.7584 15.4304 11.5389 16.665 11.5389H16.9531Z" fill="#FBFE74"/>
</svg>
