<svg width="60" height="60" viewBox="0 0 60 60" fill="none" xmlns="http://www.w3.org/2000/svg">
<circle opacity="0.2" cx="30" cy="30" r="30" fill="#F23936"/>
<path d="M39.8399 20.22L31.8935 18.047C29.0112 17.2587 26.8808 18.5223 26.1059 21.4736L23.4816 31.4697C22.694 34.4694 23.9302 36.6121 26.8125 37.4003L34.7588 39.5734C37.6876 40.3744 39.7604 39.1366 40.548 36.1368L43.1724 26.1408C43.9472 23.1894 42.7686 21.021 39.8399 20.22Z" fill="url(#paint0_linear_184_6570)"/>
<g opacity="0.5" filter="url(#filter0_f_184_6570)">
<path d="M37.7798 22.9359L32.346 21.45C30.3751 20.911 28.9183 21.775 28.3885 23.7932L26.5939 30.6285C26.0554 32.6797 26.9007 34.1449 28.8716 34.6839L34.3053 36.1698C36.308 36.7175 37.7255 35.8711 38.264 33.8199L40.0585 26.9846C40.5884 24.9664 39.7825 23.4836 37.7798 22.9359Z" fill="#F86652"/>
</g>
<g filter="url(#filter1_b_184_6570)">
<mask id="path-4-outside-1_184_6570" maskUnits="userSpaceOnUse" x="14.5996" y="19.1475" width="25" height="26" fill="black">
<rect fill="white" x="14.5996" y="19.1475" width="25" height="26"/>
<path fill-rule="evenodd" clip-rule="evenodd" d="M15.5997 31.6147V36.3175C15.5994 36.828 15.6397 37.3376 15.7202 37.8415C15.8466 38.7319 16.1471 39.5874 16.6038 40.3575C16.8119 40.7292 17.0649 41.0728 17.357 41.3803C18.6994 42.6333 20.4791 43.2854 22.2975 43.1906H31.4757C33.2912 43.2861 35.0681 42.6337 36.4062 41.3803C36.7018 41.0734 36.9582 40.7298 37.1694 40.3575C37.6288 39.5869 37.9359 38.7321 38.0732 37.8415C38.1453 37.3368 38.1822 36.8275 38.1836 36.3175V30.2626C38.218 29.1033 38.0514 27.947 37.6916 26.8465C37.5087 26.3111 37.2295 25.8151 36.8682 25.384C36.7546 25.2478 36.6303 25.1212 36.4966 25.0055C35.3358 24.0737 33.8732 23.621 32.3996 23.7373H29.0139C28.2124 23.7213 27.4564 23.3485 26.9468 22.715L25.8523 21.1706C25.3363 20.5124 24.5502 20.1347 23.7234 20.1478H21.3736C17.1561 20.1478 15.5996 22.6741 15.5996 26.9698V31.6132C15.5996 31.6137 15.5996 31.6142 15.5997 31.6147Z"/>
</mask>
<path fill-rule="evenodd" clip-rule="evenodd" d="M15.5997 31.6147V36.3175C15.5994 36.828 15.6397 37.3376 15.7202 37.8415C15.8466 38.7319 16.1471 39.5874 16.6038 40.3575C16.8119 40.7292 17.0649 41.0728 17.357 41.3803C18.6994 42.6333 20.4791 43.2854 22.2975 43.1906H31.4757C33.2912 43.2861 35.0681 42.6337 36.4062 41.3803C36.7018 41.0734 36.9582 40.7298 37.1694 40.3575C37.6288 39.5869 37.9359 38.7321 38.0732 37.8415C38.1453 37.3368 38.1822 36.8275 38.1836 36.3175V30.2626C38.218 29.1033 38.0514 27.947 37.6916 26.8465C37.5087 26.3111 37.2295 25.8151 36.8682 25.384C36.7546 25.2478 36.6303 25.1212 36.4966 25.0055C35.3358 24.0737 33.8732 23.621 32.3996 23.7373H29.0139C28.2124 23.7213 27.4564 23.3485 26.9468 22.715L25.8523 21.1706C25.3363 20.5124 24.5502 20.1347 23.7234 20.1478H21.3736C17.1561 20.1478 15.5996 22.6741 15.5996 26.9698V31.6132C15.5996 31.6137 15.5996 31.6142 15.5997 31.6147Z" fill="#FFAC95" fill-opacity="0.4"/>
<path d="M15.5997 31.6147H16.5997C16.5997 31.5893 16.5987 31.5639 16.5968 31.5386L15.5997 31.6147ZM15.5997 36.3175L16.5997 36.3179V36.3175H15.5997ZM15.7202 37.8415L16.7102 37.7008C16.7094 37.6952 16.7086 37.6895 16.7077 37.6838L15.7202 37.8415ZM16.6038 40.3575L17.4764 39.8691C17.4724 39.8618 17.4682 39.8546 17.464 39.8474L16.6038 40.3575ZM17.357 41.3803L16.6319 42.069C16.6457 42.0835 16.66 42.0976 16.6746 42.1113L17.357 41.3803ZM22.2975 43.1906V42.1906C22.2802 42.1906 22.2628 42.1911 22.2455 42.192L22.2975 43.1906ZM31.4757 43.1906L31.5282 42.192C31.5107 42.1911 31.4932 42.1906 31.4757 42.1906V43.1906ZM36.4062 41.3803L37.0899 42.1101C37.1024 42.0984 37.1146 42.0864 37.1265 42.074L36.4062 41.3803ZM37.1694 40.3575L36.3105 39.8454C36.3068 39.8516 36.3032 39.8578 36.2996 39.8641L37.1694 40.3575ZM38.0732 37.8415L39.0616 37.9938L39.0631 37.9829L38.0732 37.8415ZM38.1836 36.3175L39.1836 36.3204V36.3175H38.1836ZM38.1836 30.2626L37.1841 30.233C37.1838 30.2429 37.1836 30.2528 37.1836 30.2626H38.1836ZM37.6916 26.8465L38.6421 26.5357L38.6379 26.5233L37.6916 26.8465ZM36.8682 25.384L36.1003 26.0246L36.1017 26.0262L36.8682 25.384ZM36.4966 25.0055L37.151 24.2494C37.1417 24.2413 37.1322 24.2334 37.1226 24.2257L36.4966 25.0055ZM32.3996 23.7373V24.7373C32.4258 24.7373 32.4521 24.7363 32.4783 24.7342L32.3996 23.7373ZM29.0139 23.7373L28.994 24.7371C29.0007 24.7372 29.0073 24.7373 29.0139 24.7373V23.7373ZM26.9468 22.715L26.131 23.2932C26.1427 23.3097 26.1549 23.3259 26.1676 23.3417L26.9468 22.715ZM25.8523 21.1706L26.6681 20.5923C26.6588 20.5792 26.6492 20.5663 26.6393 20.5536L25.8523 21.1706ZM23.7234 20.1478V21.1478C23.7287 21.1478 23.734 21.1477 23.7392 21.1477L23.7234 20.1478ZM15.5996 31.6132L16.5996 31.6235V31.6132H15.5996ZM14.5997 31.6147V36.3175H16.5997V31.6147H14.5997ZM14.5997 36.3171C14.5994 36.8805 14.6439 37.4429 14.7327 37.9991L16.7077 37.6838C16.6356 37.2323 16.5995 36.7755 16.5997 36.3179L14.5997 36.3171ZM14.7301 37.9821C14.875 39.0024 15.2195 39.9836 15.7437 40.8676L17.464 39.8474C17.0748 39.1912 16.8182 38.4613 16.7102 37.7008L14.7301 37.9821ZM15.7312 40.846C15.9798 41.2899 16.2823 41.7009 16.6319 42.069L18.082 40.6916C17.8475 40.4447 17.644 40.1684 17.4764 39.8691L15.7312 40.846ZM16.6746 42.1113C18.2135 43.5477 20.2576 44.2983 22.3496 44.1893L22.2455 42.192C20.7006 42.2725 19.1852 41.7189 18.0393 40.6493L16.6746 42.1113ZM22.2975 44.1906H31.4757V42.1906H22.2975V44.1906ZM31.4232 44.1892C33.513 44.2992 35.5551 43.5478 37.0899 42.1101L35.7226 40.6505C34.5812 41.7196 33.0694 42.2731 31.5282 42.192L31.4232 44.1892ZM37.1265 42.074C37.4804 41.7066 37.7869 41.2956 38.0392 40.8509L36.2996 39.8641C36.1295 40.1639 35.9233 40.4402 35.686 40.6866L37.1265 42.074ZM38.0284 40.8696C38.5539 39.988 38.9047 39.011 39.0615 37.9938L37.0848 37.6891C36.967 38.4533 36.7037 39.1858 36.3105 39.8454L38.0284 40.8696ZM39.0631 37.9829C39.1418 37.4323 39.182 36.8767 39.1836 36.3204L37.1836 36.3147C37.1823 36.7783 37.1488 37.2413 37.0832 37.7L39.0631 37.9829ZM39.1836 36.3175V30.2626H37.1836V36.3175H39.1836ZM39.1832 30.2922C39.2209 29.0177 39.0378 27.7461 38.6421 26.5358L36.7411 27.1573C37.065 28.1478 37.215 29.189 37.1841 30.233L39.1832 30.2922ZM38.6379 26.5233C38.4155 25.8721 38.0755 25.2678 37.6346 24.7417L36.1017 26.0262C36.3835 26.3625 36.602 26.7502 36.7453 27.1698L38.6379 26.5233ZM37.636 24.7434C37.4879 24.5658 37.3257 24.4006 37.151 24.2494L35.8422 25.7617C35.9349 25.8419 36.0212 25.9298 36.1003 26.0246L37.636 24.7434ZM37.1226 24.2257C35.7646 23.1357 34.0504 22.6039 32.3209 22.7404L32.4783 24.7342C33.6959 24.6381 34.9069 25.0118 35.8706 25.7854L37.1226 24.2257ZM32.3996 22.7373H29.0139V24.7373H32.3996V22.7373ZM29.0338 22.7375C28.5315 22.7275 28.0523 22.4939 27.7261 22.0883L26.1676 23.3417C26.8604 24.2032 27.8933 24.7152 28.994 24.7371L29.0338 22.7375ZM27.7627 22.1367L26.6681 20.5923L25.0364 21.7488L26.131 23.2932L27.7627 22.1367ZM26.6393 20.5536C25.9329 19.6526 24.8513 19.1298 23.7076 19.1479L23.7392 21.1477C24.2491 21.1396 24.7397 21.3722 25.0653 21.7875L26.6393 20.5536ZM23.7234 19.1478H21.3736V21.1478H23.7234V19.1478ZM21.3736 19.1478C19.0565 19.1478 17.2776 19.8522 16.1181 21.3308C14.9985 22.7587 14.5996 24.734 14.5996 26.9698H16.5996C16.5996 24.9098 16.979 23.4742 17.692 22.565C18.3651 21.7065 19.4732 21.1478 21.3736 21.1478V19.1478ZM14.5996 26.9698V31.6132H16.5996V26.9698H14.5996ZM14.5997 31.6029C14.5994 31.6325 14.6003 31.6618 14.6026 31.6908L16.5968 31.5386C16.5989 31.5666 16.5999 31.5949 16.5996 31.6235L14.5997 31.6029Z" fill="url(#paint1_linear_184_6570)" mask="url(#path-4-outside-1_184_6570)"/>
</g>
<g filter="url(#filter2_bd_184_6570)">
<path d="M32.6029 38.1245H21.2356C20.7199 38.1245 20.3018 37.6987 20.3018 37.1734C20.3018 36.648 20.7199 36.2222 21.2356 36.2222H32.6933C32.9715 36.2254 33.2319 36.3618 33.3962 36.5904C33.5391 36.7605 33.6112 36.9806 33.5971 37.204C33.5893 37.4582 33.4819 37.6986 33.2988 37.8715C33.1158 38.0445 32.8724 38.1356 32.623 38.1245H32.6029Z" fill="url(#paint2_linear_184_6570)"/>
<path d="M33.2339 36.7071L33.2383 36.7132L33.2431 36.719C33.3526 36.8494 33.4084 37.0189 33.3975 37.1914L33.3974 37.1914L33.3972 37.1979C33.391 37.3998 33.3056 37.5899 33.1615 37.7262C33.0174 37.8623 32.8267 37.9334 32.6319 37.9247L32.6319 37.9245H32.623H32.6029H21.2356C20.8338 37.9245 20.5018 37.5917 20.5018 37.1734C20.5018 36.755 20.8338 36.4222 21.2356 36.4222H32.6921C32.9054 36.425 33.1063 36.5297 33.2339 36.7071Z" stroke="url(#paint3_linear_184_6570)" stroke-width="0.4"/>
</g>
<defs>
<filter id="filter0_f_184_6570" x="11.4346" y="6.29297" width="43.7822" height="45.0396" filterUnits="userSpaceOnUse" color-interpolation-filters="sRGB">
<feFlood flood-opacity="0" result="BackgroundImageFix"/>
<feBlend mode="normal" in="SourceGraphic" in2="BackgroundImageFix" result="shape"/>
<feGaussianBlur stdDeviation="7.5" result="effect1_foregroundBlur_184_6570"/>
</filter>
<filter id="filter1_b_184_6570" x="-0.400391" y="4.14746" width="54.5889" height="55.0522" filterUnits="userSpaceOnUse" color-interpolation-filters="sRGB">
<feFlood flood-opacity="0" result="BackgroundImageFix"/>
<feGaussianBlur in="BackgroundImageFix" stdDeviation="7.5"/>
<feComposite in2="SourceAlpha" operator="in" result="effect1_backgroundBlur_184_6570"/>
<feBlend mode="normal" in="SourceGraphic" in2="effect1_backgroundBlur_184_6570" result="shape"/>
</filter>
<filter id="filter2_bd_184_6570" x="5.30176" y="21.2222" width="43.2969" height="31.9033" filterUnits="userSpaceOnUse" color-interpolation-filters="sRGB">
<feFlood flood-opacity="0" result="BackgroundImageFix"/>
<feGaussianBlur in="BackgroundImageFix" stdDeviation="7.5"/>
<feComposite in2="SourceAlpha" operator="in" result="effect1_backgroundBlur_184_6570"/>
<feColorMatrix in="SourceAlpha" type="matrix" values="0 0 0 0 0 0 0 0 0 0 0 0 0 0 0 0 0 0 127 0" result="hardAlpha"/>
<feOffset dx="5" dy="5"/>
<feGaussianBlur stdDeviation="5"/>
<feColorMatrix type="matrix" values="0 0 0 0 0.976471 0 0 0 0 0.435294 0 0 0 0 0.352941 0 0 0 0.5 0"/>
<feBlend mode="normal" in2="effect1_backgroundBlur_184_6570" result="effect2_dropShadow_184_6570"/>
<feBlend mode="normal" in="SourceGraphic" in2="effect2_dropShadow_184_6570" result="shape"/>
</filter>
<linearGradient id="paint0_linear_184_6570" x1="27.7796" y1="22.5896" x2="35.6577" y2="50.2021" gradientUnits="userSpaceOnUse">
<stop stop-color="#FFA78F"/>
<stop offset="1" stop-color="#F23E2C"/>
</linearGradient>
<linearGradient id="paint1_linear_184_6570" x1="19.1953" y1="22.8331" x2="33.9605" y2="40.7521" gradientUnits="userSpaceOnUse">
<stop stop-color="white" stop-opacity="0.25"/>
<stop offset="1" stop-color="white" stop-opacity="0"/>
</linearGradient>
<linearGradient id="paint2_linear_184_6570" x1="32.6561" y1="36.5659" x2="18.5601" y2="39.7768" gradientUnits="userSpaceOnUse">
<stop stop-color="white"/>
<stop offset="1" stop-color="white" stop-opacity="0.2"/>
</linearGradient>
<linearGradient id="paint3_linear_184_6570" x1="22.4184" y1="36.4439" x2="22.7017" y2="38.8951" gradientUnits="userSpaceOnUse">
<stop stop-color="white" stop-opacity="0.25"/>
<stop offset="1" stop-color="white" stop-opacity="0"/>
</linearGradient>
</defs>
</svg>
