<svg width="60" height="60" viewBox="0 0 60 60" fill="none" xmlns="http://www.w3.org/2000/svg">
<circle cx="30" cy="30" r="30" fill="#DAF4DA"/>
<path d="M39.6491 20.2498L32.0653 18.185C29.3145 17.4361 27.2813 18.6366 26.5418 21.4409L24.0372 30.9388C23.2856 33.7891 24.4653 35.825 27.2161 36.5739L34.7999 38.6387C37.595 39.3997 39.5733 38.2236 40.3249 35.3733L42.8295 25.8755C43.569 23.0712 42.4442 21.0108 39.6491 20.2498Z" fill="url(#paint0_linear_210_4613)"/>
<g opacity="0.5" filter="url(#filter0_f_210_4613)">
<path d="M37.6674 22.8508L32.5005 21.4441C30.6264 20.9338 29.2411 21.7518 28.7373 23.6624L27.0309 30.1333C26.5188 32.0753 27.3225 33.4623 29.1967 33.9726L34.3636 35.3794C36.268 35.8979 37.6158 35.0966 38.1279 33.1547L39.8343 26.6837C40.3381 24.7731 39.5718 23.3693 37.6674 22.8508Z" fill="#39B93A"/>
</g>
<g filter="url(#filter1_b_210_4613)">
<mask id="path-4-outside-1_210_4613" maskUnits="userSpaceOnUse" x="15" y="21.0962" width="24" height="24" fill="black">
<rect fill="white" x="15" y="21.0962" width="24" height="24"/>
<path d="M31.4563 22.0962H22.1114C18.4575 22.0962 16 24.7028 16 28.5798V37.5275C16 41.3936 18.4575 44.0002 22.1114 44.0002H31.4563C35.1102 44.0002 37.5569 41.3936 37.5569 37.5275V28.5798C37.5569 24.7028 35.1102 22.0962 31.4563 22.0962Z"/>
</mask>
<path d="M31.4563 22.0962H22.1114C18.4575 22.0962 16 24.7028 16 28.5798V37.5275C16 41.3936 18.4575 44.0002 22.1114 44.0002H31.4563C35.1102 44.0002 37.5569 41.3936 37.5569 37.5275V28.5798C37.5569 24.7028 35.1102 22.0962 31.4563 22.0962Z" fill="#72DC60" fill-opacity="0.35"/>
<path d="M31.4563 23.0962C32.0086 23.0962 32.4563 22.6485 32.4563 22.0962C32.4563 21.5439 32.0086 21.0962 31.4563 21.0962V23.0962ZM31.4563 21.0962C30.904 21.0962 30.4563 21.5439 30.4563 22.0962C30.4563 22.6485 30.904 23.0962 31.4563 23.0962V21.0962ZM31.4563 21.0962H22.1114V23.0962H31.4563V21.0962ZM22.1114 21.0962C20.0365 21.0962 18.236 21.8423 16.9578 23.1982C15.6845 24.5489 15 26.429 15 28.5798H17C17 26.8535 17.5442 25.4918 18.4131 24.57C19.2772 23.6534 20.5323 23.0962 22.1114 23.0962V21.0962ZM15 28.5798V37.5275H17V28.5798H15ZM15 37.5275C15 39.6735 15.685 41.5509 16.9582 42.9C18.2363 44.2542 20.0366 45.0002 22.1114 45.0002V43.0002C20.5323 43.0002 19.2769 42.4429 18.4127 41.5273C17.5438 40.6066 17 39.2476 17 37.5275H15ZM22.1114 45.0002H31.4563V43.0002H22.1114V45.0002ZM31.4563 45.0002C33.5313 45.0002 35.3294 44.254 36.6049 42.8991C37.8753 41.5496 38.5569 39.6723 38.5569 37.5275H36.5569C36.5569 39.2488 36.015 40.6079 35.1487 41.5282C34.2874 42.4431 33.0351 43.0002 31.4563 43.0002V45.0002ZM38.5569 37.5275V28.5798H36.5569V37.5275H38.5569ZM38.5569 28.5798C38.5569 26.4302 37.8758 24.5503 36.6053 23.1991C35.3297 21.8424 33.5313 21.0962 31.4563 21.0962V23.0962C33.0351 23.0962 34.2871 23.6532 35.1482 24.5691C36.0146 25.4905 36.5569 26.8523 36.5569 28.5798H38.5569Z" fill="url(#paint1_linear_210_4613)" mask="url(#path-4-outside-1_210_4613)"/>
</g>
<g filter="url(#filter2_bd_210_4613)">
<mask id="path-6-inside-2_210_4613" fill="white">
<path d="M25.4994 36.6052C25.258 36.6052 25.0165 36.5121 24.8322 36.3248L22.2745 33.7259C21.9059 33.3514 21.9059 32.7446 22.2745 32.3712C22.6431 31.9966 23.2392 31.9955 23.6078 32.3701L25.4994 34.2921L29.9488 29.7712C30.3174 29.3966 30.9134 29.3966 31.282 29.7712C31.6507 30.1457 31.6507 30.7525 31.282 31.127L26.1666 36.3248C25.9823 36.5121 25.7409 36.6052 25.4994 36.6052Z"/>
</mask>
<path d="M25.4994 36.6052C25.258 36.6052 25.0165 36.5121 24.8322 36.3248L22.2745 33.7259C21.9059 33.3514 21.9059 32.7446 22.2745 32.3712C22.6431 31.9966 23.2392 31.9955 23.6078 32.3701L25.4994 34.2921L29.9488 29.7712C30.3174 29.3966 30.9134 29.3966 31.282 29.7712C31.6507 30.1457 31.6507 30.7525 31.282 31.127L26.1666 36.3248C25.9823 36.5121 25.7409 36.6052 25.4994 36.6052Z" fill="url(#paint2_linear_210_4613)"/>
<path d="M22.2745 32.3712L22.4169 32.5117L22.4171 32.5114L22.2745 32.3712ZM25.4994 34.2921L25.3569 34.4324L25.4994 34.5773L25.642 34.4324L25.4994 34.2921ZM31.282 31.127L31.1395 30.9867L31.282 31.127ZM26.1666 36.3248L26.3092 36.4651L26.1666 36.3248ZM25.4994 36.4052C25.3096 36.4052 25.1201 36.3322 24.9748 36.1845L24.6897 36.4651C24.9129 36.692 25.2063 36.8052 25.4994 36.8052V36.4052ZM24.9748 36.1845L22.4171 33.5856L22.132 33.8662L24.6897 36.4651L24.9748 36.1845ZM22.4171 33.5856C22.1249 33.2888 22.1252 32.8071 22.4169 32.5117L22.1322 32.2307C21.6866 32.6821 21.6869 33.4139 22.132 33.8662L22.4171 33.5856ZM22.4171 32.5114C22.7076 32.2162 23.1753 32.2157 23.4653 32.5103L23.7504 32.2298C23.3031 31.7753 22.5786 31.777 22.132 32.2309L22.4171 32.5114ZM23.4653 32.5103L25.3569 34.4324L25.642 34.1518L23.7504 32.2298L23.4653 32.5103ZM25.642 34.4324L30.0913 29.9114L29.8062 29.6309L25.3569 34.1518L25.642 34.4324ZM30.0913 29.9114C30.3816 29.6165 30.8492 29.6165 31.1395 29.9114L31.4246 29.6309C30.9776 29.1767 30.2532 29.1767 29.8062 29.6309L30.0913 29.9114ZM31.1395 29.9114C31.4315 30.2082 31.4315 30.69 31.1395 30.9867L31.4246 31.2673C31.8698 30.8149 31.8698 30.0833 31.4246 29.6309L31.1395 29.9114ZM31.1395 30.9867L26.0241 36.1845L26.3092 36.4651L31.4246 31.2673L31.1395 30.9867ZM26.0241 36.1845C25.8787 36.3322 25.6892 36.4052 25.4994 36.4052V36.8052C25.7925 36.8052 26.0859 36.692 26.3092 36.4651L26.0241 36.1845Z" fill="url(#paint3_linear_210_4613)" fill-opacity="0.5" mask="url(#path-6-inside-2_210_4613)"/>
</g>
<defs>
<filter id="filter0_f_210_4613" x="12.8799" y="7.29541" width="41.1055" height="42.2383" filterUnits="userSpaceOnUse" color-interpolation-filters="sRGB">
<feFlood flood-opacity="0" result="BackgroundImageFix"/>
<feBlend mode="normal" in="SourceGraphic" in2="BackgroundImageFix" result="shape"/>
<feGaussianBlur stdDeviation="7" result="effect1_foregroundBlur_210_4613"/>
</filter>
<filter id="filter1_b_210_4613" x="-9" y="-2.90381" width="71.5566" height="71.9038" filterUnits="userSpaceOnUse" color-interpolation-filters="sRGB">
<feFlood flood-opacity="0" result="BackgroundImageFix"/>
<feGaussianBlur in="BackgroundImageFix" stdDeviation="12"/>
<feComposite in2="SourceAlpha" operator="in" result="effect1_backgroundBlur_210_4613"/>
<feBlend mode="normal" in="SourceGraphic" in2="effect1_backgroundBlur_210_4613" result="shape"/>
</filter>
<filter id="filter2_bd_210_4613" x="6.99805" y="14.4902" width="39.5605" height="37.1147" filterUnits="userSpaceOnUse" color-interpolation-filters="sRGB">
<feFlood flood-opacity="0" result="BackgroundImageFix"/>
<feGaussianBlur in="BackgroundImageFix" stdDeviation="7.5"/>
<feComposite in2="SourceAlpha" operator="in" result="effect1_backgroundBlur_210_4613"/>
<feColorMatrix in="SourceAlpha" type="matrix" values="0 0 0 0 0 0 0 0 0 0 0 0 0 0 0 0 0 0 127 0" result="hardAlpha"/>
<feOffset dx="5" dy="5"/>
<feGaussianBlur stdDeviation="5"/>
<feColorMatrix type="matrix" values="0 0 0 0 0.454902 0 0 0 0 0.870588 0 0 0 0 0.376471 0 0 0 0.5 0"/>
<feBlend mode="normal" in2="effect1_backgroundBlur_210_4613" result="effect2_dropShadow_210_4613"/>
<feBlend mode="normal" in="SourceGraphic" in2="effect2_dropShadow_210_4613" result="shape"/>
</filter>
<linearGradient id="paint0_linear_210_4613" x1="44.0006" y1="21.4346" x2="27.319" y2="31.4824" gradientUnits="userSpaceOnUse">
<stop stop-color="#9BF763"/>
<stop offset="1" stop-color="#26AB5B"/>
</linearGradient>
<linearGradient id="paint1_linear_210_4613" x1="19.4315" y1="24.648" x2="33.4493" y2="41.7343" gradientUnits="userSpaceOnUse">
<stop stop-color="white" stop-opacity="0.25"/>
<stop offset="1" stop-color="white" stop-opacity="0"/>
</linearGradient>
<linearGradient id="paint2_linear_210_4613" x1="30.8807" y1="30.7751" x2="20.2403" y2="31.2412" gradientUnits="userSpaceOnUse">
<stop stop-color="white"/>
<stop offset="1" stop-color="white" stop-opacity="0.2"/>
</linearGradient>
<linearGradient id="paint3_linear_210_4613" x1="23.0279" y1="31.877" x2="31.1459" y2="31.9372" gradientUnits="userSpaceOnUse">
<stop stop-color="white"/>
<stop offset="1" stop-color="white" stop-opacity="0"/>
</linearGradient>
</defs>
</svg>
