<svg width="60" height="60" viewBox="0 0 60 60" fill="none" xmlns="http://www.w3.org/2000/svg">
<circle cx="30" cy="30" r="30" fill="#C8E6FF" fill-opacity="0.8"/>
<path d="M25.0531 27.9362C22.9145 26.0546 22.5115 22.848 24.1186 20.5014C25.7258 18.1549 28.8259 17.4238 31.3064 18.8063L34.7992 20.753C37.9058 22.4845 38.8595 26.557 36.8467 29.4959C34.8339 32.4347 30.743 32.9424 28.0646 30.5858L25.0531 27.9362Z" fill="url(#paint0_linear_210_4590)"/>
<g opacity="0.5" filter="url(#filter0_f_210_4590)">
<path d="M26.849 26.7643C25.5848 25.6521 25.3466 23.7567 26.2966 22.3697C27.2466 20.9827 29.079 20.5505 30.5452 21.3677L32.6097 22.5184C34.446 23.5419 35.0098 25.9491 33.82 27.6862C32.6302 29.4233 30.2122 29.7234 28.629 28.3305L26.849 26.7643Z" fill="#0062FF"/>
</g>
<g filter="url(#filter1_b_210_4590)">
<mask id="path-4-outside-1_210_4590" maskUnits="userSpaceOnUse" x="17" y="22.0596" width="26" height="24" fill="black">
<rect fill="white" x="17" y="22.0596" width="26" height="24"/>
<path d="M41.1 35.8293C40.1148 35.8293 39.3132 35.0225 39.3132 34.0309C39.3132 33.0381 40.1148 32.2314 41.1 32.2314C41.3388 32.2314 41.568 32.1359 41.736 31.9669C41.9052 31.7966 42 31.5659 42 31.3255L41.9988 28.0621C41.9988 25.3036 39.768 23.0596 37.0272 23.0596H22.9728C20.232 23.0596 18.0012 25.3036 18.0012 28.0621L18 31.4306C18 31.6709 18.0948 31.9016 18.264 32.0719C18.432 32.241 18.6612 32.3364 18.9 32.3364C19.9188 32.3364 20.6868 33.0647 20.6868 34.0309C20.6868 35.0225 19.8852 35.8293 18.9 35.8293C18.4032 35.8293 18 36.2351 18 36.7351V39.9961C18 42.7546 20.2296 44.9999 22.9716 44.9999H37.0284C39.7704 44.9999 42 42.7546 42 39.9961V36.7351C42 36.2351 41.5968 35.8293 41.1 35.8293Z"/>
</mask>
<path d="M41.1 35.8293C40.1148 35.8293 39.3132 35.0225 39.3132 34.0309C39.3132 33.0381 40.1148 32.2314 41.1 32.2314C41.3388 32.2314 41.568 32.1359 41.736 31.9669C41.9052 31.7966 42 31.5659 42 31.3255L41.9988 28.0621C41.9988 25.3036 39.768 23.0596 37.0272 23.0596H22.9728C20.232 23.0596 18.0012 25.3036 18.0012 28.0621L18 31.4306C18 31.6709 18.0948 31.9016 18.264 32.0719C18.432 32.241 18.6612 32.3364 18.9 32.3364C19.9188 32.3364 20.6868 33.0647 20.6868 34.0309C20.6868 35.0225 19.8852 35.8293 18.9 35.8293C18.4032 35.8293 18 36.2351 18 36.7351V39.9961C18 42.7546 20.2296 44.9999 22.9716 44.9999H37.0284C39.7704 44.9999 42 42.7546 42 39.9961V36.7351C42 36.2351 41.5968 35.8293 41.1 35.8293Z" fill="#3EA0FE" fill-opacity="0.35"/>
<path d="M41.1 36.8293C41.6523 36.8293 42.1 36.3816 42.1 35.8293C42.1 35.277 41.6523 34.8293 41.1 34.8293V36.8293ZM41.736 31.9669L41.0266 31.262L41.736 31.9669ZM42 31.3255H43L43 31.3252L42 31.3255ZM41.9988 28.0621H40.9988V28.0625L41.9988 28.0621ZM18.0012 28.0621L19.0012 28.0625V28.0621H18.0012ZM18 31.4306L17 31.4302V31.4306H18ZM18.264 32.0719L18.9734 31.3671H18.9734L18.264 32.0719ZM41.1 34.8293C40.5477 34.8293 40.1 35.277 40.1 35.8293C40.1 36.3816 40.5477 36.8293 41.1 36.8293V34.8293ZM41.1 34.8293C40.6732 34.8293 40.3132 34.4763 40.3132 34.0309H38.3132C38.3132 35.5687 39.5564 36.8293 41.1 36.8293V34.8293ZM40.3132 34.0309C40.3132 33.5839 40.6736 33.2314 41.1 33.2314V31.2314C39.556 31.2314 38.3132 32.4924 38.3132 34.0309H40.3132ZM41.1 33.2314C41.605 33.2314 42.0896 33.0298 42.4454 32.6717L41.0266 31.262C41.0464 31.2421 41.0726 31.2314 41.1 31.2314V33.2314ZM42.4454 32.6717C42.8015 32.3133 43 31.8289 43 31.3255H41C41 31.3028 41.0089 31.2798 41.0266 31.262L42.4454 32.6717ZM43 31.3252L42.9988 28.0618L40.9988 28.0625L41 31.3259L43 31.3252ZM42.9988 28.0621C42.9988 24.7571 40.326 22.0596 37.0272 22.0596V24.0596C39.21 24.0596 40.9988 25.8501 40.9988 28.0621H42.9988ZM37.0272 22.0596H22.9728V24.0596H37.0272V22.0596ZM22.9728 22.0596C19.674 22.0596 17.0012 24.7571 17.0012 28.0621H19.0012C19.0012 25.8501 20.79 24.0596 22.9728 24.0596V22.0596ZM17.0012 28.0618L17 31.4302L19 31.431L19.0012 28.0625L17.0012 28.0618ZM17 31.4306C17 31.934 17.1985 32.4184 17.5546 32.7768L18.9734 31.3671C18.9911 31.3849 19 31.4079 19 31.4306H17ZM17.5546 32.7768C17.9104 33.1349 18.395 33.3364 18.9 33.3364V31.3364C18.9274 31.3364 18.9536 31.3472 18.9734 31.3671L17.5546 32.7768ZM18.9 33.3364C19.4172 33.3364 19.6868 33.6663 19.6868 34.0309H21.6868C21.6868 32.4631 20.4204 31.3364 18.9 31.3364V33.3364ZM19.6868 34.0309C19.6868 34.4763 19.3268 34.8293 18.9 34.8293V36.8293C20.4436 36.8293 21.6868 35.5687 21.6868 34.0309H19.6868ZM18.9 34.8293C17.8448 34.8293 17 35.6889 17 36.7351H19C19 36.7813 18.9616 36.8293 18.9 36.8293V34.8293ZM17 36.7351V39.9961H19V36.7351H17ZM17 39.9961C17 43.3007 19.6711 45.9999 22.9716 45.9999V43.9999C20.7881 43.9999 19 42.2086 19 39.9961H17ZM22.9716 45.9999H37.0284V43.9999H22.9716V45.9999ZM37.0284 45.9999C40.3289 45.9999 43 43.3007 43 39.9961H41C41 42.2086 39.2119 43.9999 37.0284 43.9999V45.9999ZM43 39.9961V36.7351H41V39.9961H43ZM43 36.7351C43 35.6889 42.1552 34.8293 41.1 34.8293V36.8293C41.0384 36.8293 41 36.7813 41 36.7351H43Z" fill="url(#paint1_linear_210_4590)" mask="url(#path-4-outside-1_210_4590)"/>
</g>
<g filter="url(#filter2_bd_210_4590)">
<path d="M34.1166 33.5281L32.7018 34.9274L33.0366 36.9057C33.0942 37.2482 32.9586 37.5858 32.6814 37.7882C32.4066 37.9929 32.0478 38.0185 31.7454 37.8552L29.9994 36.9227L28.2498 37.8564C28.1202 37.9259 27.9786 37.9625 27.8382 37.9625C27.6546 37.9625 27.4734 37.904 27.3174 37.7894C27.0414 37.5858 26.9058 37.2482 26.9634 36.9057L27.297 34.9274L25.8822 33.5281C25.6374 33.2867 25.5522 32.932 25.6578 32.6017C25.7646 32.2726 26.0406 32.0386 26.3778 31.9898L28.329 31.7009L29.2038 29.9006C29.3562 29.591 29.661 29.3984 29.9994 29.3984H30.0018C30.3414 29.3997 30.6462 29.5922 30.7962 29.9018L31.671 31.7009L33.6258 31.991C33.9594 32.0386 34.2354 32.2726 34.341 32.6017C34.4478 32.932 34.3626 33.2867 34.1166 33.5281Z" fill="url(#paint2_linear_210_4590)"/>
<path d="M34.0463 33.457L34.0466 33.4567C34.2651 33.2423 34.3412 32.9273 34.2458 32.6325L34.2458 32.6323C34.1516 32.3389 33.9066 32.1321 33.6117 32.09L33.6111 32.09L31.6563 31.7999L31.6041 31.7921L31.5811 31.7447L30.7063 29.9456L30.7062 29.9454C30.5727 29.6699 30.3025 29.4996 30.0016 29.4984H29.9994C29.7002 29.4984 29.4297 29.6684 29.2936 29.9446C29.2936 29.9446 29.2936 29.9447 29.2935 29.9448L28.4189 31.7447L28.3959 31.7921L28.3436 31.7999L26.3924 32.0888L26.3921 32.0888C26.0933 32.132 25.8483 32.3391 25.753 32.6324C25.6588 32.9274 25.735 33.2425 25.9524 33.4569L25.9525 33.457L27.3673 34.8563L27.4042 34.8928L27.3956 34.944L27.062 36.9223C27.0106 37.2281 27.1315 37.528 27.3767 37.7089C27.5158 37.8109 27.6762 37.8625 27.8382 37.8625C27.9613 37.8625 28.0867 37.8304 28.2026 37.7683L28.2027 37.7682L29.9523 36.8345L29.9994 36.8094L30.0465 36.8345L31.7925 37.767L31.7929 37.7672C32.0613 37.9122 32.3782 37.8894 32.6216 37.708L32.6224 37.7074C32.8685 37.5278 32.9894 37.2282 32.938 36.9224L34.0463 33.457ZM34.0463 33.457L32.6315 34.8563L32.5945 34.8928L32.6032 34.9441L32.938 36.9223L34.0463 33.457Z" stroke="url(#paint3_linear_210_4590)" stroke-opacity="0.5" stroke-width="0.2"/>
</g>
<defs>
<filter id="filter0_f_210_4590" x="5.71582" y="0.956055" width="48.7295" height="48.2524" filterUnits="userSpaceOnUse" color-interpolation-filters="sRGB">
<feFlood flood-opacity="0" result="BackgroundImageFix"/>
<feBlend mode="normal" in="SourceGraphic" in2="BackgroundImageFix" result="shape"/>
<feGaussianBlur stdDeviation="10" result="effect1_foregroundBlur_210_4590"/>
</filter>
<filter id="filter1_b_210_4590" x="-7" y="-1.94043" width="74" height="71.9404" filterUnits="userSpaceOnUse" color-interpolation-filters="sRGB">
<feFlood flood-opacity="0" result="BackgroundImageFix"/>
<feGaussianBlur in="BackgroundImageFix" stdDeviation="12"/>
<feComposite in2="SourceAlpha" operator="in" result="effect1_backgroundBlur_210_4590"/>
<feBlend mode="normal" in="SourceGraphic" in2="effect1_backgroundBlur_210_4590" result="shape"/>
</filter>
<filter id="filter2_bd_210_4590" x="10.6133" y="14.3984" width="38.7734" height="38.564" filterUnits="userSpaceOnUse" color-interpolation-filters="sRGB">
<feFlood flood-opacity="0" result="BackgroundImageFix"/>
<feGaussianBlur in="BackgroundImageFix" stdDeviation="7.5"/>
<feComposite in2="SourceAlpha" operator="in" result="effect1_backgroundBlur_210_4590"/>
<feColorMatrix in="SourceAlpha" type="matrix" values="0 0 0 0 0 0 0 0 0 0 0 0 0 0 0 0 0 0 127 0" result="hardAlpha"/>
<feOffset dx="5" dy="5"/>
<feGaussianBlur stdDeviation="5"/>
<feColorMatrix type="matrix" values="0 0 0 0 0.15375 0 0 0 0 0.522433 0 0 0 0 0.9 0 0 0 0.5 0"/>
<feBlend mode="normal" in2="effect1_backgroundBlur_210_4590" result="effect2_dropShadow_210_4590"/>
<feBlend mode="normal" in="SourceGraphic" in2="effect2_dropShadow_210_4590" result="shape"/>
</filter>
<linearGradient id="paint0_linear_210_4590" x1="27.3476" y1="15.7869" x2="25.9564" y2="33.6271" gradientUnits="userSpaceOnUse">
<stop stop-color="#39AFFD"/>
<stop offset="1" stop-color="#477FFF"/>
</linearGradient>
<linearGradient id="paint1_linear_210_4590" x1="21.8204" y1="25.6156" x2="39.6547" y2="45.4885" gradientUnits="userSpaceOnUse">
<stop stop-color="white" stop-opacity="0.25"/>
<stop offset="1" stop-color="white" stop-opacity="0"/>
</linearGradient>
<linearGradient id="paint2_linear_210_4590" x1="33.7643" y1="30.9449" x2="23.9925" y2="31.2713" gradientUnits="userSpaceOnUse">
<stop stop-color="white"/>
<stop offset="1" stop-color="white" stop-opacity="0.2"/>
</linearGradient>
<linearGradient id="paint3_linear_210_4590" x1="26.5583" y1="32.2713" x2="34.0078" y2="32.3134" gradientUnits="userSpaceOnUse">
<stop stop-color="white"/>
<stop offset="1" stop-color="white" stop-opacity="0"/>
</linearGradient>
</defs>
</svg>
