<svg width="22" height="14" viewBox="0 0 22 14" fill="none" xmlns="http://www.w3.org/2000/svg">
<path d="M10.7271 13.9998C8.65443 13.9572 6.70021 13.1648 4.89827 11.9633C3.18092 10.813 1.70891 9.39854 0.414557 7.7881C-0.135333 7.11495 -0.135333 6.87637 0.397637 6.22026C2.03884 4.1923 3.93385 2.44552 6.2603 1.21852C9.51734 -0.502693 12.7321 -0.37488 15.896 1.44006C18.0702 2.68411 19.8722 4.36272 21.4288 6.32251C21.8349 6.83377 21.8602 7.12348 21.4965 7.5836C19.6099 9.96944 17.4019 11.9633 14.5932 13.1988C13.4258 13.7101 12.0299 14.0083 10.7271 13.9998ZM11.0147 12.4405C11.7 12.4746 12.529 12.3042 13.3327 12.023C15.9468 11.1112 17.9433 9.34742 19.7537 7.31093C19.9652 7.07235 19.9652 6.91897 19.7537 6.67187C18.4678 5.20628 17.0466 3.90259 15.3631 2.89713C12.9859 1.48267 10.5071 1.05662 7.88459 2.14729C5.482 3.16128 3.59545 4.84841 1.91195 6.79116C1.74275 6.98714 1.83581 7.11495 1.97117 7.25981C3.2909 8.79356 4.77137 10.1484 6.52256 11.1538C7.85075 11.9292 9.272 12.449 11.0147 12.4405Z" fill="url(#paint0_linear_485_17336)"/>
<path d="M10.9129 2.62454C13.2817 2.64158 15.2274 4.63546 15.2105 7.02982C15.1936 9.41566 13.214 11.3755 10.8368 11.3584C8.46801 11.3414 6.52225 9.3475 6.53917 6.95314C6.55609 4.5673 8.53569 2.61602 10.9129 2.62454ZM13.6539 6.98722C13.6454 5.40234 12.4357 4.19238 10.8621 4.19238C9.28862 4.2009 8.08732 5.41938 8.08732 7.00426C8.09578 8.58914 9.30554 9.7991 10.8791 9.7991C12.4611 9.7991 13.6624 8.5721 13.6539 6.98722Z" fill="url(#paint1_linear_485_17336)"/>
<path d="M10.7271 13.9998C8.65443 13.9572 6.70021 13.1648 4.89827 11.9633C3.18092 10.813 1.70891 9.39854 0.414557 7.7881C-0.135333 7.11495 -0.135333 6.87637 0.397637 6.22026C2.03884 4.1923 3.93385 2.44552 6.2603 1.21852C9.51734 -0.502693 12.7321 -0.37488 15.896 1.44006C18.0702 2.68411 19.8722 4.36272 21.4288 6.32251C21.8349 6.83377 21.8602 7.12348 21.4965 7.5836C19.6099 9.96944 17.4019 11.9633 14.5932 13.1988C13.4258 13.7101 12.0299 14.0083 10.7271 13.9998ZM11.0147 12.4405C11.7 12.4746 12.529 12.3042 13.3327 12.023C15.9468 11.1112 17.9433 9.34742 19.7537 7.31093C19.9652 7.07235 19.9652 6.91897 19.7537 6.67187C18.4678 5.20628 17.0466 3.90259 15.3631 2.89713C12.9859 1.48267 10.5071 1.05662 7.88459 2.14729C5.482 3.16128 3.59545 4.84841 1.91195 6.79116C1.74275 6.98714 1.83581 7.11495 1.97117 7.25981C3.2909 8.79356 4.77137 10.1484 6.52256 11.1538C7.85075 11.9292 9.272 12.449 11.0147 12.4405Z" fill="url(#paint2_linear_485_17336)"/>
<path d="M10.9129 2.62454C13.2817 2.64158 15.2274 4.63546 15.2105 7.02982C15.1936 9.41566 13.214 11.3755 10.8368 11.3584C8.46801 11.3414 6.52225 9.3475 6.53917 6.95314C6.55609 4.5673 8.53569 2.61602 10.9129 2.62454ZM13.6539 6.98722C13.6454 5.40234 12.4357 4.19238 10.8621 4.19238C9.28862 4.2009 8.08732 5.41938 8.08732 7.00426C8.09578 8.58914 9.30554 9.7991 10.8791 9.7991C12.4611 9.7991 13.6624 8.5721 13.6539 6.98722Z" fill="url(#paint3_linear_485_17336)"/>
<defs>
<linearGradient id="paint0_linear_485_17336" x1="-0.753795" y1="3.34194e-07" x2="21.3509" y2="14.6075" gradientUnits="userSpaceOnUse">
<stop stop-color="#9A77F9"/>
<stop offset="1" stop-color="#7746FD"/>
</linearGradient>
<linearGradient id="paint1_linear_485_17336" x1="6.23856" y1="2.62451" x2="16.9829" y2="7.16156" gradientUnits="userSpaceOnUse">
<stop stop-color="#9A77F9"/>
<stop offset="1" stop-color="#7746FD"/>
</linearGradient>
<linearGradient id="paint2_linear_485_17336" x1="-0.753795" y1="3.34194e-07" x2="21.3509" y2="14.6075" gradientUnits="userSpaceOnUse">
<stop stop-color="#9A77F9"/>
<stop offset="1" stop-color="#7746FD"/>
</linearGradient>
<linearGradient id="paint3_linear_485_17336" x1="6.23856" y1="2.62451" x2="16.9829" y2="7.16156" gradientUnits="userSpaceOnUse">
<stop stop-color="#9A77F9"/>
<stop offset="1" stop-color="#7746FD"/>
</linearGradient>
</defs>
</svg>
